<?xml version="1.0" encoding="UTF-8" standalone="no"?>
<svg
   xmlns:dc="http://purl.org/dc/elements/1.1/"
   xmlns:cc="http://creativecommons.org/ns#"
   xmlns:rdf="http://www.w3.org/1999/02/22-rdf-syntax-ns#"
   xmlns:svg="http://www.w3.org/2000/svg"
   xmlns="http://www.w3.org/2000/svg"
   xmlns:sodipodi="http://sodipodi.sourceforge.net/DTD/sodipodi-0.dtd"
   xmlns:inkscape="http://www.inkscape.org/namespaces/inkscape"
   width="1000"
   height="1000"
   viewBox="0 0 264.58333 264.58334"
   version="1.1"
   id="svg8"
   inkscape:version="1.0.2-2 (e86c870879, 2021-01-15)"
   sodipodi:docname="Discord.svg">
  <defs
     id="defs2" />
  <sodipodi:namedview
     id="base"
     pagecolor="#ffffff"
     bordercolor="#666666"
     borderopacity="1.0"
     inkscape:pageopacity="0.0"
     inkscape:pageshadow="2"
     inkscape:zoom="0.81575875"
     inkscape:cx="599.65404"
     inkscape:cy="441.82306"
     inkscape:document-units="mm"
     inkscape:current-layer="layer2"
     inkscape:document-rotation="0"
     showgrid="false"
     units="px"
     inkscape:window-width="2558"
     inkscape:window-height="1368"
     inkscape:window-x="3241"
     inkscape:window-y="1442"
     inkscape:window-maximized="0" />
  <metadata
     id="metadata5">
    <rdf:RDF>
      <cc:Work
         rdf:about="">
        <dc:format>image/svg+xml</dc:format>
        <dc:type
           rdf:resource="http://purl.org/dc/dcmitype/StillImage" />
        <dc:title></dc:title>
      </cc:Work>
    </rdf:RDF>
  </metadata>
  <g
     inkscape:groupmode="layer"
     id="layer2"
     inkscape:label="Background" />
  <g
     inkscape:label="Logo"
     inkscape:groupmode="layer"
     id="layer1">
    <path
       style="fill:#5865f2;fill-opacity:1;stroke-width:0.0642746"
       d="m 67.549402,231.38482 c -0.195449,-0.0643 -1.403463,-0.44906 -2.684446,-0.85466 C 51.098464,226.17103 37.800113,220.48103 25.129688,213.5285 17.546402,209.36737 9.9862355,204.62712 2.6436851,199.42969 c -0.8173795,-0.57858 -1.495827,-1.06044 -1.5076586,-1.0708 -0.033107,-0.029 -0.24786359,-2.38964 -0.42728251,-4.69687 C -0.0424379,184.00224 -0.20103697,173.84233 0.2546307,164.57117 1.3427693,142.4315 5.7194496,121.3421 13.50998,100.69916 19.778701,84.088625 28.387895,67.609694 39.102593,51.712114 l 1.322459,-1.962153 1.52764,-0.684077 c 16.219358,-7.263027 33.590297,-12.575638 51.1027,-15.628904 1.003535,-0.174971 1.880857,-0.318119 1.949607,-0.318119 0.142736,0 0.436487,0.517578 2.15909,3.804274 1.567241,2.990257 3.341691,6.657894 4.633541,9.577127 0.26158,0.591098 0.28647,0.624267 0.44432,0.592103 0.30494,-0.06215 3.45363,-0.478002 5.08604,-0.671738 6.61197,-0.784713 12.48816,-1.215496 19.3118,-1.415745 2.8638,-0.08404 11.17092,-0.04386 13.63375,0.06594 6.22363,0.277486 10.85023,0.633912 16.31526,1.256904 1.8659,0.212703 5.59436,0.69142 5.94564,0.763387 0.15427,0.0316 0.1808,-0.0088 0.51323,-0.783669 1.61184,-3.755553 4.11058,-8.818479 6.02339,-12.204566 l 0.58182,-1.029961 0.26868,0.05246 c 0.14769,0.02886 0.952,0.170138 1.78714,0.313983 2.00845,0.345913 5.96803,1.123268 8.32269,1.633932 14.4217,3.127692 28.42493,7.689943 42.20621,13.750768 l 2.09997,0.923547 1.51621,2.251035 c 8.24922,12.247219 14.78094,23.914173 20.32665,36.307298 10.4768,23.412809 16.53764,48.082429 18.02217,73.356139 0.22706,3.86685 0.28721,5.50805 0.35286,9.63836 0.1214,7.63791 -0.15497,15.54815 -0.80562,23.06488 -0.15474,1.78809 -0.35533,3.86225 -0.38052,3.93595 -0.0517,0.15102 -4.69967,3.39296 -7.91965,5.52388 -6.4723,4.28329 -12.57376,7.90571 -19.38449,11.50844 -2.18668,1.15672 -7.85784,3.96148 -10.07991,4.98519 -9.14432,4.21273 -18.24481,7.69715 -28.22153,10.80548 -0.68463,0.21327 -1.2807,0.38707 -1.32461,0.38616 -0.0827,-0.002 -0.2475,-0.2177 -1.73149,-2.26808 -2.41398,-3.33511 -5.18945,-7.53991 -7.40649,-11.22076 -1.43652,-2.38493 -3.91886,-6.82823 -4.95354,-8.86669 l -0.23292,-0.45908 0.62856,-0.23762 c 4.93727,-1.86615 9.06907,-3.67977 13.81002,-6.06178 3.21967,-1.61765 8.14679,-4.3239 8.09619,-4.44688 -0.0117,-0.0258 -0.4492,-0.36787 -0.97459,-0.76007 -0.52541,-0.39221 -1.7387,-1.33196 -2.69622,-2.0883 -0.95753,-0.75635 -1.76233,-1.37523 -1.78849,-1.37523 -0.0261,0 -0.70281,0.29205 -1.50374,0.64901 -17.16209,7.64869 -34.96275,12.21638 -53.14818,13.63789 -4.2523,0.3324 -7.28519,0.44339 -12.11531,0.44339 -5.29931,0 -8.69795,-0.14241 -13.60145,-0.57019 -17.74083,-1.54751 -35.586396,-6.20482 -52.314289,-13.65284 -0.626592,-0.27899 -1.165499,-0.50726 -1.197575,-0.50726 -0.03207,0 -0.289945,0.19168 -0.573043,0.4259 -0.990289,0.81936 -2.656674,2.11826 -3.797291,2.95984 -0.632649,0.46679 -1.141492,0.85729 -1.130759,0.86779 0.0108,0.0116 0.644659,0.37701 1.408732,0.81447 6.510634,3.72769 13.561941,7.0502 20.386017,9.60569 0.355381,0.13313 0.672086,0.26489 0.70378,0.29291 0.03224,0.0286 -0.31273,0.74993 -0.78276,1.63705 -3.685843,6.95655 -7.814117,13.55387 -12.404802,19.82387 -0.647153,0.88386 -1.033155,1.35688 -1.104671,1.35357 -0.06046,-0.002 -0.269839,-0.0579 -0.465299,-0.1222 z m 23.229075,-63.16746 c 6.805545,-0.78994 12.772493,-4.51543 16.822433,-10.5032 2.42498,-3.58529 3.95669,-7.84077 4.50486,-12.51559 0.14069,-1.19991 0.19483,-4.27799 0.0975,-5.54333 -0.45441,-5.90707 -2.62459,-11.25964 -6.28972,-15.51305 -4.04818,-4.69796 -9.445644,-7.56185 -15.393534,-8.16782 -0.909934,-0.0927 -3.279777,-0.0925 -4.199971,6.3e-4 -3.786927,0.3826 -7.335102,1.67515 -10.499929,3.82501 -2.232344,1.51642 -4.600759,3.86583 -6.24154,6.19147 -4.925055,6.98076 -6.306681,16.50527 -3.604435,24.84792 1.114439,3.44061 2.781662,6.44411 5.120353,9.22433 0.72171,0.85796 2.456229,2.54093 3.336399,3.23723 1.51552,1.19891 2.907912,2.07165 4.586015,2.87442 2.481679,1.1872 4.962647,1.85999 7.755442,2.10318 0.786518,0.0686 3.207693,0.0316 4.006126,-0.0611 z m 88.134783,-0.0288 c 4.34468,-0.55665 8.03515,-2.11647 11.50054,-4.8608 0.89527,-0.70901 2.50035,-2.27535 3.31206,-3.23212 2.90917,-3.42911 4.90522,-7.58794 5.83033,-12.14766 0.48123,-2.37188 0.6138,-3.95937 0.5632,-6.74485 -0.0362,-1.99229 -0.1059,-2.80987 -0.3712,-4.3482 -1.37533,-7.97739 -6.27289,-14.86149 -13.11343,-18.43256 -6.39853,-3.34032 -13.96731,-3.38388 -20.38601,-0.11733 -2.35532,1.19866 -4.20058,2.55851 -6.13964,4.52457 -6.58492,6.67663 -9.17645,16.91356 -6.70678,26.49282 0.7918,3.07126 2.26489,6.25642 4.07261,8.80604 1.54027,2.17241 3.50481,4.1983 5.54305,5.71623 3.41604,2.54399 7.42337,4.07545 11.59838,4.4325 0.90098,0.0771 3.40723,0.0253 4.29689,-0.0888 z"
       id="path877" />
  </g>
</svg>
