<?xml version="1.0" encoding="UTF-8" standalone="no"?>
<svg
   xmlns:dc="http://purl.org/dc/elements/1.1/"
   xmlns:cc="http://creativecommons.org/ns#"
   xmlns:rdf="http://www.w3.org/1999/02/22-rdf-syntax-ns#"
   xmlns:svg="http://www.w3.org/2000/svg"
   xmlns="http://www.w3.org/2000/svg"
   xmlns:sodipodi="http://sodipodi.sourceforge.net/DTD/sodipodi-0.dtd"
   xmlns:inkscape="http://www.inkscape.org/namespaces/inkscape"
   width="1000"
   height="1000"
   viewBox="0 0 264.58333 264.58334"
   version="1.1"
   id="svg8"
   inkscape:version="1.0.2-2 (e86c870879, 2021-01-15)"
   sodipodi:docname="Facebook.svg">
  <defs
     id="defs2" />
  <sodipodi:namedview
     id="base"
     pagecolor="#ffffff"
     bordercolor="#666666"
     borderopacity="1.0"
     inkscape:pageopacity="0.0"
     inkscape:pageshadow="2"
     inkscape:zoom="0.40787938"
     inkscape:cx="346.06249"
     inkscape:cy="560"
     inkscape:document-units="mm"
     inkscape:current-layer="layer1"
     inkscape:document-rotation="0"
     showgrid="false"
     units="px"
     inkscape:window-width="2558"
     inkscape:window-height="1368"
     inkscape:window-x="3241"
     inkscape:window-y="1442"
     inkscape:window-maximized="0" />
  <metadata
     id="metadata5">
    <rdf:RDF>
      <cc:Work
         rdf:about="">
        <dc:format>image/svg+xml</dc:format>
        <dc:type
           rdf:resource="http://purl.org/dc/dcmitype/StillImage" />
        <dc:title></dc:title>
      </cc:Work>
    </rdf:RDF>
  </metadata>
  <g
     inkscape:label="Layer 1"
     inkscape:groupmode="layer"
     id="layer1">
    <path
       style="fill:#1877f2;stroke-width:0.166501;fill-opacity:1"
       d="m 110.80406,264.40643 c -0.45662,-0.0847 -1.5774,-0.29549 -2.49062,-0.46855 -0.91322,-0.17304 -2.33288,-0.43908 -3.15477,-0.59116 -2.27653,-0.42128 -5.42241,-1.21113 -9.29829,-2.33455 -0.45661,-0.13235 -1.14375,-0.31878 -1.52697,-0.41429 -0.79656,-0.19854 -3.56453,-1.11464 -5.2807,-1.74773 -0.63926,-0.23582 -1.8001,-0.64681 -2.57964,-0.9133 -1.67145,-0.57139 -1.60666,-0.54588 -4.47709,-1.7627 -1.23286,-0.52262 -2.54042,-1.06944 -2.90571,-1.21515 -0.91018,-0.36308 -8.40046,-4.06131 -9.63037,-4.75489 -0.54793,-0.30899 -1.51927,-0.84918 -2.15853,-1.20044 -1.608,-0.88353 -1.72841,-0.95417 -2.57363,-1.5099 -0.41094,-0.27021 -1.07858,-0.67197 -1.48361,-0.89281 -0.40504,-0.22084 -1.09542,-0.65526 -1.53418,-0.96536 -0.43876,-0.31011 -0.82925,-0.56383 -0.86776,-0.56383 -0.10417,0 -4.25415,-2.81655 -4.83159,-3.27913 -0.65677,-0.52617 -0.70633,-0.56203 -1.57739,-1.14174 -0.80041,-0.53269 -5.72433,-4.34518 -6.15027,-4.76204 -0.14074,-0.13774 -0.62642,-0.54855 -1.07929,-0.91291 -4.3204,-3.47603 -13.013,-12.22238 -16.26704,-16.36764 -0.36044,-0.45914 -0.82833,-1.01744 -1.03978,-1.24065 -0.21145,-0.22321 -1.06964,-1.31264 -1.90707,-2.42094 -0.83744,-1.10831 -1.61733,-2.11306 -1.73309,-2.23275 -0.11575,-0.1197 -0.49073,-0.64563 -0.83329,-1.16873 -0.34256,-0.52311 -0.68103,-1.02623 -0.75215,-1.11806 -0.88197,-1.13877 -1.31548,-1.75148 -2.24442,-3.17228 -2.08211,-3.18453 -2.82313,-4.3445 -3.21524,-5.033 -0.21675,-0.38059 -0.88709,-1.54515 -1.48965,-2.58791 -1.79114,-3.0997 -2.74267,-4.89682 -4.31889,-8.15699 -0.82135,-1.69884 -1.56784,-3.22507 -1.65887,-3.39163 -0.091,-0.16656 -0.41659,-0.91789 -0.72346,-1.66962 -0.30688,-0.75173 -0.97965,-2.38108 -1.49504,-3.62077 -0.5154,-1.23969 -1.15425,-2.89261 -1.41967,-3.67316 -0.26543,-0.78055 -0.67837,-1.94511 -0.91765,-2.58791 -0.23928,-0.64281 -0.49673,-1.39413 -0.57212,-1.66962 -0.0754,-0.27549 -0.3573,-1.17708 -0.6265,-2.00355 -0.26921,-0.82645 -0.65823,-2.14128 -0.86449,-2.92182 -0.20627,-0.78055 -0.51245,-1.90755 -0.6804,-2.50443 -0.2972,-1.05625 -0.58131,-2.13902 -0.96381,-3.67317 -0.22948,-0.92045 -0.8967,-4.28581 -1.34062,-6.76195 -1.46602998,-8.17727 -1.98546998,-13.409 -2.11357998,-21.28765 -0.16366,-10.06543 0.40697,-17.24011 2.11804998,-26.63042 0.18407,-1.01012 0.45039,-2.47521 0.59184,-3.25576 0.73105,-4.03422 3.26735,-13.148172 4.76306,-17.115704 0.13804,-0.366153 0.48885,-1.341926 0.77958,-2.168389 0.58838,-1.672577 1.36348,-3.607993 2.05712,-5.136516 0.13483,-0.297105 0.44188,-1.028553 0.68236,-1.625444 1.30097,-3.22919 5.09832,-10.725639 7.10431,-14.0248 0.41877,-0.688717 1.00126,-1.665445 1.29445,-2.170504 0.54492,-0.938754 4.20655,-6.492114 5.17408,-7.84721 8.59307,-12.035273 18.86892,-22.368137 30.83779,-31.008877 1.34762,-0.972894 6.87034,-4.654834 7.80392,-5.202787 0.50227,-0.294805 1.47361,-0.880534 2.15853,-1.301619 3.28095,-2.017122 10.73605,-5.835543 13.94742,-7.143729 0.5936,-0.241807 1.30342,-0.541048 1.57738,-0.664978 1.83759,-0.8312401 3.45292,-1.4870351 5.14727,-2.0897021 0.8219,-0.292343 1.79229,-0.645097 2.15642,-0.783898 3.94565,-1.504019 13.00932,-4.05438 17.02129,-4.789494 0.77623,-0.142231 2.23324,-0.410033 3.23779,-0.595116 9.33851,-1.72057402 16.4736,-2.29437802 26.4835,-2.12980202 7.79618,0.12818 13.20816,0.669887 21.08718,2.11070202 4.10412,0.750509 5.61134,1.047858 6.39257,1.261143 0.45661,0.124661 1.35322,0.350608 1.99248,0.502105 0.63926,0.151497 1.61059,0.411255 2.15853,0.577242 0.54793,0.165986 1.63135,0.470727 2.4076,0.677201 0.77623,0.206475 2.0838,0.596886 2.90571,0.867582 0.8219,0.270694 1.71852,0.554189 1.99249,0.629987 0.27396,0.0758 1.02114,0.334675 1.6604,0.575284 0.63926,0.240608 1.79739,0.65584 2.57363,0.922738 0.77624,0.266898 2.42004,0.909296 3.6529,1.427551 1.23285,0.5182551 2.85321,1.1947551 3.60079,1.5033331 0.74758,0.308578 1.49477,0.635943 1.66041,0.727476 0.16564,0.09153 1.68345,0.842167 3.37292,1.668075 3.24218,1.584963 5.02939,2.541769 8.11198,4.342855 1.03701,0.605896 2.19515,1.279954 2.57363,1.497907 0.68471,0.394279 1.83828,1.139418 5.00524,3.233082 1.41296,0.934095 2.02229,1.370008 3.15477,2.256868 0.0913,0.07151 0.59167,0.41186 1.1119,0.756322 0.52022,0.344461 1.04324,0.721524 1.16228,0.837918 0.11903,0.116395 1.11823,0.900608 2.22043,1.742697 1.10219,0.842089 2.18561,1.705033 2.40759,1.917654 0.22198,0.212619 0.77719,0.683115 1.2338,1.045544 4.13519,3.282259 12.93502,12.128998 16.27734,16.364122 0.36235,0.459145 0.74499,0.909942 0.85033,1.001772 0.26599,0.231886 4.32842,5.542532 5.03877,6.586984 0.31963,0.469954 0.88002,1.255687 1.2453,1.746071 0.36529,0.490385 0.75481,1.032479 0.86559,1.204653 0.11078,0.172174 0.61513,0.939289 1.12078,1.704701 0.50564,0.765412 0.91935,1.423596 0.91935,1.46263 0,0.03904 0.25231,0.431945 0.56072,0.873139 0.30839,0.441192 0.74041,1.135399 0.96003,1.542684 0.21962,0.407285 0.61916,1.078616 0.88788,1.491847 0.55267,0.849908 0.62293,0.970982 1.50158,2.587909 0.34932,0.642803 0.88704,1.619531 1.19496,2.170505 0.68814,1.231293 4.36591,8.763981 4.72804,9.683793 0.14463,0.367314 0.67386,1.644577 1.17612,2.838355 0.50224,1.193777 0.9677,2.320765 1.03435,2.504428 1.39415,3.841691 2.87463,8.165917 3.22969,9.433342 0.19296,0.68872 0.45601,1.62788 0.5846,2.087029 1.27918,4.567709 1.89593,7.056469 2.31707,9.349859 0.15175,0.82647 0.41745,2.25399 0.59043,3.17228 0.70408,3.73784 1.30369,8.00056 1.77312,12.60563 0.43343,4.252 0.43343,18.78873 0,23.04073 -0.45685,4.48159 -1.08546,8.97841 -1.70934,12.22798 -0.13644,0.71058 -0.35538,1.9127 -0.48655,2.67138 -0.34913,2.01932 -0.53646,2.93819 -0.80885,3.96734 -0.13366,0.50506 -0.36705,1.44422 -0.51861,2.08702 -0.15158,0.6428 -0.41064,1.61954 -0.57571,2.17051 -0.16506,0.55097 -0.46954,1.6404 -0.67657,2.42095 -0.54445,2.05251 -2.77237,8.76186 -3.57599,10.76904 -0.14706,0.36731 -0.41656,1.04351 -0.59889,1.50266 -0.39101,0.98464 -0.71652,1.75434 -1.12967,2.67139 -0.1655,0.36731 -0.6164,1.41917 -1.00201,2.33746 -0.38563,0.91829 -0.98254,2.23312 -1.32651,2.92183 -0.34396,0.68872 -0.85586,1.74059 -1.13754,2.33747 -0.28168,0.59689 -0.84479,1.68632 -1.25136,2.42095 -0.40657,0.73463 -0.9733,1.78649 -1.25937,2.33747 -0.28609,0.55097 -0.69466,1.3023 -0.90794,1.66962 -0.21327,0.36731 -0.49686,0.85568 -0.63018,1.08525 -1.78744,3.07787 -4.54885,7.37387 -6.42101,9.98938 -1.1638,1.62589 -5.36858,7.13281 -5.91527,7.74709 -0.26766,0.30076 -0.82258,0.95984 -1.23317,1.46463 -0.41058,0.50479 -0.82972,0.99294 -0.93144,1.08477 -0.1017,0.0918 -0.76969,0.84315 -1.48442,1.66962 -2.86218,3.30959 -8.56665,8.84125 -13.60207,13.18999 -1.66836,1.44084 -7.67839,6.02801 -9.88508,7.54479 -1.54311,1.06066 -5.11385,3.36101 -6.44876,4.15444 -0.76147,0.4526 -1.58336,0.95059 -1.82645,1.10663 -0.24307,0.15606 -0.89025,0.52651 -1.43818,0.82327 -1.86756,1.01143 -2.15899,1.17129 -3.48686,1.91267 -0.73058,0.40789 -1.81399,0.97337 -2.40759,1.25662 -0.59359,0.28323 -1.63965,0.79798 -2.32457,1.14384 -0.68491,0.34588 -1.99249,0.94605 -2.90571,1.33376 -0.91322,0.3877 -1.88456,0.80385 -2.15853,0.92478 -2.92472,1.29105 -4.85314,2.06554 -6.80767,2.73406 -0.54794,0.18741 -1.74343,0.60844 -2.65665,0.9356 -2.23332,0.8001 -7.83144,2.42866 -11.70587,3.40537 -1.26862,0.31982 -6.30069,1.30798 -9.25677,1.8178 l -0.87172,0.15033 v -46.55344 -46.55345 h 15.43162 15.43162 l 0.0998,-0.79307 c 0.0549,-0.43619 0.20497,-1.46927 0.33357,-2.29573 0.1286,-0.82645 0.27657,-1.87832 0.32881,-2.33746 0.0913,-0.80243 0.33877,-2.47321 0.84083,-5.67671 0.12952,-0.82646 0.3885,-2.47938 0.57553,-3.67316 0.18701,-1.19378 0.44739,-2.80913 0.57863,-3.58968 0.13126,-0.78055 0.39579,-2.54617 0.58789,-3.9236 0.49388,-3.54166 1.09912,-7.50247 1.81142,-11.8543 0.18037,-1.10195 0.37475,-2.37003 0.43197,-2.81795 0.0572,-0.44793 0.14338,-0.91751 0.19146,-1.04352 0.0738,-0.1933 -2.78352,-0.2291 -18.28858,-0.2291 h -18.37598 l 0.063,-14.40046 0.063,-14.40046 0.44305,-2.00354 c 0.79863,-3.611495 1.83202,-5.861161 3.83469,-8.348098 2.25106,-2.795374 5.91023,-5.029498 9.8142,-5.99212 3.13325,-0.772578 4.19301,-0.83507 14.32072,-0.844403 l 9.6716,-0.0089 V 70.991152 54.773012 l -1.03776,-0.178299 c -2.717,-0.466817 -8.4493,-1.230763 -10.83416,-1.443871 -0.54793,-0.04896 -1.59399,-0.162447 -2.32456,-0.252188 -2.47665,-0.304215 -10.77296,-0.671137 -14.90193,-0.659069 -7.53578,0.02202 -12.83002,0.711617 -17.89112,2.330384 -4.49092,1.436399 -4.55239,1.460708 -7.87631,3.11512 -2.57558,1.281939 -4.14197,2.255068 -6.38288,3.965389 -0.4911,0.37482 -1.05148,0.794189 -1.24531,0.931933 -1.97535,1.403846 -6.15836,5.939014 -7.99341,8.666358 -0.27224,0.404615 -0.6259,0.930545 -0.7859,1.168734 -0.16,0.238186 -0.40505,0.658463 -0.54453,0.933953 -0.13948,0.275486 -0.41278,0.763846 -0.60733,1.085252 -0.7796,1.28794 -1.68139,3.129609 -2.31873,4.735425 -0.36949,0.930931 -0.76548,1.918005 -0.87998,2.193497 -0.78252,1.882762 -1.49429,4.383077 -2.13883,7.513286 -1.48092,7.192207 -1.4804,7.183164 -1.55656,27.173044 l -0.0648,17.15533 H 94.9386 78.17708 v 19.11714 19.11714 h 16.77011 16.77011 v 46.58237 c 0,25.6203 -0.0187,46.57202 -0.0415,46.55938 -0.0228,-0.0127 -0.41509,-0.0922 -0.87171,-0.17689 z"
       id="path38" />
  </g>
</svg>
