<?xml version="1.0" encoding="UTF-8" standalone="no"?>
<svg
   xmlns:dc="http://purl.org/dc/elements/1.1/"
   xmlns:cc="http://creativecommons.org/ns#"
   xmlns:rdf="http://www.w3.org/1999/02/22-rdf-syntax-ns#"
   xmlns:svg="http://www.w3.org/2000/svg"
   xmlns="http://www.w3.org/2000/svg"
   xmlns:sodipodi="http://sodipodi.sourceforge.net/DTD/sodipodi-0.dtd"
   xmlns:inkscape="http://www.inkscape.org/namespaces/inkscape"
   width="1500"
   height="832.59601"
   viewBox="0 0 396.87499 220.29104"
   version="1.1"
   id="svg8"
   inkscape:version="1.0.2-2 (e86c870879, 2021-01-15)"
   sodipodi:docname="howitworks.svg">
  <defs
     id="defs2">
    <rect
       x="-146.59155"
       y="50.422153"
       width="64.112938"
       height="52.091759"
       id="rect1388" />
    <rect
       x="-83.146461"
       y="98.172935"
       width="79.473328"
       height="77.135872"
       id="rect1382" />
    <rect
       x="86.48568"
       y="242.42703"
       width="83.480385"
       height="55.430977"
       id="rect1376" />
    <rect
       x="261.79449"
       y="239.75566"
       width="97.171165"
       height="65.448624"
       id="rect1370" />
    <rect
       x="415.39838"
       y="81.476852"
       width="95.501556"
       height="111.19587"
       id="rect1364" />
    <rect
       x="413.39487"
       y="115.20293"
       width="85.149994"
       height="42.741959"
       id="rect1358" />
    <rect
       x="13.690783"
       y="12.355097"
       width="61.107639"
       height="27.047644"
       id="rect1308" />
    <rect
       x="13.690783"
       y="12.355097"
       width="61.107639"
       height="27.047644"
       id="rect1308-0" />
    <rect
       x="13.690783"
       y="12.355097"
       width="61.107639"
       height="27.047644"
       id="rect1321" />
  </defs>
  <sodipodi:namedview
     id="base"
     pagecolor="#ffffff"
     bordercolor="#666666"
     borderopacity="1.0"
     inkscape:pageopacity="0.0"
     inkscape:pageshadow="2"
     inkscape:zoom="0.56027734"
     inkscape:cx="1092.894"
     inkscape:cy="636.44494"
     inkscape:document-units="px"
     inkscape:current-layer="layer1"
     inkscape:document-rotation="0"
     showgrid="false"
     units="px"
     inkscape:pagecheckerboard="true"
     inkscape:window-width="2896"
     inkscape:window-height="1336"
     inkscape:window-x="2544"
     inkscape:window-y="73"
     inkscape:window-maximized="0" />
  <metadata
     id="metadata5">
    <rdf:RDF>
      <cc:Work
         rdf:about="">
        <dc:format>image/svg+xml</dc:format>
        <dc:type
           rdf:resource="http://purl.org/dc/dcmitype/StillImage" />
        <dc:title></dc:title>
      </cc:Work>
    </rdf:RDF>
  </metadata>
  <g
     inkscape:label="Layer 1"
     inkscape:groupmode="layer"
     id="layer1">
    <path
       style="fill:#2ad4ff;stroke-width:0.0801362"
       d="m 14.26426,126.23346 c 0,-7.36052 0.0271,-13.38307 0.0601,-13.38346 0.41756,-0.005 1.91896,-0.18244 2.23349,-0.26432 l 0.4104,-0.10684 1.15281,0.80698 c 1.40509,0.98359 2.00426,1.42799 2.12501,1.57611 0.0504,0.0618 0.18415,0.46188 0.29728,0.88906 0.25996,0.98171 0.78524,2.03176 1.40901,2.81672 l 0.4858,0.61132 v 10.2186 10.2186 h -4.08695 -4.08696 z m 14.26427,4.30536 v -9.07741 l 0.59405,-0.0945 c 2.90194,-0.46171 5.47614,-2.97794 6.12997,-5.9919 l 0.13908,-0.6411 0.6554,-0.50666 0.6554,-0.50667 v 12.94783 12.94784 h -4.08695 -4.08695 z m 14.264274,-6.3387 v -15.4161 l 1.04863,-0.83154 c 0.57674,-0.45734 1.07539,-0.84148 1.1081,-0.85364 0.0327,-0.0121 0.10009,0.067 0.14973,0.176 0.13908,0.30523 0.61709,0.79981 1.08064,1.11809 0.49019,0.33656 1.47557,0.69136 1.92014,0.69136 0.85539,0 1.97871,-0.45804 2.60622,-1.06267 l 0.26044,-0.25096 v 15.92278 15.92279 h -4.08695 -4.08695 z M 0,129.96053 c 0,-5.40145 0.0305,-9.57702 0.07,-9.57702 0.0385,0 0.22779,0.0696 0.42071,0.15477 0.93512,0.41261 2.18542,0.38653 3.44125,-0.0718 0.8729,-0.31857 1.29964,-0.62517 2.84949,-2.04729 0.74384,-0.68253 1.37961,-1.24101 1.41282,-1.24105 0.0332,-6e-5 0.0512,5.02145 0.0401,11.15889 l -0.0203,11.15898 -4.10699,0.0208 -4.10698,0.0208 z m 26.69925,-11.98347 c -1.55136,-0.40639 -2.82096,-1.79884 -3.17832,-3.48587 -0.0651,-0.30726 -0.11897,-0.72366 -0.11974,-0.92534 -7.9e-4,-0.27716 -0.0454,-0.40666 -0.18169,-0.53048 -0.46166,-0.4194 -5.41166,-4.04873 -5.817,-4.26502 -0.16651,-0.0888 -0.23497,-0.0684 -0.61379,0.1831 -0.6994,0.46437 -1.13535,0.57159 -2.32411,0.57156 -0.96819,-10e-6 -1.07489,-0.0155 -1.51079,-0.21971 -0.45727,-0.21419 -0.47364,-0.21606 -0.6534,-0.0746 -0.10142,0.0798 -1.40289,1.24245 -2.89216,2.58373 -6.08298,5.47852 -6.01936,5.42362 -6.48973,5.59961 -1.44665,0.54126 -2.62667,-0.30008 -2.63502,-1.87873 -0.005,-0.88879 0.0861,-1.00128 2.64256,-3.27579 1.2335,-1.09745 3.36063,-3.00422 4.72695,-4.23728 l 2.48423,-2.24193 -0.0269,-0.65191 c -0.10527,-2.55366 1.94984,-4.68862 4.52172,-4.6974 0.57148,-0.002 1.56875,0.26963 2.10459,0.57314 0.60002,0.33985 1.35192,1.11369 1.6766,1.72552 0.27792,0.52369 0.57903,1.55898 0.57903,1.99085 0,0.19424 0.0547,0.29355 0.22037,0.39978 0.1212,0.0777 1.56565,1.15058 3.20988,2.3841 l 2.9895,2.24277 0.42682,-0.21596 c 1.18765,-0.60089 2.75997,-0.58429 3.98779,0.0421 0.17607,0.0898 0.36219,0.14716 0.41361,0.12743 0.0514,-0.0197 0.59785,-0.44685 1.21431,-0.94916 0.61645,-0.50231 1.60765,-1.30731 2.20266,-1.78889 0.59502,-0.48159 1.44246,-1.16795 1.88321,-1.52526 1.22016,-0.98916 3.03709,-2.45191 5.689684,-4.58057 2.53864,-2.03722 2.75824,-2.23221 2.63859,-2.34275 -0.33305,-0.30771 -1.51814,-1.21136 -2.25858,-1.7222 -0.4962,-0.34234 -0.93795,-0.68928 -0.98167,-0.77098 -0.19249,-0.35966 0.0256,-0.83141 0.42357,-0.91639 0.098,-0.0209 0.86325,-0.12899 1.70067,-0.24015 0.83743,-0.11117 2.42413,-0.32882 3.52601,-0.48366 5.78031,-0.8123 5.68373,-0.8012 5.96362,-0.68527 0.14385,0.0596 0.35534,0.25008 0.46999,0.42333 0.35301,0.53343 0.30049,0.80741 -0.57219,2.98517 -0.42388,1.0578 -1.34194,3.35882 -2.04012,5.11338 -0.69818,1.75456 -1.32937,3.26013 -1.40264,3.3457 -0.15233,0.17791 -0.63084,0.21303 -0.75503,0.0554 -0.12054,-0.153 -0.698,-1.67757 -1.08081,-2.85343 -0.18833,-0.5785 -0.36195,-1.05213 -0.38583,-1.05252 -0.061,-7.9e-4 -1.13083,0.83071 -2.53178,1.9682 -1.57039,1.27506 -3.21359,2.60499 -4.837424,3.91519 -1.43138,1.15493 -2.09989,1.69501 -4.94841,3.99776 l -1.86317,1.50618 v 0.57985 c 0,1.18653 -0.44544,2.26763 -1.27472,3.09387 -1.17378,1.16947 -2.76217,1.61189 -4.32097,1.20357 z m 2.12756,-2.14981 c 0.52253,-0.26681 0.87644,-0.6207 1.11895,-1.11885 0.31185,-0.64058 0.31596,-1.47841 0.0101,-2.05805 -0.43992,-0.8337 -1.33194,-1.40238 -2.19972,-1.40238 -0.8799,0 -1.87405,0.80245 -2.12119,1.71218 -0.33371,1.22836 0.15611,2.27371 1.34217,2.86439 0.40487,0.20163 0.54136,0.22984 0.99047,0.20467 0.32592,-0.0182 0.64752,-0.0938 0.85923,-0.20196 z m -13.27315,-8.71209 c 0.8815,-0.4416 1.46069,-1.61931 1.2758,-2.59422 -0.11012,-0.58066 -0.33699,-0.97333 -0.80599,-1.39501 -1.19993,-1.07883 -2.9483,-0.6837 -3.62745,0.81982 -0.23711,0.52491 -0.23051,1.42545 0.0145,1.98107 0.32808,0.74397 1.00087,1.25002 1.85373,1.39429 0.47,0.0795 0.8364,0.021 1.2894,-0.20595 z m 11.51539,-1.64809 -0.0231,-0.73231 -0.43094,-0.1101 c -1.08512,-0.27723 -2.43675,-1.04603 -2.97219,-1.69056 -0.59683,-0.71843 -0.95416,-1.90698 -0.84385,-2.80679 l 0.0518,-0.42247 1.49561,0.0218 1.49561,0.0218 0.0971,0.53628 c 0.17821,0.98389 0.56312,1.47915 1.32552,1.70556 0.9959,0.29576 1.98478,-0.0382 2.36682,-0.79938 0.31579,-0.62915 0.13707,-1.51974 -0.40529,-2.01969 -0.34397,-0.31705 -0.60921,-0.45953 -2.22028,-1.19267 -2.47944,-1.12829 -3.28319,-1.87982 -3.64302,-3.40635 -0.30946,-1.31285 0.0605,-2.80544 0.94433,-3.80948 0.48516,-0.55116 0.97551,-0.840323 2.01753,-1.189703 l 0.96163,-0.32243 0.0228,-0.82139 0.0228,-0.8214 h 0.91605 0.91606 l 0.0227,0.84508 0.0227,0.84507 0.70504,0.23676 c 1.60879,0.54025 2.56283,1.549573 2.90086,3.068933 0.0712,0.3199 0.11837,0.79621 0.10489,1.05845 l -0.0245,0.47682 -1.4988,0.0218 c -1.71616,0.0249 -1.60245,0.0742 -1.75669,-0.76023 -0.16707,-0.90378 -0.50378,-1.31021 -1.21113,-1.46191 -1.15951,-0.24867 -1.90296,0.32697 -1.97101,1.52614 -0.0435,0.76635 0.14287,1.09106 0.91581,1.59563 0.33069,0.21588 0.68063,0.4146 0.77765,0.44162 0.097,0.027 0.3567,0.13465 0.57708,0.23921 0.22037,0.10456 0.75142,0.35194 1.18011,0.54972 1.56546,0.72225 2.37241,1.44778 2.79894,2.51652 0.16138,0.40436 0.18394,0.60128 0.18585,1.62221 0.002,1.01356 -0.0217,1.2313 -0.18527,1.70474 -0.33716,0.97624 -1.11491,1.75315 -2.23189,2.22947 -0.47204,0.2013 -0.72922,0.26385 -1.04655,0.2545 l -0.42072,-0.0124 v 0.79674 0.79675 h -0.95862 -0.95863 z"
       id="path945" />
    <path
       style="fill:#2ad4ff;stroke-width:0.103681"
       d="m 195.67798,140.48653 c -4.837,-0.49923 -9.4134,-2.32773 -13.4267,-5.36472 -1.3317,-1.00766 -3.8254,-3.50139 -4.8331,-4.83301 -1.79,-2.36559 -3.2297,-5.07402 -4.1188,-7.74864 -0.6026,-1.81255 -0.8508,-2.83069 -1.1189,-4.58938 -0.2645,-1.73508 -0.2689,-5.91632 -0.01,-7.62054 0.6017,-3.93049 2.0954,-7.76697 4.2988,-11.042004 0.7602,-1.129894 0.9817,-1.385574 1.3695,-1.581131 0.8288,-0.417957 1.6541,-0.26193 2.2591,0.427097 0.3963,0.451297 0.4825,0.739117 0.4173,1.392931 -0.04,0.39756 -0.2212,0.749277 -0.9899,1.917437 -2.6159,3.97545 -3.8599,8.08922 -3.8599,12.76431 0,3.19541 0.6914,6.36555 2.0358,9.33462 2.8042,6.19336 8.3218,10.82859 14.9988,12.60027 1.7308,0.45927 2.937,0.63103 4.8939,0.69694 3.8969,0.13123 7.3696,-0.60636 10.7986,-2.29364 3.0651,-1.5082 5.6313,-3.53155 7.6362,-6.02084 2.57311,-3.19477 4.20721,-6.81655 4.91181,-10.88649 0.2759,-1.59343 0.2492,-5.69516 -0.047,-7.3095 -1.0283,-5.59491 -3.8584,-10.402997 -8.21491,-13.956139 -3.1967,-2.607225 -7.7301,-4.492243 -11.8034,-4.90784 -1.3747,-0.14027 -3.6798,-0.14034 -4.9698,-1.2e-4 -1.8914,0.205557 -4.3427,0.842394 -6.2109,1.613521 -0.9674,0.399317 -1.4304,0.435187 -1.9799,0.153377 -0.7185,-0.368437 -1.0586,-0.907974 -1.0586,-1.679061 0,-1.191161 0.5866,-1.625418 3.5389,-2.619925 9.4858,-3.195352 20.2993,-0.498267 27.32691,6.815754 4.2334,4.405893 6.7134,9.854313 7.2977,16.031963 0.1496,1.58195 0.066,4.69099 -0.1677,6.22085 -0.7011,4.59394 -2.6371,9.0291 -5.5441,12.7009 -0.8442,1.06623 -3.02881,3.2508 -4.09501,4.09494 -4.0349,3.19446 -8.955,5.19738 -13.989,5.69469 -1.3075,0.12917 -4.0649,0.12575 -5.3475,-0.007 z m -10.12,-12.43534 c -0.1789,-0.0519 -0.6016,-0.38213 -0.9503,-0.74234 -2.6881,-2.7771 -4.3827,-6.20026 -5.12,-10.34303 -0.2075,-1.16596 -0.1766,-4.76861 0.052,-5.99132 0.6882,-3.68967 2.2482,-6.93488 4.6009,-9.57108 0.9187,-1.02938 1.2577,-1.25975 1.9281,-1.31047 0.9776,-0.0739 1.8285,0.57666 1.9879,1.51994 0.1108,0.65615 -0.122,1.19539 -0.8738,2.02367 -1.9257,2.12177 -3.2272,4.63039 -3.7877,7.30067 -0.2775,1.32198 -0.3811,3.06337 -0.2626,4.41457 0.3122,3.562 1.6292,6.56604 4.0503,9.23927 0.4338,0.47897 0.7275,0.90895 0.8109,1.18721 0.438,1.46196 -0.9061,2.71651 -2.4352,2.27291 z m 24.3761,-0.0129 c -0.435,-0.152 -0.7725,-0.47834 -0.9964,-0.96359 -0.3793,-0.82182 -0.1881,-1.5456 0.6298,-2.38465 1.3823,-1.418 2.8665,-3.91084 3.4587,-5.80915 1.001,-3.20906 0.9573,-6.8438 -0.119,-9.89851 -0.5634,-1.59881 -1.6575,-3.48604 -2.7835,-4.80121 -1.1547,-1.34856 -1.2637,-1.5104 -1.3344,-1.98177 -0.2215,-1.47714 1.3148,-2.606387 2.6319,-1.9345 0.7517,0.38351 2.3987,2.33035 3.4114,4.03256 1.1116,1.86854 2.00461,4.26142 2.42931,6.50949 0.308,1.63051 0.329,4.81945 0.042,6.41807 -0.3678,2.05095 -1.14421,4.28215 -2.09231,6.01349 -1.1637,2.12508 -3.2041,4.60687 -3.9599,4.81681 -0.4734,0.13145 -0.9091,0.12582 -1.3179,-0.017 z m -11.9752,-1.75933 c -0.7962,-0.22626 -1.261,-0.81015 -1.4009,-1.75992 l -0.071,-0.48205 -0.8263,-0.12082 c -0.9959,-0.14562 -1.5736,-0.38139 -2.4275,-0.99072 -1.4751,-1.0526 -2.3604,-2.73841 -2.3711,-4.5148 0,-0.79293 0.024,-0.93278 0.271,-1.30636 0.5683,-0.86058 1.7073,-1.08784 2.5748,-0.51375 0.5055,0.33457 0.7823,0.86395 0.8592,1.64351 0.1007,1.02004 0.755,1.83842 1.6059,2.00861 l 0.3344,0.0669 v -2.44946 c 0,-1.3472 -0.014,-2.44946 -0.03,-2.44946 -0.2191,0 -3.0461,-1.12638 -3.405,-1.35665 -0.6098,-0.39131 -1.3524,-1.17994 -1.6377,-1.7392 -0.6041,-1.18419 -0.7534,-3.22968 -0.3265,-4.47286 0.7332,-2.13464 2.7626,-3.62882 4.9287,-3.62882 h 0.4341 l 0.1177,-0.63251 c 0.2318,-1.24646 1.197,-1.94644 2.2814,-1.65445 0.8044,0.21661 1.2646,0.79377 1.3654,1.71267 l 0.056,0.51436 0.7954,0.12262 c 0.4375,0.0674 1.0323,0.2013 1.3218,0.29745 1.0513,0.34919 2.5056,1.68376 3.053,2.80166 0.5938,1.21287 0.8048,2.86733 0.4513,3.53919 -0.5221,0.99219 -1.7889,1.33264 -2.6926,0.72364 -0.5123,-0.34525 -0.7658,-0.80798 -0.8859,-1.61675 -0.06,-0.40281 -0.194,-0.87797 -0.2982,-1.05592 -0.3011,-0.51375 -0.8671,-0.91345 -1.3343,-0.94228 l -0.4105,-0.0253 v 2.36894 2.36893 l 1.3672,0.49766 c 1.7555,0.63901 2.1909,0.86114 2.8644,1.46145 0.9999,0.8912 1.5236,2.22477 1.5214,3.87433 0,2.00679 -0.8032,3.54622 -2.3979,4.61117 -0.744,0.49681 -1.4162,0.71231 -2.5395,0.81412 l -0.8156,0.0739 -0.056,0.51841 c -0.1013,0.93014 -0.5371,1.46075 -1.3951,1.69839 -0.2281,0.0632 -0.438,0.11092 -0.4665,0.10609 -0.029,-0.005 -0.2151,-0.0552 -0.4147,-0.11189 z m 3.7038,-6.26933 c 0.4798,-0.35826 0.6671,-0.83846 0.628,-1.61058 -0.025,-0.48773 -0.091,-0.75405 -0.2243,-0.9015 -0.1966,-0.21715 -1.6624,-0.76491 -1.7671,-0.66029 -0.089,0.0891 -0.072,3.29563 0.019,3.38724 0.1375,0.13983 1.0694,-0.009 1.3451,-0.21487 z m -5.1553,-10.35331 v -1.71074 h -0.3994 c -0.8252,0 -1.5113,0.7759 -1.5113,1.70917 0,0.83797 0.1846,1.1544 0.8073,1.38377 0.2932,0.10799 0.6031,0.22241 0.6887,0.25426 0.4084,0.1521 0.4147,0.12746 0.4147,-1.63646 z"
       id="path949" />
    <path
       style="fill:#2ad4ff;stroke-width:0.158569"
       d="m 86.448464,219.97282 c -0.3964,-0.19939 -0.8658,-0.61573 -1.11,-0.98458 -0.4108,-0.62051 -0.4262,-0.72937 -0.5284,-3.74304 -0.058,-1.70717 -0.1139,-6.63092 -0.1244,-10.94167 l -0.019,-7.83772 0.4415,-0.71068 c 0.8074,-1.29979 1.1083,-1.37366 5.5949,-1.37366 3.8499,0 3.8913,0.004 4.5915,0.39642 0.9056,0.50808 1.6038,1.49653 1.7076,2.4172 l 0.08,0.70874 2.2371,0.11074 c 4.314506,0.21355 7.904306,1.11714 9.223006,2.32156 0.2881,0.26308 0.7174,0.29418 4.6778,0.33889 l 4.3607,0.0492 0.8721,0.49138 c 0.9712,0.5472 1.922,1.66888 2.1994,2.59464 0.098,0.32883 0.1791,1.0439 0.1791,1.58904 0,0.86796 0.035,0.98146 0.2775,0.91313 0.1527,-0.0429 2.691,-0.97887 5.6409,-2.0799 4.82445,-1.80075 5.46585,-2.00188 6.38415,-2.00188 1.7907,0 3.1993,0.94292 4.0053,2.68117 0.5339,1.15137 0.5998,3.40218 0.1258,4.29589 -0.4011,0.75619 -1.3321,1.71133 -2.0037,2.05571 -1.0585,0.54272 -16.09955,6.87679 -17.01275,7.1644 -1.9782,0.623 -3.2881,0.65649 -8.5664,0.21904 -5.3981,-0.44738 -7.4988,-0.70824 -10.336706,-1.28354 -1.0464,-0.21213 -1.9827,-0.3857 -2.0808,-0.3857 -0.098,0 -0.2218,0.27323 -0.2752,0.60718 -0.1281,0.80126 -0.6632,1.56981 -1.5051,2.16189 l -0.6847,0.4816 -3.8321,0.045 c -3.6685,0.0431 -3.8615,0.0302 -4.519,-0.30048 z m 8.0106,-2.22999 0.3669,-0.34478 v -10.02396 c 0,-9.63014 -0.012,-10.03866 -0.3028,-10.3983 -0.2983,-0.36871 -0.3531,-0.37512 -3.6363,-0.42535 -2.3634,-0.0361 -3.4361,0.004 -3.6863,0.13784 l -0.3529,0.18884 0.093,10.3769 c 0.069,7.69651 0.1417,10.43589 0.2822,10.60525 0.154,0.18552 0.8158,0.22834 3.5294,0.22834 3.2111,0 3.3542,-0.0133 3.7071,-0.34478 z m -4.1567,-2.83141 c -0.2308,-0.25509 -0.2598,-0.4115 -0.1396,-0.7532 0.1254,-0.35673 0.2463,-0.43127 0.699,-0.43127 0.4528,0 0.5736,0.0745 0.699,0.43127 0.1202,0.3417 0.091,0.49811 -0.1397,0.7532 -0.1602,0.17706 -0.4119,0.32194 -0.5593,0.32194 -0.1474,0 -0.3991,-0.14488 -0.5594,-0.32194 z m 26.855106,1.49128 c 0.4944,-0.12857 2.6829,-0.98637 4.8632,-1.90623 8.59005,-3.62405 12.22455,-5.18794 12.55305,-5.40142 0.549,-0.35689 0.8924,-1.25222 0.8099,-2.11134 -0.148,-1.5405 -1.0863,-2.58081 -2.3095,-2.56053 -0.358,0.006 -3.5018,1.1137 -8.04065,2.83321 l -7.4528,2.82346 -5.1076,0.0458 c -4.9605,0.0445 -5.117,0.0366 -5.431,-0.2775 -0.4343,-0.43435 -0.4078,-1.04612 0.066,-1.51983 l 0.3892,-0.38922 4.7246,-5.3e-4 c 4.4348,-5.2e-4 4.7564,-0.0199 5.2415,-0.31569 0.778,-0.47435 1.1469,-1.19342 1.1476,-2.23702 0,-1.06148 -0.4293,-1.82019 -1.2712,-2.24318 -0.4856,-0.24398 -1.079,-0.27727 -4.9467,-0.27749 l -4.3948,-2.1e-4 -0.4857,-0.47479 c -1.2671,-1.2387 -3.9259,-1.92777 -8.316806,-2.15552 l -2.1497,-0.11149 v 7.22476 7.22476 l 1.3875,0.32304 c 2.232206,0.51968 4.847006,0.9314 7.651006,1.20466 7.6622,0.74671 9.2024,0.78877 11.073,0.30234 z m 4.3082,-16.30158 c -3.6991,-0.78545 -6.5393,-2.99622 -8.163,-6.35393 -0.8336,-1.72384 -1.1926,-3.25124 -1.1926,-5.07422 0,-1.83757 0.3591,-3.3483 1.2242,-5.15089 0.6267,-1.30593 0.9223,-1.70336 2.2462,-3.02079 1.2534,-1.24719 1.7643,-1.63382 2.8724,-2.17374 1.9478,-0.94907 3.074,-1.21008 5.2328,-1.21277 2.0795,-0.002 3.2691,0.2532 4.9949,1.07399 2.37895,1.13138 4.30435,3.03689 5.45325,5.39686 0.8388,1.72283 1.1647,3.1463 1.1647,5.08734 0,5.21273 -3.2745,9.58724 -8.36225,11.17118 -1.4225,0.4429 -4.0203,0.56492 -5.4706,0.25697 z m 4.2021,-2.2308 c 3.35735,-0.70177 6.25675,-3.48699 7.12215,-6.8417 0.3139,-1.21653 0.3216,-3.50426 0.016,-4.65492 -0.3384,-1.27342 -1.232,-2.97485 -2.0502,-3.90355 -2.11975,-2.40614 -5.76315,-3.65104 -8.81415,-3.01162 -4.4632,0.93537 -7.6113,4.72437 -7.6113,9.16066 0,1.66957 0.2312,2.66832 0.9817,4.23988 1.8236,3.81897 6.1181,5.8971 10.356,5.01125 z m -2.4578,-0.71388 c -0.2199,-0.21989 -0.3172,-0.52857 -0.3172,-1.00662 0,-0.64914 -0.036,-0.70595 -0.6241,-0.97093 -1.2271,-0.55337 -2.1452,-1.79833 -2.3322,-3.16284 -0.084,-0.61175 -0.044,-0.75376 0.3129,-1.11049 0.225,-0.22497 0.5454,-0.40904 0.712,-0.40904 0.4978,0 1.1385,0.60848 1.1392,1.08185 0,1.15606 1.3195,2.05223 2.3751,1.615 1.1618,-0.48123 1.5086,-1.92266 0.6768,-2.81278 -0.3698,-0.39567 -0.6005,-0.48344 -1.517,-0.57727 -1.4925,-0.15278 -2.2155,-0.48258 -3.0202,-1.37753 -0.8267,-0.91952 -1.1328,-1.86149 -1.0056,-3.09438 0.1568,-1.51842 1.2568,-2.86798 2.7281,-3.34689 0.4318,-0.14052 0.4804,-0.22666 0.5255,-0.93127 0.072,-1.12812 0.614,-1.60949 1.4736,-1.30979 0.5123,0.17855 0.7759,0.72645 0.7759,1.61223 0,0.61836 0.059,0.71731 0.6989,1.16822 0.8819,0.62162 1.5477,1.73945 1.6461,2.76376 0.063,0.66072 0.018,0.84423 -0.2904,1.17252 -0.2011,0.21407 -0.5348,0.38922 -0.7416,0.38922 -0.5258,0 -1.1544,-0.67519 -1.1544,-1.23997 0,-0.57475 -0.4706,-1.19088 -1.1128,-1.45689 -1.103,-0.45685 -2.3738,0.46428 -2.3751,1.72165 0,0.38862 0.138,0.66987 0.5159,1.04776 0.4484,0.44843 0.6627,0.53179 1.6254,0.63219 1.3466,0.14047 2.2029,0.49723 2.912,1.21319 1.8752,1.89346 1.3476,5.18617 -1.0141,6.32948 -0.6633,0.32107 -0.7099,0.38484 -0.7099,0.97098 0,1.15284 -1.1695,1.82194 -1.9028,1.08864 z m -25.725806,-8.39849 c -3.7742,-0.69029 -6.8455,-3.05672 -8.5482,-6.58634 -2.0193,-4.18584 -1.2152,-9.31101 1.9964,-12.72499 1.9726,-2.0969 3.896,-3.14932 6.6235,-3.62437 5.913906,-1.02999 11.609606,2.70314 13.139206,8.61182 0.3553,1.37267 0.4357,3.91478 0.1618,5.1251 -0.9838,4.34871 -3.9329,7.54518 -8.1817,8.86798 -1.2456,0.38778 -3.940406,0.55953 -5.191006,0.3308 z m 3.922406,-2.30566 c 3.4199,-0.71801 6.2367,-3.42794 7.1246,-6.8542 0.3199,-1.23463 0.3188,-3.45282 0,-4.69779 -0.7816,-3.02946 -3.1264,-5.51562 -6.1707,-6.54272 -1.5973,-0.53889 -3.890806,-0.60608 -5.391406,-0.15792 -3.0868,0.92187 -5.5505,3.28203 -6.4671,6.19546 -0.4675,1.4855 -0.4944,4.32413 -0.053,5.6358 1.589,4.72804 6.1892,7.42314 10.960606,6.42137 z m -2.040006,-0.56581 c -0.3386,-0.26636 -0.4177,-0.4613 -0.4177,-1.02857 0,-0.64292 -0.043,-0.71785 -0.527,-0.92007 -1.2786,-0.53426 -2.2713,-1.85952 -2.4298,-3.24384 -0.07,-0.61236 -0.026,-0.80484 0.2527,-1.09915 0.4144,-0.43756 1.1656,-0.46808 1.5699,-0.0638 0.1611,0.16116 0.3394,0.58278 0.396,0.93695 0.2271,1.41999 2.011006,2.00384 2.973806,0.97324 0.3554,-0.38053 0.46,-0.64287 0.46,-1.15399 0,-1.16136 -0.8303,-1.84037 -2.254506,-1.84361 -0.8186,-0.002 -2.1025,-0.57781 -2.6914,-1.20731 -1.9377,-2.07118 -1.1415,-5.46739 1.52,-6.48383 0.7285,-0.27822 0.7303,-0.28068 0.7303,-1.04401 0,-1.22937 0.9049,-1.80613 1.754506,-1.1182 0.2878,0.2331 0.3771,0.49561 0.4335,1.27457 0.062,0.86328 0.1209,1.00713 0.4875,1.19869 1.4711,0.76877 2.4718,3.34732 1.6038,4.13281 -0.7475,0.67645 -1.9008,0.12587 -1.9008,-0.90741 0,-0.32762 -0.1665,-0.64048 -0.5392,-1.01313 -0.4419,-0.44198 -0.6591,-0.53913 -1.205106,-0.53913 -0.546,0 -0.7631,0.0972 -1.2051,0.53913 -0.442,0.44198 -0.5392,0.65915 -0.5392,1.20513 0,0.54034 0.097,0.76286 0.5154,1.17945 0.4502,0.44855 0.6547,0.52635 1.6178,0.61545 3.892706,0.36014 5.230506,5.13072 2.029306,7.23606 -0.7212,0.47432 -0.8325,0.61639 -0.8325,1.06288 0,0.70509 -0.2768,1.25387 -0.7385,1.46425 -0.518806,0.23639 -0.580406,0.22756 -1.063706,-0.1526 z m 18.645906,-11.17663 c -0.352,-0.24655 -0.3525,-0.25309 -0.3525,-5.44607 0,-4.83554 0.02,-5.21758 0.29,-5.46165 0.4522,-0.40917 1.2156,-0.33509 1.6013,0.15537 0.3164,0.4021 0.3287,0.60103 0.3287,5.29069 0,4.68967 -0.013,4.8886 -0.3287,5.2907 -0.3781,0.48079 -0.9982,0.54967 -1.5388,0.17096 z m 5.3676,-0.17096 c -0.3212,-0.40822 -0.3287,-0.57697 -0.3287,-7.3521 0,-6.77512 0.01,-6.94388 0.3287,-7.3521 0.402,-0.51118 1.1178,-0.55695 1.5741,-0.10067 0.3078,0.30775 0.3172,0.52857 0.3172,7.45277 0,6.9242 -0.01,7.14503 -0.3172,7.45277 -0.4563,0.45628 -1.1721,0.41051 -1.5741,-0.10067 z m 5.0742,0 c -0.3081,-0.39169 -0.3287,-0.62014 -0.3287,-3.65431 0,-3.22486 0,-3.2379 0.3892,-3.62571 0.4739,-0.47384 1.01995,-0.49809 1.48385,-0.0659 0.3362,0.3132 0.347,0.42978 0.347,3.72638 0,3.19164 -0.02,3.42278 -0.3172,3.72021 -0.4562,0.45628 -1.17205,0.41051 -1.57415,-0.10067 z M 93.398864,164.17397 c -0.2922,-0.29216 -0.3171,-0.52857 -0.3171,-3.00131 v -2.68418 l 0.4177,-0.32864 c 0.5487,-0.43159 0.9375,-0.41493 1.413,0.0606 0.3806,0.38062 0.3893,0.4449 0.3893,2.91215 0,2.31228 -0.028,2.55782 -0.3287,2.94074 -0.4021,0.51118 -1.1179,0.55696 -1.5742,0.10067 z m 5.5278,0.0142 -0.3743,-0.3029 -0.051,-4.33525 c -0.057,-4.84863 0.013,-5.37189 0.7643,-5.68299 0.4007,-0.16595 0.5368,-0.15531 0.878606,0.0686 0.2224,0.14575 0.4766,0.45492 0.5648,0.68704 0.099,0.25985 0.1418,2.12075 0.1119,4.8423 l -0.048,4.42026 -0.3744,0.30292 c -0.476206,0.38537 -0.995006,0.38537 -1.471306,1e-5 z m 4.996706,-0.0995 c -0.3927,-0.39276 -0.4011,-0.4475 -0.3496,-2.29403 0.056,-2.0277 0.146,-2.26337 0.9319,-2.45564 0.2818,-0.069 0.5325,0.003 0.8324,0.23892 0.4255,0.33464 0.4293,0.35497 0.4293,2.30823 0,1.75918 -0.034,2.00463 -0.3172,2.28775 -0.4324,0.43236 -1.0433,0.39826 -1.5268,-0.0852 z"
       id="path951" />
    <path
       style="fill:#2ad4ff;stroke-width:0.111638"
       d="m 259.64203,200.06661 c -0.3477,-0.11121 -0.8102,-0.31221 -1.0277,-0.44665 -0.5653,-0.34936 -1.3528,-1.26338 -1.5942,-1.85016 -0.1136,-0.2763 -0.2442,-0.50256 -0.2903,-0.50279 -0.046,-2.2e-4 -0.084,-5.35068 -0.084,-11.88988 0,-6.88813 0.042,-11.88947 0.1,-11.88947 0.055,0 0.1333,-0.13441 0.1745,-0.2987 0.2161,-0.86089 1.3589,-2.02704 2.4053,-2.4545 0.4814,-0.19667 1.3716,-0.20521 21.3787,-0.20521 h 20.8764 l 0.6335,0.297 c 0.8467,0.3969 1.5424,1.05977 2.0022,1.90762 l 0.3785,0.69797 0.031,7.17276 0.031,7.17275 h -1.7893 -1.7894 l 3e-4,-4.27016 2e-4,-4.27016 -0.838,0.0367 c -1.7573,0.0771 -3.2821,-0.86377 -4.04,-2.49279 -0.2613,-0.5616 -0.3145,-0.83216 -0.3292,-1.67457 l -0.018,-1.00474 -15.3057,-0.0283 -15.3059,-0.0283 v 0.66028 c 0,1.29099 -0.612,2.59636 -1.595,3.40182 -0.7016,0.57493 -1.4571,0.86242 -2.4518,0.93296 l -0.8653,0.0614 v 6.27906 6.27907 l 0.7276,0.004 c 0.9162,0.005 1.6907,0.25982 2.3849,0.78385 1.1736,0.88585 1.7249,1.92799 1.7364,3.28221 l 0.01,0.86537 12.3081,8.4e-4 12.3081,8.4e-4 v 1.84203 1.84203 l -14.7641,-0.006 c -13.9347,-0.006 -14.7997,-0.0174 -15.3965,-0.20821 z m 31.3887,-0.009 c -0.1936,-0.19351 -0.2233,-0.37213 -0.2233,-1.33966 0,-1.73404 -0.7586,-1.56293 6.9289,-1.56293 4.2549,0 6.5565,0.0397 6.6983,0.11556 0.1949,0.10435 0.2159,0.24492 0.2159,1.44737 0,1.20246 -0.021,1.34303 -0.2159,1.44737 -0.1418,0.0759 -2.4434,0.11557 -6.6983,0.11557 -6.3335,0 -6.4875,-0.005 -6.7056,-0.22328 z m 2.4065,-4.26709 c -0.1262,-0.18022 -0.1738,-0.52476 -0.1738,-1.259 0,-0.73424 0.048,-1.07878 0.1738,-1.259 l 0.1738,-0.24812 h 6.6225 c 6.0201,0 6.6364,0.0168 6.7756,0.18436 0.2425,0.29177 0.2799,2.20285 0.05,2.55377 l -0.1809,0.27611 h -6.6335 -6.6336 z m -14.7426,-1.49351 c -3.3365,-0.73795 -6.0528,-3.40292 -6.9296,-6.79869 -0.2896,-1.12186 -0.2676,-3.27237 0.045,-4.43751 0.5942,-2.21123 1.9956,-4.14615 3.8901,-5.37099 1.6317,-1.05491 3.0112,-1.44794 5.0593,-1.44147 1.1745,0.004 1.5512,0.0509 2.3788,0.29784 1.6773,0.50056 2.8935,1.22915 4.0556,2.42977 1.2746,1.31671 2.0851,2.83232 2.4593,4.59898 0.2088,0.98554 0.1468,3.1668 -0.1179,4.14665 -0.4603,1.70376 -1.7303,3.63515 -3.1419,4.77783 -0.7739,0.62641 -2.3827,1.44894 -3.3453,1.71027 -0.96,0.26063 -3.3532,0.30863 -4.3539,0.0873 z m 2.8126,-2.25383 c 0.073,-0.0466 0.1486,-0.37517 0.1674,-0.73019 l 0.034,-0.6455 0.6598,-0.26764 c 1.3115,-0.53199 1.9648,-1.59025 1.8075,-2.92804 -0.1507,-1.28253 -0.6601,-1.79984 -2.8413,-2.88554 -1.1106,-0.55285 -1.2877,-0.68011 -1.4343,-1.03096 -0.3469,-0.8303 0.094,-1.69472 0.8638,-1.69472 0.5641,0 0.9436,0.32652 1.0996,0.94603 0.07,0.2779 0.1893,0.51046 0.2652,0.51682 0.5154,0.0432 1.9425,-0.0473 2.0264,-0.12847 0.062,-0.0598 0.048,-0.34403 -0.036,-0.71922 -0.23,-1.02738 -1.0633,-1.92061 -2.0364,-2.18264 l -0.4297,-0.1157 v -0.78249 -0.78249 l -0.6977,0.0333 -0.6977,0.0332 -0.033,0.74204 -0.033,0.74204 -0.4086,0.0767 c -0.8919,0.16734 -1.7552,0.84756 -2.0879,1.64528 -0.243,0.58281 -0.2221,1.81068 0.041,2.3897 0.1231,0.2712 0.4302,0.62923 0.7473,0.87134 0.496,0.37873 2.2586,1.2918 2.4937,1.2918 0.056,0 0.281,0.1692 0.5002,0.37601 0.3555,0.33519 0.3987,0.43751 0.3987,0.94269 0,0.80681 -0.3278,1.17455 -1.0472,1.17455 -0.6943,0 -1.077,-0.28965 -1.3148,-0.99522 l -0.1851,-0.5491 h -1.0429 -1.043 l 0.011,0.61513 c 0.022,1.24072 0.836,2.12251 2.3031,2.49681 l 0.5883,0.1501 0.034,0.65488 c 0.019,0.36018 0.094,0.69299 0.1675,0.73958 0.073,0.0466 0.3342,0.0847 0.5798,0.0847 0.2455,0 0.5065,-0.0381 0.5797,-0.0847 z m 14.386,-0.38327 c -0.2353,-0.33602 -0.2468,-2.28854 -0.015,-2.60523 0.1531,-0.20937 0.3713,-0.21784 6.4472,-0.25021 3.4587,-0.0184 6.5021,-0.003 6.7631,0.0348 l 0.4745,0.0683 v 1.43251 c 0,1.20328 -0.028,1.44336 -0.1766,1.50028 -0.097,0.0373 -3.1336,0.0678 -6.7478,0.0678 h -6.5712 z m -29.5841,-3.99937 c -0.948,-0.47297 -1.4218,-1.25281 -1.4167,-2.33149 0.01,-1.4433 1.0804,-2.50945 2.5268,-2.50945 1.437,0 2.5198,1.06701 2.5266,2.48973 0.01,1.08337 -0.4939,1.91398 -1.4083,2.34382 -0.6525,0.30671 -1.6219,0.30992 -2.2284,0.007 z m 26.5636,0.0164 c -2.1838,-1.01322 -1.8974,-4.18432 0.4358,-4.82649 0.9817,-0.2702 2.274,0.27662 2.8083,1.18827 0.7585,1.29436 0.2261,3.02983 -1.1168,3.63975 -0.5906,0.2683 -1.5473,0.26761 -2.1273,-0.002 z"
       id="path953" />
    <path
       style="fill:#2ad4ff;stroke-width:0.103353"
       d="M 343.95833,114.06612 V 87.607787 h 26.4583 26.4584 v 26.458333 26.45832 h -26.4584 -26.4583 z m 48.6792,12.40234 v -11.47217 h -22.2209 -22.2208 v 11.47217 11.47216 h 22.2208 22.2209 z m -42.9948,0 v -10.02523 h 20.7739 20.774 v 10.02523 10.02522 h -20.774 -20.7739 z m 10.4754,8.03568 c -0.043,-0.0711 -0.7399,-1.137 -1.5479,-2.36877 -1.3404,-2.04331 -1.454,-2.25252 -1.2967,-2.38721 0.095,-0.0812 0.9049,-0.64597 1.8001,-1.25505 0.8954,-0.60908 1.627,-1.13939 1.6259,-1.17847 0,-0.0689 -4.6647,-2.11142 -4.7033,-2.06024 -0.024,0.0318 -4.1838,9.07272 -4.2559,9.24974 -0.042,0.10211 0.8391,0.12919 4.202,0.12919 3.3768,0 4.2383,-0.0266 4.1758,-0.12919 z m 12.7918,-0.6207 c 0.3196,-0.4118 0.7726,-0.98736 1.0066,-1.27902 l 0.4255,-0.53029 -2.5943,-3.96556 c -1.4268,-2.18105 -2.6296,-4.00375 -2.6728,-4.05043 -0.087,-0.0939 -9.3036,6.20229 -9.3036,6.3556 0,0.0528 0.6096,1.02377 1.3547,2.15776 l 1.3547,2.06183 4.924,-7.8e-4 4.9239,-7.8e-4 0.5813,-0.74873 z m 16.3966,-1.21381 0.028,-1.91203 -3.5802,-2.72282 c -2.9461,-2.24055 -3.6031,-2.69819 -3.7094,-2.58382 -0.1052,0.1131 -4.464,5.58916 -6.7544,8.48563 l -0.552,0.69814 7.27,-0.0265 7.2699,-0.0265 z m -12.482,-3.767 c 0,-0.0869 -1.9875,0.0459 -2.0912,0.13976 -0.042,0.0377 0.1353,0.38357 0.3935,0.76849 l 0.4695,0.69986 0.6141,-0.76929 c 0.3378,-0.42311 0.6141,-0.80058 0.6141,-0.83882 z m -23.3622,-2.69206 c 0.864,-1.87558 1.5823,-3.42149 1.5962,-3.43536 0.014,-0.0139 1.6962,0.70144 3.7384,1.58957 2.0423,0.88814 3.7616,1.61627 3.8206,1.61808 0.059,0.002 1.5938,-1.0181 3.4106,-2.26647 1.8168,-1.24835 3.3554,-2.30152 3.4189,-2.34037 0.072,-0.044 0.8297,1.02445 2.0076,2.83113 1.0406,1.59596 1.9479,2.92321 2.0163,2.94945 0.068,0.0263 1.1513,-0.0481 2.4066,-0.16519 1.2552,-0.11709 2.3743,-0.2129 2.4869,-0.2129 0.1428,0 0.6834,-0.60812 1.7871,-2.01019 0.8702,-1.10561 1.6288,-2.01185 1.6856,-2.01388 0.057,-0.002 1.7533,1.25138 3.7699,2.78534 2.0165,1.53397 3.6792,2.78903 3.6948,2.78903 0.016,0 0.028,-2.25568 0.028,-5.01261 v -5.01262 h -18.9136 -18.9135 l 0.01,6.07198 c 0.01,5.943 0.011,6.0632 0.1941,5.65857 0.1027,-0.22738 0.8938,-1.94798 1.7578,-3.82356 z m 37.3665,-15.45175 -1.1894,-2.37711 h -5.5642 -5.5642 l -0.1329,0.59428 c -0.073,0.32685 -0.1553,0.65241 -0.1826,0.72347 -0.038,0.0983 0.2122,0.12919 1.0467,0.12919 h 1.0963 v 0.93017 0.93018 h -9.9219 -9.9219 v -0.93018 -0.93017 h 1.021 1.021 l 0.1676,-0.6672 c 0.092,-0.36695 0.1676,-0.69252 0.1676,-0.72347 0,-0.0309 -2.6276,-0.0563 -5.839,-0.0563 h -5.839 l -1.1895,2.37711 -1.1894,2.37712 h 21.6016 21.6016 z m -14.5308,-1.31774 c 0.056,-0.21317 0.214,-0.83515 0.3514,-1.38217 l 0.2498,-0.9946 -0.6317,0.005 c -1.2744,0.0107 -2.6217,-0.67181 -3.2117,-1.62716 -0.2684,-0.43435 -0.313,-0.6061 -0.3088,-1.18724 0.01,-1.04917 0.3757,-1.66957 2.074,-3.49578 0.6144,-0.66077 0.934,-1.07686 0.8486,-1.10495 -0.3898,-0.12825 -8.0854,-1.80728 -8.1209,-1.77182 -0.043,0.0435 -3.0201,11.73334 -3.022,11.86845 0,0.0426 2.6248,0.0775 5.8343,0.0775 h 5.8354 l 0.1016,-0.38758 z m 0.8865,-4.64313 c 1.3028,-0.85358 3.1721,-2.68894 4.5888,-4.50541 l 0.7873,-1.0095 0.6201,0.0793 c 2.3593,0.30179 4.7821,-0.28359 5.8963,-1.42463 l 0.3958,-0.40532 -0.3963,-2.09428 c -0.218,-1.15184 -0.4153,-2.14583 -0.4385,-2.20884 -0.069,-0.18819 -1.7687,-0.65116 -2.8218,-0.76874 -1.3739,-0.15338 -3.1588,0.004 -6.0462,0.53316 -1.8421,0.3376 -3.1896,0.8563 -4.6384,1.78559 -0.661,0.42398 -1.9661,1.4764 -2.4284,1.95827 l -0.3489,0.36369 0.4006,0.1049 c 0.2203,0.0577 1.1946,0.31686 2.165,0.57593 0.9704,0.25907 1.8143,0.47103 1.8754,0.47103 0.061,0 0.2601,-0.23236 0.4424,-0.51636 0.1822,-0.284 0.3615,-0.50003 0.3983,-0.48006 0.037,0.02 0.4046,0.2346 0.8172,0.47696 l 0.7501,0.44066 -0.2275,0.3753 c -0.6293,1.03788 -1.7529,2.45298 -3.2932,4.14767 -0.4909,0.54002 -0.9464,1.08345 -1.0122,1.20763 -0.2526,0.47656 0.2141,0.9962 1.0493,1.16824 0.5858,0.12069 0.9711,0.0483 1.4648,-0.27522 z m 17.8301,-11.14766 v -3.776013 l -0.2325,0.12341 c -0.894,0.474433 -3.059,1.914583 -3.9994,2.660423 l -0.2529,0.20053 0.3481,1.89626 c 0.1915,1.04295 0.3904,1.95206 0.4421,2.02026 0.1553,0.20498 2.1899,0.61744 3.152,0.63899 l 0.5426,0.0121 z"
       id="path955" />
    <path
       style="fill:#2ad4ff;stroke-width:0.0831097"
       d="m 279.83313,70.239022 c -0.1372,-0.016 -0.6047,-0.0695 -1.0389,-0.11889 -3.474,-0.3952 -6.5851,-1.73866 -8.6931,-3.75391 -2.4277,-2.3209 -3.5658,-5.08281 -3.9042,-9.47469 l -0.05,-0.64411 h -1.1921 c -0.9896,0 -1.215,-0.0229 -1.3271,-0.13509 -0.3064,-0.30641 -0.1698,-0.50707 2.6805,-3.93561 2.464,-2.96396 2.7911,-3.32607 3.0035,-3.32607 0.1312,0 0.3143,0.0654 0.4069,0.14544 0.1479,0.12763 2.5984,3.06046 4.7629,5.70032 0.7649,0.93289 0.8612,1.16492 0.5866,1.41347 -0.1269,0.11483 -0.3534,0.13754 -1.3713,0.13754 h -1.2194 v 1.10121 c 0.01,3.12483 0.7835,6.02492 2.1965,8.2071 1.0882,1.68058 2.7067,2.98901 4.6598,3.7671 0.9013,0.35905 2.2466,0.69552 3.0845,0.77145 1.1014,0.0998 0.6417,0.19896 -0.8637,0.18626 -0.8113,-0.007 -1.5874,-0.0255 -1.7245,-0.0415 z m -1.0346,-3.86307 c -0.013,-1.3822 -0.068,-1.5906 -0.5029,-1.90057 -0.1434,-0.10212 -0.4728,-0.2105 -0.7656,-0.25189 -0.5651,-0.0799 -0.8399,-0.24236 -1.1293,-0.66759 l -0.1911,-0.28079 0.027,-3.53462 c 0.026,-3.41858 0.033,-3.55077 0.2122,-4.02657 0.4134,-1.09807 0.9645,-1.70397 2.4284,-2.6699 1.6705,-1.10224 3.0145,-1.80841 4.9023,-2.5757 l 0.8714,-0.35422 0.5428,0.51196 c 1.7484,1.64938 3.6834,2.62322 5.9721,3.00561 1.249,0.20869 3.1491,0.13819 4.2918,-0.15923 1.9356,-0.50378 3.5331,-1.38294 5.0157,-2.76029 l 0.6832,-0.63471 0.7243,0.2689 c 1.0745,0.3989 3.0907,1.40119 4.1479,2.06196 2.2542,1.40896 2.9605,2.16404 3.4,3.6349 0.133,0.44527 0.1457,0.83394 0.1257,3.86106 -0.018,2.71096 -0.045,3.41446 -0.141,3.61528 -0.1716,0.36037 -0.6355,0.64242 -1.1775,0.71597 -0.516,0.07 -0.7997,0.2419 -1.0806,0.65449 -0.1732,0.25448 -0.187,0.36586 -0.187,1.50912 v 1.23435 h -14.0793 -14.0793 z m -19.4797,-11.76302 c -0.031,-0.0305 -0.055,-0.60463 -0.055,-1.27591 0,-1.1289 -0.014,-1.24113 -0.187,-1.49526 -0.2821,-0.41449 -0.5576,-0.579 -1.0609,-0.63343 -0.5421,-0.0586 -1.0144,-0.33524 -1.2223,-0.71591 -0.1348,-0.24659 -0.1478,-0.56745 -0.1478,-3.63641 0,-3.03132 0.015,-3.41552 0.1528,-3.8646 0.2205,-0.71952 0.5997,-1.38985 1.0546,-1.86433 0.9783,-1.02029 5.1802,-3.38522 6.9568,-3.91541 l 0.3519,-0.10501 0.687,0.65896 c 2.0278,1.9451 4.6467,2.96762 7.5851,2.96158 2.8326,-0.006 5.3931,-1.06329 7.5879,-3.13376 l 0.5831,-0.55007 0.7623,0.30513 c 0.5897,0.23601 0.753,0.3355 0.721,0.43917 -0.023,0.0737 -0.1769,0.44022 -0.3426,0.81444 -1.1097,2.50672 -1.0877,5.81718 0.056,8.48455 0.183,0.42667 0.3192,0.78438 0.3027,0.79492 -0.017,0.0105 -0.4602,0.20026 -0.9858,0.42161 -2.0071,0.84514 -5.0007,2.56766 -6.0241,3.4662 -0.1592,0.13981 -0.3243,0.24153 -0.3668,0.22604 -0.043,-0.0155 -0.8498,-0.96315 -1.7938,-2.10591 -2.5497,-3.08658 -2.4499,-2.98164 -3.1779,-3.34142 -0.5992,-0.29614 -0.6841,-0.31523 -1.3904,-0.3124 -0.9739,0.004 -1.5395,0.21676 -2.1651,0.81487 -0.6037,0.57721 -5.8289,6.89968 -6.0332,7.30027 l -0.162,0.3175 h -0.8156 c -0.4485,0 -0.8405,-0.0249 -0.8709,-0.0554 z m 32.7314,-3.51937 c -2.8589,-0.30273 -5.392,-2.08689 -6.6465,-4.68135 -2.3936,-4.95023 0.5084,-10.7193 5.9465,-11.82118 1.0222,-0.20713 2.7603,-0.12998 3.7751,0.16756 1.4019,0.41109 2.4822,1.01739 3.4676,1.94606 1.7955,1.69219 2.7249,4.01392 2.6165,6.5361 -0.05,1.17112 -0.2459,1.99279 -0.7104,2.98386 -1.2779,2.72693 -3.7909,4.53178 -6.7728,4.86428 -0.4383,0.0489 -0.8637,0.0838 -0.9455,0.0776 -0.082,-0.006 -0.4105,-0.039 -0.7305,-0.0729 z m -19.8562,-13.05019 c -4.1886,-0.66072 -7.1961,-4.15097 -7.1961,-8.35123 0,-2.85563 1.5686,-5.5978 4.0433,-7.06854 0.7106,-0.4223 1.628,-0.79907 2.4393,-1.00185 0.9109,-0.22766 2.9467,-0.20877 3.8432,0.0356 1.5065,0.41072 2.6211,1.02202 3.6597,2.00718 1.5559,1.47572 2.3782,3.12357 2.6374,5.28512 0.4805,4.00683 -2.2832,7.91162 -6.3172,8.92563 -0.8112,0.20388 -2.3539,0.28725 -3.1096,0.16804 z"
       id="path957"
       sodipodi:nodetypes="sssscssssssssccsssssssssscsssscsssscsssssssscccssscssscsscssscsccsssssssssscsssssssssssssssssssss" />
    <path
       style="fill:#2ad4ff;stroke-width:0.105001"
       d="m 95.291244,71.325061 c 0,-1.31706 0.1475,-1.8599 0.60589,-2.2675 0.5482,-0.48747 0.339,-0.47932 12.411906,-0.48358 7.3227,-0.003 11.5284,0.0336 11.7725,0.10149 0.5403,0.15008 1.044,0.51729 1.2945,0.94369 0.1785,0.30383 0.2221,0.58894 0.2527,1.6534 l 0.037,1.28627 h -13.1884 -13.188496 v -1.23377 z m 2.85409,-4.16742 c 0.056,-0.67506 0.1867,-0.85905 0.8186,-1.1522 0.4655,-0.2159 0.603,-0.21962 9.183106,-0.24837 5.8802,-0.0197 8.8861,0.007 9.2507,0.083 0.7656,0.15894 1.1163,0.5481 1.1793,1.30892 l 0.048,0.57984 h -10.2636 -10.263606 z m 8.378706,-20.27159 v -18.00768 h -9.870106 -9.87009 v -0.82553 -0.82552 l 0.7924,-0.0718 c 1.1238,-0.10184 2.2298,-0.44878 5.0142,-1.57291 1.3404,-0.54115 2.9281,-1.10774 3.52829,-1.2591 1.0908,-0.27506 1.0932,-0.27518 5.470006,-0.27518 2.4082,0 4.7401,-0.0306 5.182,-0.0679 l 0.8033,-0.0679 v -0.81214 c 0,-0.80517 0,-0.81455 -0.3684,-1.09319 -0.4879,-0.37208 -0.7866,-0.97842 -0.7866,-1.59656 0,-2.3743 3.3695,-2.79568 3.9806,-0.4978 0.1994,0.74967 -0.036,1.46267 -0.6677,2.01669 -0.369,0.32401 -0.3728,0.33607 -0.3728,1.1706 0,0.46377 0.012,0.85034 0.026,0.85905 0.014,0.009 2.4596,0.0466 5.4337,0.0842 l 5.4076,0.0684 0.945,0.28999 c 0.5198,0.15949 2.0589,0.73539 3.4204,1.27978 2.5545,1.02143 3.637,1.35143 4.8853,1.48928 l 0.7244,0.08 v 0.78751 0.78751 l -9.8964,0.0268 -9.8963,0.0268 v 18.00714 18.00716 h -1.9425 -1.9425 z m -16.222596,12.64619 c -4.0732,-0.54715 -7.3092,-3.17703 -8.1325,-6.60908 -0.1732,-0.72224 -0.1881,-0.91204 -0.078,-0.99705 0.1333,-0.10295 0.4763,-0.88616 3.1726,-7.24508 5.3981,-12.73064 6.3996,-15.06765 6.4564,-15.06765 0.031,0 0.4293,0.88594 0.8854,1.96877 0.4561,1.08282 1.4304,3.38628 2.1652,5.1188 0.7347,1.73252 2.24359,5.29993 3.35319,7.92758 2.921606,6.91887 3.025606,7.15497 3.213606,7.29248 0.1573,0.11501 0.1533,0.19677 -0.05,1.01013 -0.6255,2.50337 -2.504706,4.63198 -5.067206,5.73986 -1.75619,0.75928 -4.11859,1.10304 -5.91859,0.86124 z m 9.19539,-7.89488 c -0.051,-0.12994 -0.454,-1.08677 -0.8965,-2.12628 -0.8258,-1.93998 -1.1629,-2.73545 -2.7371,-6.45757 -0.50069,-1.18388 -1.30069,-3.0739 -1.77769,-4.20004 -1.3817,-3.26199 -1.9171,-4.53583 -2.1071,-5.0138 -0.1807,-0.45466 -0.3002,-0.54993 -0.3951,-0.315 -0.064,0.1576 -1.5115,3.56668 -2.7649,6.51006 -0.4979,1.16945 -1.0826,2.55153 -1.2992,3.07128 -0.2166,0.51976 -0.8786,2.07903 -1.4712,3.46504 -1.2458,2.91388 -2.2042,5.20144 -2.2042,5.2611 0,0.0228 3.5426,0.0415 7.8725,0.0415 h 7.87239 z m 24.358506,7.88855 c -3.3559,-0.38883 -6.2581,-2.29521 -7.6106,-4.99928 -0.5231,-1.04584 -0.8766,-2.48608 -0.6452,-2.62892 0.1211,-0.0747 0.4062,-0.72018 2.5613,-5.79916 0.5759,-1.35714 1.7997,-4.23942 2.7197,-6.40507 0.92,-2.16565 2.2585,-5.31962 2.9747,-7.00882 0.7161,-1.68921 1.328,-3.07128 1.3596,-3.07128 0.05,0 1.3795,3.11088 5.6765,13.28263 3.1605,7.48158 3.7923,8.92756 3.9362,9.00809 0.1883,0.10537 0.1398,0.51066 -0.1849,1.54452 -0.3567,1.13589 -0.8909,2.03457 -1.7648,2.96858 -1.6512,1.76487 -3.7465,2.79091 -6.3511,3.11009 -1.0601,0.12992 -1.5403,0.12967 -2.6714,-10e-4 z m 9.1283,-7.91664 c -0.055,-0.14538 -0.3579,-0.86595 -0.6725,-1.60126 -0.7148,-1.6706 -4.3696,-10.30131 -5.8907,-13.91082 -0.6268,-1.48707 -1.1697,-2.70377 -1.2066,-2.70377 -0.058,0 -0.7027,1.47776 -2.6797,6.14256 -1.6125,3.80487 -3.2638,7.69185 -4.1565,9.78392 -0.5712,1.33861 -1.0385,2.46082 -1.0385,2.49377 0,0.033 3.5426,0.0599 7.8725,0.0599 h 7.8725 z"
       id="path973" />
    <path
       style="fill:#2ad4ff;stroke-width:0.0512779"
       d="m 150.97765,23.325988 c -0.0548,-0.11228 -0.10385,-0.308991 -0.10882,-0.437173 -0.0211,-0.524009 0.21394,-15.9786639 0.24625,-16.2075329 0.0309,-0.217876 0.0721,-0.293886 0.34054,-0.627338 0.27846,-0.3458 0.33117,-0.389949 0.59584,-0.497759 0.40503,-0.165066 0.90052,-0.182088 1.23553,-0.04247 0.35404,0.14767 0.55552,0.368813 0.6552,0.719284 0.0557,0.195686 0.0524,2.026039 -0.0133,6.4867779 -0.0498,3.417823 -0.0835,6.227996 -0.0733,6.244874 0.0106,0.01704 0.37216,-0.306503 0.80564,-0.718549 8.11209,-7.712156 18.04576,-13.2841149 28.5763,-16.0290029 5.45645,-1.42227995 11.11573,-2.17410175 16.6749,-2.21523575 7.20981,-0.05335 14.15323,1.03880075 20.91904,3.29052775 6.28727,2.092465 11.86174,4.899012 17.49645,8.8088779 1.30964,0.908804 5.24195,4.053274 6.32763,5.059945 1.62394,1.505829 2.84904,2.712904 3.04924,3.004471 0.19386,0.282244 0.27192,0.73145 0.19394,1.115737 -0.17344,0.854602 -0.87795,1.420305 -1.59496,1.280698 -0.31006,-0.06031 -0.43112,-0.155705 -1.34415,-1.058681 -6.41518,-6.34462 -13.78579,-11.1639 -21.96558,-14.3622159 -5.65251,-2.210159 -12.23286,-3.637024 -18.54793,-4.021885 -17.25363,-1.051552 -34.20748,4.855545 -46.74919,16.2884269 -0.90633,0.826193 -1.86974,1.756446 -1.86498,1.800746 0.002,0.02122 2.63589,0.07544 5.85244,0.119307 3.21654,0.04525 5.96596,0.100013 6.10981,0.12373 0.22427,0.03702 0.30986,0.08212 0.60028,0.317402 0.407,0.329297 0.56143,0.610141 0.61608,1.117799 0.0648,0.603053 -0.13986,1.060134 -0.57893,1.292393 -0.13796,0.07306 -0.33581,0.13962 -0.43949,0.148025 -0.53755,0.04348 -15.72718,-0.211721 -15.98194,-0.268483 -0.40262,-0.08981 -0.88654,-0.433216 -1.03257,-0.732828 z"
       id="path1021-5-0-1-4" />
    <path
       style="fill:#2ad4ff;stroke-width:0.0521261"
       d="m 145.93819,40.696108 c -0.36559,-0.878188 -0.21724,-1.804868 0.37066,-2.315274 0.21414,-0.185956 0.30541,-0.231778 0.57493,-0.28541 0.17615,-0.03531 0.39926,-0.05423 0.49587,-0.04197 0.0966,0.01223 0.24626,-4.23e-4 0.33258,-0.0282 0.29326,-0.09438 3.90598,-0.358848 6.15196,-0.450348 6.93353,-0.282482 12.59213,0.406247 17.36408,2.113448 2.61369,0.935053 5.2874,2.333169 7.42632,3.883295 1.39568,1.01147 3.11838,2.519982 4.19767,3.675729 l 0.4229,0.452851 0.70386,-0.494335 c 3.25331,-2.284609 4.28871,-2.907708 5.02428,-3.023588 0.36794,-0.05796 0.89401,0.03278 1.22307,0.210984 0.38063,0.206135 0.73022,0.66394 0.83723,1.096279 0.21991,0.889174 0.36166,5.718792 0.35939,12.244965 -0.002,5.704362 0.021,7.687395 0.11407,9.856402 0.0765,1.78107 0.006,2.352601 -0.36004,2.926604 -0.3656,0.57309 -0.97723,0.835263 -1.6494,0.706919 -0.16935,-0.03234 -0.74234,-0.261506 -1.27332,-0.509277 -2.31832,-1.08179 -4.15803,-1.799384 -9.59007,-3.740677 -4.91135,-1.755203 -7.02199,-2.591528 -9.38981,-3.720652 -1.13132,-0.539485 -1.39903,-0.715457 -1.71331,-1.126216 -0.43034,-0.562461 -0.47636,-1.279134 -0.12915,-2.011391 0.351,-0.740259 0.34091,-0.730385 2.41541,-2.364619 l 1.87755,-1.479057 -0.57999,-0.74617 c -2.22185,-2.861086 -5.64757,-5.693551 -9.56487,-7.908446 -3.46693,-1.960251 -7.4731,-3.601697 -12.94599,-5.304345 -0.84535,-0.262989 -1.6658,-0.550763 -1.82322,-0.63949 -0.33942,-0.191291 -0.72555,-0.623833 -0.87292,-0.977852 z m 12.45327,1.201718 c 7.13251,3.086714 12.39601,6.981752 16.25671,12.030117 0.84541,1.105302 1.18588,1.647364 1.28151,2.039218 0.10228,0.419413 0.0368,1.134637 -0.13586,1.483375 -0.22553,0.45557 -1.29463,1.543455 -2.69471,2.742061 -0.28949,0.247792 -0.52109,0.457358 -0.5147,0.465689 0.0265,0.03451 1.68911,0.723097 2.57484,1.066381 1.16865,0.452933 2.19565,0.822057 5.26764,1.893242 2.76274,0.963366 5.04443,1.806009 6.33997,2.341422 l 0.91446,0.377909 -0.0114,-0.185763 c -0.0872,-1.420055 -0.0809,-3.711421 0.0226,-8.243484 0.0675,-2.959367 0.0823,-4.266387 0.0637,-5.630055 -0.0179,-1.306987 -0.086,-2.821794 -0.12717,-2.828708 -0.0178,-0.003 -0.83684,0.580601 -1.82017,1.296902 -0.9834,0.716222 -1.85537,1.327054 -1.93776,1.357337 -0.25892,0.09515 -0.61601,0.130186 -0.87817,0.08617 -0.60617,-0.101783 -0.98918,-0.386379 -1.85594,-1.379102 -5.65152,-6.472792 -12.88958,-9.429857 -23.18291,-9.471244 -0.79304,-0.0032 -0.86047,0.001 -0.74882,0.04696 0.0446,0.01843 0.57846,0.248599 1.18624,0.511617 z"
       id="path1164-5" />
    <path
       style="fill:#2ad4ff;stroke-width:0.0521261"
       d="m 28.585752,75.2619 c -0.950658,0.03359 -1.766068,-0.430998 -2.037268,-1.160783 -0.0988,-0.26584 -0.109603,-0.367393 -0.06515,-0.638561 0.02882,-0.177314 0.08959,-0.392835 0.134966,-0.478993 0.04538,-0.08615 0.08615,-0.230698 0.0905,-0.321272 0.0147,-0.307728 1.03692,-3.782887 1.740673,-5.917723 2.172547,-6.590423 4.806224,-11.645901 8.081747,-15.51333 1.794048,-2.118271 4.042724,-4.129974 6.245724,-5.587583 1.43749,-0.951117 3.45524,-2.033687 4.9166,-2.63789 l 0.57262,-0.236751 -0.21539,-0.832699 c -0.99537,-3.848728 -1.21479,-5.037072 -1.06473,-5.766439 0.075,-0.36485 0.34493,-0.825439 0.6274,-1.070876 0.32677,-0.28389 0.87823,-0.450267 1.3206,-0.39849 0.90974,0.106651 5.48102,1.67146 11.59001,3.967412 5.33968,2.006845 7.20427,2.68231 9.2676,3.357543 1.69432,0.554393 2.2046,0.821276 2.61332,1.365711 0.40803,0.543703 0.4385,1.20846 0.0821,1.792628 -0.0897,0.147191 -0.50572,0.603062 -0.92431,1.013077 -1.82763,1.790168 -3.14605,3.260276 -6.87274,7.6634 -3.36945,3.981063 -4.89427,5.663079 -6.78359,7.482957 -0.9027,0.869517 -1.16154,1.058295 -1.65655,1.208148 -0.67784,0.205189 -1.36495,-0.0036 -1.92845,-0.586056 -0.56967,-0.588791 -0.56397,-0.575876 -1.36478,-3.092413 l -0.72476,-2.277614 -0.90243,0.28072 c -3.45946,1.07447 -7.31528,3.286054 -10.76571,6.17492 -3.053731,2.556733 -5.998541,5.730352 -9.516168,10.255596 -0.543332,0.698976 -1.101113,1.365932 -1.23951,1.48212 -0.298387,0.250529 -0.83904,0.459993 -1.222276,0.473529 z m 5.502125,-11.236309 c 5.396701,-5.592501 10.893237,-9.151133 16.976457,-10.991097 1.33193,-0.402977 1.95906,-0.531199 2.35952,-0.482999 0.42861,0.05167 1.07518,0.364352 1.34099,0.64857 0.34723,0.371264 0.98993,1.754519 1.61996,3.486555 0.1302,0.358115 0.24503,0.648596 0.25508,0.64554 0.0416,-0.01271 1.27065,-1.32718 1.90334,-2.035739 0.83479,-0.934888 1.54134,-1.76662 3.62392,-4.266103 1.87295,-2.247857 3.46379,-4.087792 4.4204,-5.112484 l 0.67521,-0.723285 -0.17792,-0.05462 c -1.36008,-0.417484 -3.50304,-1.228755 -7.70956,-2.918582 -2.74682,-1.103355 -3.96525,-1.576604 -5.24844,-2.038495 -1.22989,-0.442623 -2.67197,-0.911292 -2.69292,-0.875181 -0.009,0.01561 0.24942,0.987515 0.5744,2.159874 0.32487,1.172392 0.59025,2.20342 0.58965,2.291196 -0.002,0.275864 -0.0946,0.622465 -0.22797,0.852437 -0.30834,0.53172 -0.7094,0.79026 -1.94343,1.252795 -8.0462,3.015864 -13.358633,8.752747 -17.015275,18.374768 -0.281547,0.741386 -0.301507,0.80592 -0.219195,0.717562 0.03287,-0.03528 0.436052,-0.454174 0.895902,-0.930731 z"
       id="path1164-5-0" />
    <path
       style="fill:#2ad4ff;stroke-width:0.0521261"
       d="m 72.084854,184.31394 c 0.36559,0.87819 0.21724,1.80487 -0.37066,2.31528 -0.21414,0.18595 -0.30541,0.23178 -0.57493,0.28541 -0.17615,0.0353 -0.39926,0.0542 -0.49587,0.042 -0.0966,-0.0122 -0.24626,4.2e-4 -0.33258,0.0282 -0.29326,0.0944 -3.90598,0.35884 -6.15196,0.45034 -6.93353,0.28249 -12.59213,-0.40624 -17.36408,-2.11344 -2.61369,-0.93505 -5.2874,-2.33317 -7.426317,-3.8833 -1.39568,-1.01147 -3.11838,-2.51998 -4.19767,-3.67572 l -0.4229,-0.45286 -0.70386,0.49434 c -3.25331,2.28461 -4.28871,2.90771 -5.02428,3.02359 -0.36794,0.058 -0.89401,-0.0328 -1.22307,-0.21099 -0.38063,-0.20613 -0.73022,-0.66394 -0.83723,-1.09628 -0.21991,-0.88917 -0.36166,-5.71879 -0.35939,-12.24496 0.002,-5.70436 -0.021,-7.6874 -0.11407,-9.8564 -0.0765,-1.78107 -0.006,-2.3526 0.36004,-2.92661 0.3656,-0.57309 0.97723,-0.83526 1.6494,-0.70692 0.16935,0.0323 0.74234,0.26151 1.27332,0.50928 2.31832,1.08179 4.15803,1.79939 9.59007,3.74068 4.911347,1.7552 7.021987,2.59153 9.389807,3.72065 1.13132,0.53949 1.39903,0.71546 1.71331,1.12622 0.43034,0.56246 0.47636,1.27913 0.12915,2.01139 -0.351,0.74026 -0.34091,0.73038 -2.41541,2.36462 l -1.87755,1.47905 0.57999,0.74617 c 2.22185,2.86109 5.64757,5.69355 9.56487,7.90845 3.46693,1.96025 7.4731,3.6017 12.94599,5.30434 0.84535,0.26299 1.6658,0.55077 1.82322,0.63949 0.33942,0.1913 0.72555,0.62384 0.87292,0.97786 z m -12.45327,-1.20171 c -7.13251,-3.08672 -12.39601,-6.98176 -16.25671,-12.03012 -0.84541,-1.1053 -1.18588,-1.64736 -1.28151,-2.03922 -0.10229,-0.41941 -0.0368,-1.13463 0.13586,-1.48337 0.22553,-0.45557 1.29463,-1.54346 2.6947,-2.74206 0.2895,-0.2478 0.52109,-0.45736 0.51471,-0.46569 -0.0265,-0.0345 -1.68911,-0.7231 -2.57484,-1.06638 -1.16866,-0.45294 -2.19565,-0.82206 -5.267637,-1.89325 -2.76274,-0.96336 -5.04443,-1.80601 -6.33997,-2.34142 l -0.91446,-0.37791 0.0114,0.18577 c 0.0872,1.42005 0.0809,3.71142 -0.0226,8.24348 -0.0675,2.95937 -0.0823,4.26639 -0.0637,5.63005 0.0179,1.30699 0.086,2.8218 0.12717,2.82871 0.0178,0.003 0.83684,-0.5806 1.82017,-1.2969 0.98339,-0.71622 1.85537,-1.32705 1.93776,-1.35734 0.25891,-0.0952 0.616,-0.13018 0.87817,-0.0862 0.60617,0.10179 0.98918,0.38638 1.85594,1.37911 5.651517,6.47279 12.889577,9.42985 23.182907,9.47124 0.79304,0.003 0.86047,-0.001 0.74882,-0.047 -0.0446,-0.0184 -0.57846,-0.2486 -1.18624,-0.51162 z"
       id="path1164-5-8" />
    <path
       style="fill:#2ad4ff;stroke-width:0.0521261"
       d="m 197.60687,152.16782 c 0.95066,-0.0336 1.76607,0.431 2.03727,1.16078 0.0988,0.26584 0.1096,0.3674 0.0651,0.63857 -0.0288,0.17731 -0.0896,0.39283 -0.13497,0.47899 -0.0454,0.0862 -0.0861,0.2307 -0.0905,0.32127 -0.0147,0.30773 -1.03692,3.78289 -1.74067,5.91772 -2.17255,6.59043 -4.80622,11.6459 -8.08175,15.51333 -1.79405,2.11827 -4.04272,4.12997 -6.24572,5.58758 -1.43749,0.95112 -3.45524,2.03369 -4.91661,2.63789 l -0.57262,0.23675 0.2154,0.8327 c 0.99537,3.84873 1.21479,5.03708 1.06473,5.76644 -0.075,0.36485 -0.34493,0.82544 -0.6274,1.07088 -0.32678,0.28389 -0.87824,0.45027 -1.3206,0.39849 -0.90975,-0.10665 -5.48103,-1.67146 -11.59001,-3.96741 -5.33968,-2.00685 -7.20427,-2.68231 -9.2676,-3.35755 -1.69432,-0.55439 -2.2046,-0.82127 -2.61332,-1.36571 -0.40803,-0.5437 -0.4385,-1.20846 -0.0821,-1.79263 0.0898,-0.14719 0.50572,-0.60306 0.92431,-1.01307 1.82762,-1.79017 3.14605,-3.26028 6.87273,-7.6634 3.36946,-3.98106 4.89427,-5.66308 6.78359,-7.48296 0.90271,-0.86951 1.16155,-1.05829 1.65656,-1.20814 0.67784,-0.20519 1.36495,0.004 1.92845,0.58605 0.56966,0.58879 0.56397,0.57588 1.36477,3.09241 l 0.72477,2.27762 0.90242,-0.28072 c 3.45947,-1.07447 7.31529,-3.28606 10.76571,-6.17492 3.05374,-2.55673 5.99855,-5.73035 9.51618,-10.2556 0.54333,-0.69897 1.10111,-1.36593 1.23951,-1.48212 0.29838,-0.25053 0.83904,-0.45999 1.22227,-0.47353 z m -5.50212,11.23631 c -5.39671,5.5925 -10.89324,9.15113 -16.97646,10.99109 -1.33193,0.40298 -1.95906,0.5312 -2.35953,0.483 -0.4286,-0.0517 -1.07518,-0.36435 -1.34098,-0.64857 -0.34723,-0.37126 -0.98993,-1.75452 -1.61997,-3.48655 -0.1302,-0.35811 -0.24502,-0.64859 -0.25507,-0.64554 -0.0416,0.0127 -1.27065,1.32718 -1.90334,2.03574 -0.83479,0.93489 -1.54134,1.76662 -3.62392,4.2661 -1.87295,2.24786 -3.46379,4.08779 -4.4204,5.11248 l -0.67521,0.72329 0.17791,0.0546 c 1.36009,0.41748 3.50305,1.22875 7.70957,2.91858 2.74682,1.10336 3.96524,1.57661 5.24844,2.0385 1.22989,0.44262 2.67197,0.91129 2.69292,0.87518 0.009,-0.0156 -0.24942,-0.98752 -0.5744,-2.15988 -0.32488,-1.17239 -0.59025,-2.20342 -0.58965,-2.29119 0.002,-0.27587 0.0946,-0.62247 0.22797,-0.85244 0.30834,-0.53172 0.7094,-0.79026 1.94343,-1.25279 8.0462,-3.01587 13.35863,-8.75275 17.01527,-18.37477 0.28155,-0.74139 0.30151,-0.80592 0.2192,-0.71756 -0.0329,0.0353 -0.43605,0.45417 -0.8959,0.93073 z"
       id="path1164-5-0-7" />
    <path
       style="fill:#2ad4ff;stroke-width:0.0521261"
       d="m 197.60677,152.16753 c -0.95066,-0.0336 -1.76607,0.431 -2.03727,1.16078 -0.0988,0.26584 -0.1096,0.3674 -0.0651,0.63857 0.0288,0.17731 0.0896,0.39283 0.13497,0.47899 0.0454,0.0862 0.0861,0.2307 0.0905,0.32127 0.0147,0.30773 1.03692,3.78289 1.74067,5.91772 2.17255,6.59043 4.80622,11.6459 8.08175,15.51333 1.79405,2.11827 4.04272,4.12997 6.24572,5.58758 1.43749,0.95112 3.45524,2.03369 4.91661,2.63789 l 0.57262,0.23675 -0.2154,0.8327 c -0.99537,3.84873 -1.21479,5.03708 -1.06473,5.76644 0.075,0.36485 0.34493,0.82544 0.6274,1.07088 0.32678,0.28389 0.87824,0.45027 1.3206,0.39849 0.90975,-0.10665 5.48103,-1.67146 11.59001,-3.96741 5.33968,-2.00685 7.20427,-2.68231 9.2676,-3.35755 1.69432,-0.55439 2.2046,-0.82127 2.61332,-1.36571 0.40803,-0.5437 0.4385,-1.20846 0.0821,-1.79263 -0.0898,-0.14719 -0.50572,-0.60306 -0.92431,-1.01307 -1.82762,-1.79017 -3.14605,-3.26028 -6.87273,-7.6634 -3.36946,-3.98106 -4.89427,-5.66308 -6.78359,-7.48296 -0.90271,-0.86951 -1.16155,-1.05829 -1.65656,-1.20814 -0.67784,-0.20519 -1.36495,0.004 -1.92845,0.58605 -0.56966,0.58879 -0.56397,0.57588 -1.36477,3.09241 l -0.72477,2.27762 -0.90242,-0.28072 c -3.45947,-1.07447 -7.31529,-3.28606 -10.76571,-6.17492 -3.05374,-2.55673 -5.99855,-5.73035 -9.51618,-10.2556 -0.54333,-0.69897 -1.10111,-1.36593 -1.23951,-1.48212 -0.29838,-0.25053 -0.83904,-0.45999 -1.22227,-0.47353 z m 5.50212,11.23631 c 5.39671,5.5925 10.89324,9.15113 16.97646,10.99109 1.33193,0.40298 1.95906,0.5312 2.35953,0.483 0.4286,-0.0517 1.07518,-0.36435 1.34098,-0.64857 0.34723,-0.37126 0.98993,-1.75452 1.61997,-3.48655 0.1302,-0.35811 0.24502,-0.64859 0.25507,-0.64554 0.0416,0.0127 1.27065,1.32718 1.90334,2.03574 0.83479,0.93489 1.54134,1.76662 3.62392,4.2661 1.87295,2.24786 3.46379,4.08779 4.4204,5.11248 l 0.67521,0.72329 -0.17791,0.0546 c -1.36009,0.41748 -3.50305,1.22875 -7.70957,2.91858 -2.74682,1.10336 -3.96524,1.57661 -5.24844,2.0385 -1.22989,0.44262 -2.67197,0.91129 -2.69292,0.87518 -0.009,-0.0156 0.24942,-0.98752 0.5744,-2.15988 0.32488,-1.17239 0.59025,-2.20342 0.58965,-2.29119 -0.002,-0.27587 -0.0946,-0.62247 -0.22797,-0.85244 -0.30834,-0.53172 -0.7094,-0.79026 -1.94343,-1.25279 -8.0462,-3.01587 -13.35863,-8.75275 -17.01527,-18.37477 -0.28155,-0.74139 -0.30151,-0.80592 -0.2192,-0.71756 0.0329,0.0353 0.43605,0.45417 0.8959,0.93073 z"
       id="path1164-5-0-7-2" />
    <path
       style="fill:#2ad4ff;stroke-width:0.0521261"
       d="m 324.56439,184.31394 c -0.36559,0.87819 -0.21724,1.80487 0.37066,2.31528 0.21414,0.18595 0.30541,0.23178 0.57493,0.28541 0.17615,0.0353 0.39925,0.0542 0.49587,0.042 0.0966,-0.0122 0.24626,4.2e-4 0.33257,0.0282 0.29327,0.0944 3.90598,0.35884 6.15197,0.45034 6.93352,0.28248 12.59213,-0.40624 17.36408,-2.11344 2.61368,-0.93505 5.2874,-2.33317 7.42632,-3.8833 1.39568,-1.01147 3.11838,-2.51998 4.19767,-3.67572 l 0.42289,-0.45286 0.70387,0.49434 c 3.25331,2.28461 4.2887,2.90771 5.02427,3.02359 0.36795,0.058 0.89402,-0.0328 1.22307,-0.21099 0.38063,-0.20613 0.73023,-0.66394 0.83724,-1.09628 0.2199,-0.88917 0.36165,-5.71879 0.35938,-12.24496 -0.002,-5.70436 0.021,-7.6874 0.11408,-9.8564 0.0765,-1.78107 0.006,-2.3526 -0.36005,-2.92661 -0.36559,-0.57309 -0.97722,-0.83526 -1.64939,-0.70692 -0.16935,0.0323 -0.74234,0.26151 -1.27332,0.50928 -2.31833,1.08179 -4.15803,1.79939 -9.59008,3.74068 -4.91134,1.7552 -7.02199,2.59153 -9.3898,3.72065 -1.13132,0.53949 -1.39904,0.71546 -1.71331,1.12622 -0.43034,0.56246 -0.47636,1.27913 -0.12915,2.01139 0.351,0.74026 0.34091,0.73038 2.41541,2.36462 l 1.87755,1.47905 -0.57999,0.74617 c -2.22186,2.86109 -5.64757,5.69355 -9.56487,7.90845 -3.46693,1.96025 -7.4731,3.6017 -12.94599,5.30434 -0.84535,0.26299 -1.6658,0.55077 -1.82322,0.63949 -0.33942,0.1913 -0.72555,0.62384 -0.87292,0.97786 z m 12.45327,-1.20171 c 7.13251,-3.08672 12.39601,-6.98176 16.25671,-12.03012 0.84541,-1.1053 1.18588,-1.64736 1.28151,-2.03922 0.10229,-0.41941 0.0368,-1.13463 -0.13586,-1.48337 -0.22553,-0.45557 -1.29463,-1.54346 -2.6947,-2.74206 -0.2895,-0.2478 -0.52109,-0.45736 -0.51471,-0.46569 0.0265,-0.0345 1.68911,-0.7231 2.57484,-1.06638 1.16866,-0.45294 2.19565,-0.82206 5.26764,-1.89325 2.76274,-0.96336 5.04443,-1.80601 6.33997,-2.34142 l 0.91446,-0.37791 -0.0114,0.18577 c -0.0872,1.42005 -0.0809,3.71142 0.0226,8.24348 0.0675,2.95937 0.0823,4.26639 0.0637,5.63005 -0.0179,1.30699 -0.086,2.8218 -0.12717,2.82871 -0.0178,0.003 -0.83684,-0.5806 -1.82017,-1.2969 -0.98339,-0.71622 -1.85537,-1.32705 -1.93776,-1.35734 -0.25891,-0.0952 -0.616,-0.13018 -0.87817,-0.0862 -0.60617,0.10179 -0.98918,0.38638 -1.85594,1.37911 -5.65152,6.47279 -12.88958,9.42985 -23.18291,9.47124 -0.79304,0.003 -0.86047,-0.001 -0.74882,-0.047 0.0446,-0.0184 0.57846,-0.2486 1.18624,-0.51162 z"
       id="path1164-5-8-5" />
    <path
       style="fill:#2ad4ff;stroke-width:0.0521261"
       d="m 366.61925,75.2619 c 0.95066,0.03359 1.76607,-0.430998 2.03727,-1.160783 0.0988,-0.26584 0.1096,-0.367393 0.0652,-0.638561 -0.0288,-0.177314 -0.0896,-0.392835 -0.13497,-0.478993 -0.0454,-0.08615 -0.0862,-0.230698 -0.0905,-0.321272 -0.0147,-0.307728 -1.03692,-3.782887 -1.74067,-5.917723 -2.17255,-6.590423 -4.80623,-11.645901 -8.08175,-15.51333 -1.79405,-2.118271 -4.04272,-4.129974 -6.24572,-5.587583 -1.43749,-0.951117 -3.45524,-2.033687 -4.91661,-2.63789 l -0.57262,-0.236751 0.2154,-0.832699 c 0.99537,-3.848728 1.21479,-5.037072 1.06473,-5.766439 -0.075,-0.36485 -0.34493,-0.825439 -0.6274,-1.070876 -0.32678,-0.28389 -0.87824,-0.450267 -1.3206,-0.39849 -0.90975,0.106651 -5.48103,1.67146 -11.59001,3.967412 -5.33969,2.006845 -7.20427,2.68231 -9.2676,3.357543 -1.69432,0.554393 -2.20461,0.821276 -2.61332,1.365711 -0.40803,0.543703 -0.4385,1.20846 -0.0821,1.792628 0.0897,0.147191 0.50573,0.603062 0.92432,1.013077 1.82762,1.790168 3.14605,3.260276 6.87273,7.6634 3.36946,3.981063 4.89427,5.663079 6.78359,7.482957 0.90271,0.869517 1.16155,1.058295 1.65656,1.208148 0.67784,0.205189 1.36495,-0.0036 1.92845,-0.586056 0.56966,-0.588791 0.56397,-0.575876 1.36477,-3.092413 l 0.72477,-2.277614 0.90242,0.28072 c 3.45947,1.07447 7.31529,3.286054 10.76571,6.17492 3.05374,2.556733 5.99855,5.730352 9.51618,10.255596 0.54333,0.698976 1.10111,1.365932 1.23951,1.48212 0.29838,0.250529 0.83904,0.459993 1.22227,0.473529 z m -5.50212,-11.236309 c -5.39671,-5.592501 -10.89324,-9.151133 -16.97646,-10.991097 -1.33193,-0.402977 -1.95906,-0.531199 -2.35953,-0.482999 -0.4286,0.05167 -1.07518,0.364352 -1.34098,0.64857 -0.34723,0.371264 -0.98993,1.754519 -1.61997,3.486555 -0.1302,0.358115 -0.24502,0.648596 -0.25507,0.64554 -0.0416,-0.01271 -1.27065,-1.32718 -1.90334,-2.035739 -0.83479,-0.934888 -1.54134,-1.76662 -3.62392,-4.266103 -1.87295,-2.247857 -3.46379,-4.087792 -4.4204,-5.112484 l -0.67521,-0.723285 0.17791,-0.05462 c 1.36009,-0.417484 3.50305,-1.228755 7.70957,-2.918582 2.74682,-1.103355 3.96524,-1.576604 5.24844,-2.038495 1.22989,-0.442623 2.67197,-0.911292 2.69292,-0.875181 0.009,0.01561 -0.24942,0.987515 -0.5744,2.159874 -0.32488,1.172392 -0.59026,2.20342 -0.58965,2.291196 0.002,0.275864 0.0946,0.622465 0.22797,0.852437 0.30834,0.53172 0.7094,0.79026 1.94343,1.252795 8.0462,3.015864 13.35863,8.752747 17.01527,18.374768 0.28155,0.741386 0.30151,0.80592 0.2192,0.717562 -0.0329,-0.03528 -0.43605,-0.454174 -0.8959,-0.930731 z"
       id="path1164-5-0-77" />
  </g>
</svg>
