<?xml version="1.0" encoding="UTF-8" standalone="no"?>
<svg
   xmlns:dc="http://purl.org/dc/elements/1.1/"
   xmlns:cc="http://creativecommons.org/ns#"
   xmlns:rdf="http://www.w3.org/1999/02/22-rdf-syntax-ns#"
   xmlns:svg="http://www.w3.org/2000/svg"
   xmlns="http://www.w3.org/2000/svg"
   xmlns:xlink="http://www.w3.org/1999/xlink"
   xmlns:sodipodi="http://sodipodi.sourceforge.net/DTD/sodipodi-0.dtd"
   xmlns:inkscape="http://www.inkscape.org/namespaces/inkscape"
   width="1000"
   height="1000"
   viewBox="0 0 264.58333 264.58334"
   version="1.1"
   id="svg895"
   inkscape:version="1.0.2-2 (e86c870879, 2021-01-15)"
   sodipodi:docname="Instagram.svg">
  <defs
     id="defs889">
    <linearGradient
       inkscape:collect="always"
       id="linearGradient917">
      <stop
         style="stop-color:#aa4400;stop-opacity:1;"
         offset="0"
         id="stop913" />
      <stop
         style="stop-color:#5f5fd3;stop-opacity:1"
         offset="1"
         id="stop915" />
    </linearGradient>
    <linearGradient
       inkscape:collect="always"
       xlink:href="#linearGradient917"
       id="linearGradient919"
       x1="52.543106"
       y1="226.38943"
       x2="230.93021"
       y2="38.272141"
       gradientUnits="userSpaceOnUse" />
  </defs>
  <sodipodi:namedview
     id="base"
     pagecolor="#ffffff"
     bordercolor="#666666"
     borderopacity="1.0"
     inkscape:pageopacity="0.0"
     inkscape:pageshadow="2"
     inkscape:zoom="0.40787938"
     inkscape:cx="346.06249"
     inkscape:cy="560"
     inkscape:document-units="mm"
     inkscape:current-layer="layer1"
     inkscape:document-rotation="0"
     showgrid="false"
     units="px"
     inkscape:window-width="2558"
     inkscape:window-height="1368"
     inkscape:window-x="3241"
     inkscape:window-y="1442"
     inkscape:window-maximized="0" />
  <metadata
     id="metadata892">
    <rdf:RDF>
      <cc:Work
         rdf:about="">
        <dc:format>image/svg+xml</dc:format>
        <dc:type
           rdf:resource="http://purl.org/dc/dcmitype/StillImage" />
        <dc:title></dc:title>
      </cc:Work>
    </rdf:RDF>
  </metadata>
  <g
     inkscape:label="Layer 1"
     inkscape:groupmode="layer"
     id="layer1">
    <path
       style="fill:url(#linearGradient919);stroke-width:0.13822;fill-opacity:1"
       d="m 96.76858,264.54297 c -9.8261,-0.1596 -21.87943,-0.7088 -27.09165,-1.2344 C 56.16703,261.94621 44.44094,258.30535 34.67721,252.44142 27.0179,247.84137 19.26369,240.48524 14.0172,232.84207 8.24224,224.42899 4.11475,213.61681 2.16943,201.80619 1.12821,195.48463 0.77807,190.84369 0.18852,175.55043 c -0.25136,-6.52068 -0.25136,-80.004227 0,-86.524901 C 0.63889,77.342496 0.92364,72.464101 1.4027,68.223616 3.11777,53.042581 7.90533,39.875806 15.35152,29.86154 19.18917,24.700336 24.70105,19.188614 29.86241,15.351071 39.87696,7.9050972 53.04411,3.1176752 68.22559,1.4026633 72.4662,0.92361625 77.34473,0.63887625 89.02811,0.18851925 c 6.52086,-0.251359 80.00654,-0.251359 86.5274,0 15.2946,0.589561 19.92747,0.93908895 26.26231,1.98139005 12.11398,1.993154 23.20902,6.305953 31.70254,12.3232377 6.73518,4.771567 13.22699,11.445712 17.64366,18.139158 5.80587,8.798826 9.89007,20.238651 11.59635,32.481391 0.8147,5.845608 1.10424,10.191891 1.63431,24.533817 0.25154,6.805564 0.25154,78.475357 0,85.280927 -0.52663,14.24845 -0.82858,18.78149 -1.62963,24.46471 -1.74251,12.36256 -5.73714,23.60159 -11.49559,32.34317 -2.60738,3.95814 -5.17713,7.08414 -8.8096,10.71651 -7.96839,7.96815 -16.12388,12.94184 -27.30355,16.65131 -9.36655,3.10786 -17.49357,4.35506 -32.41322,4.97419 -1.97658,0.082 -5.211,0.21666 -7.18758,0.29917 -3.20172,0.13368 -71.86588,0.27787 -78.78693,0.16547 z m 66.89978,-23.9593 c 11.95684,-0.16514 22.56842,-0.56475 27.71365,-1.04362 12.95457,-1.20568 22.92629,-4.71881 30.40899,-10.71338 1.8647,-1.49386 5.5484,-5.17745 7.0423,-7.04209 5.98601,-7.47159 9.50051,-17.43762 10.71156,-30.37467 0.21085,-2.25239 0.50696,-7.81408 0.7671,-14.40819 0.31662,-8.02626 0.44497,-26.48554 0.36949,-53.14508 -0.075,-26.496455 -0.13843,-31.033182 -0.5768,-41.25828 -0.56435,-13.163315 -1.67977,-20.151112 -4.36195,-27.32654 -2.54751,-6.815147 -5.35275,-11.221605 -10.28166,-16.15037 -3.74335,-3.743236 -6.80631,-5.979106 -11.06495,-8.077084 -5.52779,-2.723206 -10.75504,-4.310919 -17.72491,-5.383719 -4.88698,-0.752202 -10.07251,-1.08779 -24.08746,-1.558855 -7.33014,-0.246376 -73.25368,-0.246376 -80.58382,0 -11.05466,0.371565 -16.44955,0.657481 -20.38785,1.080513 -12.02966,1.29216 -21.73757,4.839866 -28.81943,10.531914 -1.69088,1.359038 -5.71829,5.386336 -7.07737,7.077159 -5.69221,7.081658 -9.24002,16.789288 -10.53222,28.818596 -0.42304,3.93819 -0.70896,9.332921 -1.08054,20.387254 -0.24638,7.329933 -0.24638,73.251562 0,80.581492 0.61842,18.39813 1.11433,23.68831 2.88286,30.75366 1.3757,5.49596 3.84409,11.3727 6.3861,15.20406 3.5286,5.31834 8.82028,10.41432 14.01875,13.50031 6.81773,4.04724 15.36226,6.53108 25.81141,7.50322 4.85858,0.45201 16.24749,0.90067 26.26231,1.03458 11.21697,0.14998 53.57054,0.15599 64.20444,0.009 z m -34.94332,-40.37305 c -8.58569,-0.42584 -17.21642,-2.5576 -25.06837,-6.19179 -15.31743,-7.0895 -27.68499,-19.93026 -34.1622,-35.4693 -7.66247,-18.38252 -6.88139,-39.42744 2.11868,-57.08432 6.58829,-12.925313 16.92931,-23.266033 29.855,-29.854134 15.25503,-7.775345 33.14833,-9.461889 49.77029,-4.691127 18.74877,5.381199 34.55598,18.953141 42.78755,36.737031 6.50299,14.04941 8.00632,29.92284 4.26956,45.08158 -5.99697,24.32762 -25.22436,43.55445 -49.55268,49.55124 -4.60398,1.13486 -8.41721,1.6873 -13.34105,1.93276 -2.96286,0.1477 -3.47652,0.14679 -6.67678,-0.0119 z m 9.16479,-24.2423 c 6.27209,-0.86921 11.89999,-2.84557 17.15231,-6.02344 10.46178,-6.32978 17.92214,-16.87083 20.3627,-28.77127 0.5516,-2.68966 0.77594,-4.67087 0.86531,-7.64166 0.3665,-12.18341 -4.24487,-23.7315 -12.94313,-32.41294 -14.48581,-14.457798 -36.92012,-17.021542 -54.3078,-6.206176 -7.59187,4.722236 -13.77386,11.942536 -17.26683,20.166916 -5.63308,13.26335 -4.3876,28.53273 3.31991,40.70193 7.35198,11.60786 19.42649,18.98862 33.34927,20.38535 1.82335,0.18292 7.5873,0.0619 9.46826,-0.19871 z m 62.96043,-98.5037 c -5.48093,-0.696181 -10.35337,-4.353034 -12.53564,-9.4082 -3.39878,-7.87325 -0.094,-16.959015 7.52876,-20.69874 9.91261,-4.863113 21.53389,1.402906 22.91235,12.353992 0.98897,7.85676 -4.02446,15.291437 -11.68545,17.328938 -2.05641,0.546923 -4.13617,0.688698 -6.22002,0.42401 z"
       id="path911" />
  </g>
</svg>
