<?xml version="1.0" encoding="UTF-8" standalone="no"?>
<svg
   xmlns:dc="http://purl.org/dc/elements/1.1/"
   xmlns:cc="http://creativecommons.org/ns#"
   xmlns:rdf="http://www.w3.org/1999/02/22-rdf-syntax-ns#"
   xmlns:svg="http://www.w3.org/2000/svg"
   xmlns="http://www.w3.org/2000/svg"
   xmlns:sodipodi="http://sodipodi.sourceforge.net/DTD/sodipodi-0.dtd"
   xmlns:inkscape="http://www.inkscape.org/namespaces/inkscape"
   width="1000"
   height="1000"
   viewBox="0 0 264.58333 264.58333"
   version="1.1"
   id="svg5"
   xml:space="preserve"
   inkscape:version="1.0.2-2 (e86c870879, 2021-01-15)"
   sodipodi:docname="menu.svg"
   inkscape:export-filename="C:\Users\aaron\Dropbox\Vidiac\public\images\menu.png"
   inkscape:export-xdpi="100"
   inkscape:export-ydpi="100"><metadata
     id="metadata7"><rdf:RDF><cc:Work
         rdf:about=""><dc:format>image/svg+xml</dc:format><dc:type
           rdf:resource="http://purl.org/dc/dcmitype/StillImage" /></cc:Work></rdf:RDF></metadata><sodipodi:namedview
     id="namedview7"
     pagecolor="#505050"
     bordercolor="#eeeeee"
     borderopacity="1"
     inkscape:showpageshadow="0"
     inkscape:pageopacity="0"
     inkscape:pagecheckerboard="0"
     inkscape:deskcolor="#505050"
     inkscape:document-units="px"
     showgrid="false"
     inkscape:zoom="0.43616227"
     inkscape:cx="381.5494"
     inkscape:cy="777.18059"
     inkscape:window-width="1346"
     inkscape:window-height="1198"
     inkscape:window-x="2135"
     inkscape:window-y="1488"
     inkscape:window-maximized="0"
     inkscape:current-layer="layer1"
     inkscape:document-rotation="0" /><defs
     id="defs2" /><g
     inkscape:label="Layer 1"
     inkscape:groupmode="layer"
     id="layer1"><path
       style="fill:#000000;stroke-width:0.516764"
       d="m 28.680421,231.02963 c -4.599922,-1.11267 -8.834716,-4.55832 -10.721926,-8.72392 -1.557098,-3.43695 -1.567088,-11.20553 -0.0188,-14.61964 1.551638,-3.42149 3.780886,-5.72816 7.217326,-7.46797 l 3.006635,-1.52221 H 132.29167 236.41968 l 2.42249,1.13057 c 5.16186,2.40905 8.53767,7.47012 9.04873,13.566 0.51007,6.08416 -2.06591,12.1866 -6.3878,15.13251 -4.65828,3.17521 2.23237,2.99056 -109.43441,2.93256 -56.010891,-0.0291 -102.535608,-0.22165 -103.388269,-0.4279 z m 0,-82.68229 c -4.599922,-1.11267 -8.834716,-4.55832 -10.721926,-8.72392 -1.557098,-3.43695 -1.567088,-11.20553 -0.0188,-14.61964 1.551638,-3.4215 3.780886,-5.72816 7.217326,-7.46797 l 3.006635,-1.52222 H 132.29167 236.41968 l 2.42249,1.13058 c 5.16186,2.40904 8.53767,7.47012 9.04873,13.56599 0.51007,6.08417 -2.06591,12.18661 -6.3878,15.13252 -4.65828,3.1752 2.23237,2.99055 -109.43441,2.93255 -56.010891,-0.0291 -102.535608,-0.22164 -103.388269,-0.42789 z m 0,-82.682297 c -4.599922,-1.112672 -8.834716,-4.558322 -10.721926,-8.723918 -1.557098,-3.436948 -1.567088,-11.205529 -0.0188,-14.619638 1.551638,-3.421498 3.780886,-5.728166 7.217326,-7.467978 L 28.163656,33.3313 H 132.29167 236.41968 l 2.42249,1.130577 c 5.16186,2.409043 8.53767,7.470115 9.04873,13.565993 0.51007,6.084167 -2.06591,12.186606 -6.3878,15.132514 -4.65828,3.175207 2.23237,2.990557 -109.43441,2.932555 C 76.057799,66.063845 29.533082,65.871294 28.680421,65.665043 Z"
       id="path302" /></g></svg>
