<?xml version="1.0" encoding="UTF-8" standalone="no"?>
<svg
   xmlns:dc="http://purl.org/dc/elements/1.1/"
   xmlns:cc="http://creativecommons.org/ns#"
   xmlns:rdf="http://www.w3.org/1999/02/22-rdf-syntax-ns#"
   xmlns:svg="http://www.w3.org/2000/svg"
   xmlns="http://www.w3.org/2000/svg"
   xmlns:sodipodi="http://sodipodi.sourceforge.net/DTD/sodipodi-0.dtd"
   xmlns:inkscape="http://www.inkscape.org/namespaces/inkscape"
   width="1000"
   height="911.47302"
   viewBox="0 0 264.58333 241.16058"
   version="1.1"
   id="svg8"
   inkscape:version="1.0.2-2 (e86c870879, 2021-01-15)"
   sodipodi:docname="navbarmenubutton.svg">
  <defs
     id="defs2" />
  <sodipodi:namedview
     id="base"
     pagecolor="#ffffff"
     bordercolor="#666666"
     borderopacity="1.0"
     inkscape:pageopacity="0.0"
     inkscape:pageshadow="2"
     inkscape:zoom="0.49497475"
     inkscape:cx="343.72674"
     inkscape:cy="245.92597"
     inkscape:document-units="px"
     inkscape:current-layer="layer1"
     inkscape:document-rotation="0"
     showgrid="false"
     units="px"
     inkscape:window-width="1734"
     inkscape:window-height="1198"
     inkscape:window-x="1534"
     inkscape:window-y="1612"
     inkscape:window-maximized="0" />
  <metadata
     id="metadata5">
    <rdf:RDF>
      <cc:Work
         rdf:about="">
        <dc:format>image/svg+xml</dc:format>
        <dc:type
           rdf:resource="http://purl.org/dc/dcmitype/StillImage" />
        <dc:title></dc:title>
      </cc:Work>
    </rdf:RDF>
  </metadata>
  <g
     inkscape:label="Layer 1"
     inkscape:groupmode="layer"
     id="layer1">
    <path
       style="fill:#000000;stroke-width:0.706496"
       d="M 54.04705,240.54362 C 41.175005,239.27903 29.261969,233.96619 19.186805,224.99701 11.449434,218.10901 4.495481,206.39387 1.582475,195.33951 0,189.33427 0,189.33427 0,120.45079 0,51.567331 0,51.567331 1.59785,45.562101 7.506476,23.355569 23.797474,7.2585937 46.127735,1.5625757 c 6.153067,-1.56953203 6.153067,-1.56953203 86.693765,-1.56154803 80.54071,0.008 80.54071,0.008 86.19269,1.60085403 19.00306,5.355511 34.02494,18.3604983 41.21354,35.6800363 4.42827,10.669073 4.35554,9.280049 4.35554,83.168872 0,58.53538 -0.14393,67.87732 -1.11918,72.62239 -4.33185,21.07754 -20.59788,38.82684 -41.48784,45.27109 -2.64515,0.81599 -8.20883,1.806 -12.36368,2.19999 -8.66958,0.82214 -147.196417,0.82155 -155.56552,-6.4e-4 z m 156.13593,-24.04089 c 13.50635,-2.13973 25.90768,-13.26357 29.39724,-26.36899 0.78315,-2.94109 0.96694,-16.10394 0.97375,-69.73133 0.008,-58.751585 -0.11829,-66.532783 -1.13015,-69.943222 -3.4589,-11.657886 -11.98306,-20.595023 -23.66902,-24.815609 -4.51209,-1.629639 -4.51209,-1.629639 -82.9333,-1.629639 -78.421206,0 -78.421206,0 -83.451493,1.582056 -12.266836,3.858022 -21.682905,13.953424 -24.614494,26.390347 -1.597532,6.777327 -1.597532,130.151597 0,136.928917 3.394635,14.40133 14.949081,25.09014 29.830869,27.59599 5.144885,0.8663 150.124608,0.85837 155.596598,-0.008 z M 55.071776,179.50932 c -1.184993,-0.51616 -3.004699,-1.94884 -4.043791,-3.18371 -5.262738,-6.25442 -3.32503,-15.16626 4.023284,-18.5037 2.74558,-1.24697 6.364217,-1.30927 76.710501,-1.32029 51.4579,-0.008 74.67523,0.22349 76.62179,0.76381 8.15867,2.2651 11.13546,12.39246 5.58242,18.9919 -3.80548,4.52254 1.47735,4.24841 -81.28599,4.21808 -61.136068,-0.0214 -75.862527,-0.20561 -77.608214,-0.96609 z m -0.431135,-48.47647 c -6.963563,-3.67875 -8.745336,-12.31519 -3.762456,-18.23701 3.890173,-4.6232 -1.113724,-4.35548 81.409105,-4.35548 74.84744,0 74.84744,0 77.92391,1.62686 3.60627,1.90705 6.33026,6.37519 6.33026,10.38357 0,4.00839 -2.72399,8.47656 -6.33026,10.38361 -3.07647,1.62686 -3.07647,1.62686 -78.03068,1.59564 -72.699159,-0.0302 -75.032029,-0.0724 -77.539879,-1.39719 z m 2.191135,-47.276878 c -6.387796,-1.96107 -10.023555,-8.19122 -8.379459,-14.35888 0.842045,-3.15885 4.111662,-7.09314 6.827843,-8.215853 1.423952,-0.588598 22.357485,-0.754126 78.01959,-0.616956 75.93683,0.187183 76.07701,0.19012 78.06796,1.665469 3.44534,2.55303 5.17375,5.77586 5.17375,9.64707 0,4.61928 -1.70277,8.00777 -5.18069,10.30956 -2.84035,1.87981 -2.84035,1.87981 -77.78092,2.00214 -41.217325,0.0673 -75.753949,-0.12737 -76.748074,-0.43255 z"
       id="path849" />
  </g>
</svg>
