<?xml version="1.0" encoding="UTF-8" standalone="no"?>
<svg
   xmlns:dc="http://purl.org/dc/elements/1.1/"
   xmlns:cc="http://creativecommons.org/ns#"
   xmlns:rdf="http://www.w3.org/1999/02/22-rdf-syntax-ns#"
   xmlns:svg="http://www.w3.org/2000/svg"
   xmlns="http://www.w3.org/2000/svg"
   xmlns:sodipodi="http://sodipodi.sourceforge.net/DTD/sodipodi-0.dtd"
   xmlns:inkscape="http://www.inkscape.org/namespaces/inkscape"
   width="1000"
   height="1000"
   viewBox="0 0 264.58333 264.58333"
   version="1.1"
   id="svg869"
   inkscape:version="1.0.2-2 (e86c870879, 2021-01-15)"
   sodipodi:docname="Telegram.svg">
  <defs
     id="defs863" />
  <sodipodi:namedview
     id="base"
     pagecolor="#ffffff"
     bordercolor="#666666"
     borderopacity="1.0"
     inkscape:pageopacity="0.0"
     inkscape:pageshadow="2"
     inkscape:zoom="0.40787938"
     inkscape:cx="400"
     inkscape:cy="560"
     inkscape:document-units="mm"
     inkscape:current-layer="layer1"
     inkscape:document-rotation="0"
     showgrid="false"
     units="px"
     inkscape:window-width="2558"
     inkscape:window-height="1368"
     inkscape:window-x="3241"
     inkscape:window-y="1442"
     inkscape:window-maximized="0" />
  <metadata
     id="metadata866">
    <rdf:RDF>
      <cc:Work
         rdf:about="">
        <dc:format>image/svg+xml</dc:format>
        <dc:type
           rdf:resource="http://purl.org/dc/dcmitype/StillImage" />
        <dc:title></dc:title>
      </cc:Work>
    </rdf:RDF>
  </metadata>
  <g
     inkscape:label="Layer 1"
     inkscape:groupmode="layer"
     id="layer1">
    <path
       style="fill:#1e96c8;fill-opacity:1;stroke-width:0.198401"
       d="M 124.56308,264.39473 C 101.12932,263.00342 78.188639,255.28388 58.739439,242.24507 37.350919,227.90616 20.756539,207.89148 10.632519,184.22282 -3.5470208,151.07281 -3.5439908,113.46555 10.640519,80.268663 22.968759,51.416967 45.015929,27.97576 72.987459,13.979564 88.553819,6.1905802 104.11605,1.8485172 122.18229,0.25356623 c 4.32915,-0.382192 16.83556,-0.320559 21.42356,0.105578 14.42859,1.34013997 27.76951,4.68419197 40.66507,10.19314977 41.50571,17.731148 71.05814,55.349216 78.53753,99.972506 1.96026,11.69521 2.30434,24.20551 0.99457,36.15991 -4.06579,37.10843 -23.6226,70.78083 -53.85503,92.72611 -22.68661,16.4679 -50.26805,25.34048 -78.24412,25.1701 -2.45478,-0.0149 -5.66831,-0.0987 -7.14118,-0.18619 z m 46.79664,-63.6908 c 3.32327,-0.53941 5.74718,-2.94044 7.13805,-7.07066 0.64712,-1.92162 14.56033,-89.99011 16.17108,-102.360426 0.90279,-6.933222 0.87134,-8.732649 -0.18918,-10.826269 -1.07576,-2.123681 -2.98738,-3.068745 -6.14184,-3.0364 -3.3879,0.03474 -2.50102,-0.285084 -24.69659,8.906018 -5.18233,2.145979 -11.69866,4.867265 -14.48074,6.047296 -2.78209,1.180038 -25.14293,10.422851 -49.690751,20.539591 -52.28665,21.54856 -47.03326,19.35134 -48.94548,20.47144 -2.03157,1.19003 -3.37678,2.42846 -4.00276,3.68511 -0.64659,1.29805 -0.6461,2.18813 0.002,3.4891 0.98774,1.98287 1.05955,2.01706 11.22744,5.34731 15.36292,5.03177 17.86995,5.75643 21.49406,6.21275 3.7177,0.46812 8.29331,-0.0226 10.85822,-1.16449 0.46028,-0.20488 13.200021,-8.70849 28.310571,-18.89686 15.11055,-10.18838 28.4328,-19.13478 29.60501,-19.88089 5.32381,-3.38858 9.07038,-4.75956 10.42083,-3.81332 0.9835,0.68911 0.37902,2.97701 -1.55546,5.88727 -1.46626,2.20584 -17.87563,18.13032 -37.00445,35.911 -4.09596,3.80728 -7.01273,6.67377 -7.39125,7.26389 -1.9918,3.10506 -1.53099,6.12461 1.37311,8.99793 2.37413,2.34893 11.04895,8.65276 22.10762,16.06517 15.64124,10.484 20.47676,13.59583 23.48714,15.11477 3.93441,1.98517 7.27633,3.05021 10.3343,3.29339 0.16366,0.0131 0.86977,-0.0692 1.56914,-0.18272 z"
       id="path887" />
    <path
       style="fill:#000000;stroke-width:0.264583"
       id="path885"
       d="" />
  </g>
</svg>
