<?xml version="1.0" encoding="UTF-8" standalone="no"?>
<svg
   xmlns:dc="http://purl.org/dc/elements/1.1/"
   xmlns:cc="http://creativecommons.org/ns#"
   xmlns:rdf="http://www.w3.org/1999/02/22-rdf-syntax-ns#"
   xmlns:svg="http://www.w3.org/2000/svg"
   xmlns="http://www.w3.org/2000/svg"
   xmlns:sodipodi="http://sodipodi.sourceforge.net/DTD/sodipodi-0.dtd"
   xmlns:inkscape="http://www.inkscape.org/namespaces/inkscape"
   width="1000"
   height="881.82703"
   viewBox="0 0 264.58 233.31379"
   version="1.1"
   id="svg8"
   inkscape:version="1.0.2-2 (e86c870879, 2021-01-15)"
   sodipodi:docname="TwitchHeartWhite.svg">
  <defs
     id="defs2" />
  <sodipodi:namedview
     id="base"
     pagecolor="#ffffff"
     bordercolor="#666666"
     borderopacity="1.0"
     inkscape:pageopacity="0.0"
     inkscape:pageshadow="2"
     inkscape:zoom="0.26923975"
     inkscape:cx="269.77108"
     inkscape:cy="187.31813"
     inkscape:document-units="px"
     inkscape:current-layer="layer1"
     inkscape:document-rotation="0"
     showgrid="false"
     units="px"
     inkscape:window-width="2203"
     inkscape:window-height="1243"
     inkscape:window-x="1989"
     inkscape:window-y="1506"
     inkscape:window-maximized="0"
     inkscape:pagecheckerboard="true" />
  <metadata
     id="metadata5">
    <rdf:RDF>
      <cc:Work
         rdf:about="">
        <dc:format>image/svg+xml</dc:format>
        <dc:type
           rdf:resource="http://purl.org/dc/dcmitype/StillImage" />
        <dc:title></dc:title>
      </cc:Work>
    </rdf:RDF>
  </metadata>
  <g
     inkscape:label="Layer 1"
     inkscape:groupmode="layer"
     id="layer1">
    <g
       id="g847"
       transform="matrix(1.1845793,0,0,1.1845793,19.372035,-32.120888)"
       style="fill:#ffffff">
      <path
         style="fill:#ffffff;stroke-width:0.264583"
         d="m 87.200488,217.11147 c -3.998425,-3.83132 -17.641305,-17.31515 -30.317505,-29.96406 -63.6148861,-63.47792 -67.250801,-67.78513 -71.530484,-84.73696 -1.454226,-5.760206 -1.707214,-7.865427 -1.70601,-14.196477 0.0012,-6.580603 0.473395,-10.114003 2.112908,-15.812445 6.5099402,-22.626561 26.10269,-40.478938 49.059768,-44.70192 2.49574,-0.459094 4.136641,-0.563725 9.128125,-0.582047 6.212165,-0.0228 8.37489,0.173656 13.361458,1.213739 7.949355,1.658051 15.872253,4.894537 22.313963,9.1152 3.681584,2.412207 5.635847,4.023929 10.650532,8.783725 2.40376,2.281582 4.478747,4.186576 4.611084,4.23332 0.132334,0.04674 2.179701,-1.724162 4.549703,-3.935351 5.24934,-4.897581 7.58911,-6.805279 11.71742,-9.553633 9.73424,-6.48039 20.59574,-9.747047 32.40856,-9.747047 10.35243,0 20.86799,2.229938 28.71019,6.088306 14.46039,7.114524 26.44817,20.922951 31.60493,36.404963 2.31278,6.943616 3.43755,14.631887 3.05386,20.87444 -0.34016,5.534197 -2.05947,14.032787 -3.74687,18.520837 -1.42345,3.78599 -3.30972,7.11136 -6.52854,11.50937 -6.67927,9.12617 -17.16235,20.12013 -58.15674,60.99094 -29.93212,29.84189 -42.896781,42.46114 -43.623351,42.46114 -0.221726,0 -3.674575,-3.13472 -7.673001,-6.96604 z m 38.658462,-60.70114 c 16.65156,-16.69852 32.23985,-32.44453 34.64064,-34.99115 13.11982,-13.9167 17.1903,-19.78676 18.43873,-26.590624 0.47636,-2.596145 0.3088,-9.638318 -0.31477,-13.229167 -1.24549,-7.172203 -4.37276,-13.344739 -9.26095,-18.279067 -5.80624,-5.861045 -12.67307,-8.938059 -21.56176,-9.66179 -6.49193,-0.528585 -11.24307,0.244536 -16.30111,2.652564 -5.71345,2.720057 -9.58522,5.893486 -22.24917,18.236137 -10.047876,9.792949 -13.778446,13.269865 -14.237947,13.269865 -0.410692,0 -5.219071,-4.350084 -11.86338,-10.732657 C 72.2942,66.657014 67.841781,62.679654 62.600414,58.728123 57.674849,55.014678 53.751208,53.710464 46.857706,53.495268 c -4.948938,-0.154493 -7.71594,0.2256 -11.946286,1.641015 -9.653392,3.229888 -17.560435,10.30346 -21.299979,19.054773 -2.778819,6.503016 -3.350665,15.944461 -1.425091,23.52892 1.206428,4.751884 2.080942,6.023684 10.565145,15.364834 2.511248,2.76489 7.049675,7.64645 10.085388,10.84791 5.709375,6.0211 62.297086,62.83854 62.584461,62.83854 0.08913,0 13.786056,-13.66242 30.437606,-30.36093 z"
         id="path857" />
    </g>
  </g>
</svg>
