<?xml version="1.0" encoding="UTF-8" standalone="no"?>
<svg
   width="1200"
   height="1200"
   viewBox="0 0 317.5 317.50001"
   version="1.1"
   id="svg1289"
   inkscape:version="1.2.2 (732a01da63, 2022-12-09)"
   sodipodi:docname="VidiacPlayButton2DLogo.svg"
   inkscape:export-filename="VidiacPlayButton2DLogo.png"
   inkscape:export-xdpi="96"
   inkscape:export-ydpi="96"
   xmlns:inkscape="http://www.inkscape.org/namespaces/inkscape"
   xmlns:sodipodi="http://sodipodi.sourceforge.net/DTD/sodipodi-0.dtd"
   xmlns="http://www.w3.org/2000/svg"
   xmlns:svg="http://www.w3.org/2000/svg"
   xmlns:rdf="http://www.w3.org/1999/02/22-rdf-syntax-ns#"
   xmlns:cc="http://creativecommons.org/ns#"
   xmlns:dc="http://purl.org/dc/elements/1.1/">
  <defs
     id="defs1283">
    <filter
       inkscape:collect="always"
       style="color-interpolation-filters:sRGB"
       id="filter970-5-4"
       x="-0.00021565525"
       width="1.0004313"
       y="-0.00022546039"
       height="1.0004509">
      <feGaussianBlur
         inkscape:collect="always"
         stdDeviation="0.0060947007"
         id="feGaussianBlur972-4-2" />
    </filter>
    <filter
       inkscape:collect="always"
       style="color-interpolation-filters:sRGB"
       id="filter970-5-3"
       x="-9.9965233e-05"
       width="1.0001999"
       y="-9.4101803e-05"
       height="1.0001882">
      <feGaussianBlur
         inkscape:collect="always"
         stdDeviation="0.0060947007"
         id="feGaussianBlur972-4-0" />
    </filter>
    <filter
       inkscape:collect="always"
       style="color-interpolation-filters:sRGB"
       id="filter970-5"
       x="-0.00021565525"
       width="1.0004313"
       y="-0.00022546039"
       height="1.0004509">
      <feGaussianBlur
         inkscape:collect="always"
         stdDeviation="0.0060947007"
         id="feGaussianBlur972-4" />
    </filter>
    <filter
       inkscape:collect="always"
       style="color-interpolation-filters:sRGB"
       id="filter970-9"
       x="-0.0003685606"
       width="1.0007371"
       y="-0.00037488134"
       height="1.0007498">
      <feGaussianBlur
         inkscape:collect="always"
         stdDeviation="0.0060947007"
         id="feGaussianBlur972-9" />
    </filter>
  </defs>
  <sodipodi:namedview
     id="base"
     pagecolor="#ffffff"
     bordercolor="#666666"
     borderopacity="1.0"
     inkscape:pageopacity="0.0"
     inkscape:pageshadow="2"
     inkscape:zoom="0.54441856"
     inkscape:cx="830.24355"
     inkscape:cy="483.08419"
     inkscape:document-units="px"
     inkscape:current-layer="layer6"
     inkscape:document-rotation="0"
     showgrid="false"
     units="px"
     inkscape:window-width="1904"
     inkscape:window-height="1041"
     inkscape:window-x="0"
     inkscape:window-y="0"
     inkscape:window-maximized="0"
     inkscape:pagecheckerboard="true"
     inkscape:showpageshadow="0"
     inkscape:deskcolor="#d1d1d1" />
  <metadata
     id="metadata1286">
    <rdf:RDF>
      <cc:Work
         rdf:about="">
        <dc:format>image/svg+xml</dc:format>
        <dc:type
           rdf:resource="http://purl.org/dc/dcmitype/StillImage" />
        <dc:title />
      </cc:Work>
    </rdf:RDF>
  </metadata>
  <g
     inkscape:groupmode="layer"
     id="layer6"
     inkscape:label="Background">
    <ellipse
       style="fill:#fffff8;fill-opacity:0;stroke:#ffffff;stroke-width:0.662089;stroke-opacity:0"
       id="path1948"
       cx="158.74998"
       cy="158.75"
       rx="158.41895"
       ry="158.41896"
       inkscape:export-xdpi="96"
       inkscape:export-ydpi="96" />
    <circle
       style="fill:#ffffff;stroke-width:0.264583"
       id="path304"
       cx="158.75"
       cy="158.75"
       r="158.75" />
  </g>
  <g
     inkscape:label="Layer 1"
     inkscape:groupmode="layer"
     id="layer1">
    <path
       style="fill:#002040;fill-opacity:1;stroke-width:0.10214;filter:url(#filter970-5-4)"
       d="m 771.65765,543.14197 c -5.7895,-0.313 -11.6137,-2.3056 -16.4817,-5.6389 -3.285,-2.2494 -6.3923,-5.3893 -8.612,-8.7026 -2.0693,-3.0892 -3.5673,-6.46024 -4.4703,-10.06094 -0.7505,-2.9922 -0.9912,-4.91925 -0.9947,-7.96695 0,-5.15987 1.0795,-9.8302 3.3595,-14.45457 3.7822,-7.67055 10.7615,-13.74133 18.8237,-16.37315 3.3773,-1.10243 5.8408,-1.52658 9.397,-1.61795 2.8893,-0.0742 5.4905,0.1658 7.9415,0.73287 0.2243,0.0519 0.2298,0.0859 0.2298,1.43363 v 1.38047 l -0.5363,-0.0801 c -0.295,-0.0441 -1.8232,-0.0772 -3.3962,-0.0735 -3.1155,0.007 -4.0503,0.11177 -6.7283,0.75302 -8.9497,2.14303 -16.5162,8.76398 -19.909,17.4214 -1.623,4.14135 -2.1485,6.70628 -2.1445,10.4694 0,2.98858 0.3815,5.25398 1.4753,8.83423 1.3605,4.4541 4.1047,8.86744 7.557,12.15314 0.7757,0.7384 1.6772,1.491 3.1007,2.5888 0.056,0.043 0.5763,0.3911 1.1555,0.7727 2.728,1.7967 6.2623,3.2698 9.4223,3.9271 2.1017,0.4372 2.5942,0.5074 4.5115,0.6437 4.9657,0.3528 10.331,-0.7878 15.09321,-3.2087 0.9538,-0.4849 1.0835,-0.5611 2.3493,-1.3818 5.6967,-3.694 10.1387,-9.6397 11.957,-16.00474 0.5082,-1.7795 0.8617,-3.97673 0.9115,-4.643 0.015,-0.18355 0.317,-3.20908 0.3347,-3.46083 0.01,-0.0767 0.023,-0.3129 0.1288,-0.2831 0.1105,0.0312 -0.2138,3.5172 -0.359,4.6618 -0.9488,8.15933 -4.8178,14.90087 -11.192,20.47787 -0.165,0.1443 -0.7368,0.5982 -1.2703,1.0085 -6.20971,4.774 -13.79171,7.1174 -21.65401,6.6923 z m 0.9705,-9.3493 c -1.4607,-0.2134 -2.3875,-0.3706 -3.0025,-0.5096 l -0.7257,-0.1638 v -5.7599 c 0,-3.1679 -0.027,-5.75984 -0.06,-5.75984 -0.065,0 -1.8648,1.3807 -2.599,1.9941 l -0.4568,0.3815 -0.051,4.01934 -0.051,4.0193 -1.1237,-0.5425 c -2.01,-0.9707 -4.0913,-2.3556 -5.7015,-3.7939 -1.1778,-1.0521 -2.1633,-2.0649 -2.1633,-2.2235 0,-0.132 0.2085,-0.2911 3.3778,-2.57764 1.1677,-0.8427 3.5847,-2.5893 5.371,-3.8813 1.7862,-1.2921 4.662,-3.37097 6.391,-4.6197 1.7287,-1.24872 3.5055,-2.53355 3.948,-2.85515 l 0.8042,-0.5847 0.4725,0.51155 c 0.2598,0.28138 1.2075,1.3345 2.1065,2.3403 2.8435,3.18208 3.439,3.8288 3.525,3.8288 0.046,0 2.696,-1.9634 5.88881,-4.36305 3.1927,-2.39967 6.9657,-5.23145 8.3842,-6.29282 1.6505,-1.23505 3.64536,-2.77819 3.64536,-2.89242 l -2.18986,-2.94503 c 0,-0.0682 0.5908,-0.18285 1.5065,-0.29255 0.8285,-0.0992 2.4718,-0.29488 3.6515,-0.4347 1.1798,-0.13985 2.8535,-0.3443 3.7195,-0.45435 0.8658,-0.11005 1.597,-0.17738 1.6248,-0.14963 0.028,0.0278 -0.051,0.3611 -0.1755,0.74073 -0.1245,0.37965 -0.467,1.44865 -0.7615,2.37557 -1.5173,4.77535 -1.961,6.12578 -2.014,6.12703 -0.032,0 -0.6028,-0.54765 -1.2683,-1.2187 -0.9415,-0.94888 -1.2462,-1.19998 -1.372,-1.12963 l -11.0395,10.37395 v 3.8248 5.49824 l -0.8937,0.8341 c -1.7918,1.6721 -4.15531,3.2801 -6.36351,4.3295 -1.237,0.5879 -2.4785,1.0836 -2.7135,1.0836 -0.1183,0 -0.1413,-0.8161 -0.1413,-5.0062 v -5.00624 l -1.5575,-1.0324 -1.5577,-1.0323 -0.051,6.47274 -0.051,6.4726 -0.715,0.1342 c -0.6935,0.1301 -4.985,0.252 -5.6178,0.1596 z"
       id="path1726-7-6-0-52-256-9-1-3-28-8-4-0-7"
       sodipodi:nodetypes="sssssssssscsssscsssssssssssscssssscssscccssssssscssssssccsssssssscccsssscccccssss"
       transform="matrix(3.8855686,0,0,3.9523773,-2852.1004,-1855.8613)"
       inkscape:export-xdpi="96"
       inkscape:export-ydpi="96" />
    <g
       id="g1734-3-229-6-7-30-66-0-0-26-9-7-9-3"
       transform="matrix(1.499995,0,0,1.525786,-647.02022,-518.27349)"
       style="fill:#00402b;fill-opacity:1;filter:url(#filter970-5-3)"
       inkscape:export-xdpi="96"
       inkscape:export-ydpi="96">
      <path
         style="fill:#00402b;fill-opacity:1;stroke-width:0.264583"
         d="m 537.66106,514.38505 c -24.03855,-1.44768 -45.12606,-13.38433 -57.947,-32.80107 -2.25495,-3.41502 -4.78668,-8.23157 -6.08015,-11.5673 -1.28611,-3.13141 -2.10125,-5.3831 -2.79081,-8.01187 -1.09165,-4.7282 -1.27777,-6.06046 -1.47625,-8.64975 -0.008,-0.99071 -0.36608,-4.28671 -0.3429,-7.41564 0.0503,-6.78687 0.13386,-8.81743 1.14341,-14.07686 0.48302,-1.86745 1.5038,-6.41631 2.11231,-8.13516 1.48614,-4.77581 2.61277,-6.81552 3.9894,-9.5127 5.80418,-11.53625 16.53196,-22.46801 29.08931,-29.43471 13.75224,-7.62961 31.58656,-10.90155 46.92092,-8.60826 l 1.12447,0.16817 v 3.11622 3.11623 l -2.20048,-0.49032 c -7.88162,-1.75619 -17.10627,-1.93283 -25.56539,-0.48954 -24.90111,4.24863 -44.91597,21.67806 -52.23476,45.48732 -1.85283,6.02758 -2.63145,11.45479 -2.63812,18.38854 -0.007,7.31176 0.90416,13.06739 3.15566,19.93292 1.35244,4.12404 4.5952,10.88772 6.9722,14.54249 12.57949,19.34167 35.11566,30.97622 58.35569,30.12678 19.42568,-0.71003 36.88366,-9.12975 49.191,-23.72406 3.78349,-4.48654 5.87486,-7.72951 8.61673,-13.36146 3.93785,-8.08856 5.9133,-15.93983 6.42297,-25.52754 0.0624,-1.17319 0.0956,-1.21203 3.10575,-3.63119 1.67349,-1.34493 3.50571,-2.7737 4.07161,-3.17504 l 1.0289,-0.72971 1.83052,1.97965 1.83051,1.97966 -0.16055,3.04271 c -0.34627,6.56237 -1.11219,11.34501 -2.68418,16.7608 -5.26145,18.1267 -18.43202,33.69363 -36.05684,42.61732 -11.98065,6.06597 -25.49882,8.88344 -38.78392,8.08337 z M 488.05168,451.04969 V 420.4655 h 13.0937 13.0937 l 0.0693,20.72323 c 0.0381,11.39778 0.0346,20.90343 -0.008,21.12366 -0.0425,0.22023 -1.22009,1.22344 -2.61688,2.22937 -3.16918,2.28235 -5.60224,4.04305 -14.1069,10.20857 -3.71078,2.69017 -7.37195,5.33949 -8.13594,5.88738 l -1.38906,0.99617 v -30.58419 z m 69.63732,7.43706 -0.84565,-0.87249 v -49.26852 -49.26851 l 13.16302,0.0686 13.16302,0.0686 0.067,40.76507 0.067,40.76508 -0.59615,0.53812 c -0.74176,0.66958 -23.91418,18.07652 -24.06376,18.07652 -0.0598,0 -0.48933,-0.39262 -0.95444,-0.8725 z m -35.17638,-34.56206 0.0672,-32.85524 12.96459,0.0129 c 7.13052,0.007 13.05388,0.0133 13.16302,0.0137 0.10914,3.9e-4 0.19843,12.85946 0.19843,28.57571 0,17.38275 -0.0961,28.575 -0.24538,28.575 -0.13495,0 -0.49166,-0.3131 -0.79267,-0.69577 -0.30101,-0.38268 -1.14067,-1.33914 -1.8659,-2.12549 -0.72524,-0.78634 -1.69815,-1.90199 -2.16203,-2.47923 -0.46388,-0.57723 -0.98132,-1.04951 -1.14989,-1.04951 -0.16856,0 -0.59511,0.30879 -0.9479,0.6862 -0.52558,0.56227 -9.37249,7.14197 -11.52868,8.57421 -0.58743,0.3902 -6.78753,4.86433 -7.43619,5.36612 -0.26564,0.2055 -0.31837,-6.29156 -0.26458,-32.59859 z m 73.29747,-8.53071 c -1.83232,-3.61419 -5.31337,-8.676 -8.20767,-11.93483 l -1.12574,-1.26753 v -6.07658 c 0,-3.34212 0.076,-6.07659 0.16888,-6.07659 0.0929,0 1.07207,0.68461 2.17596,1.52136 3.11794,2.36338 9.96375,9.33785 12.53063,12.76614 3.25119,4.34224 7.4271,11.38771 7.00172,11.81309 -0.18225,0.18225 -4.65724,0.77491 -9.70636,1.2855 l -1.71979,0.17391 z m 15.00108,-2.53521 c -4.72168,-9.8618 -12.9952,-20.0368 -21.59631,-26.55971 l -2.60589,-1.97626 -0.0769,-2.16925 c -0.0423,-1.19309 0.002,-2.16926 0.098,-2.16926 0.34753,0 5.33102,4.49216 7.96106,7.17615 7.28604,7.43553 12.73898,15.47263 17.00668,25.06618 1.46405,3.29109 1.51502,3.47642 0.95615,3.47642 -0.22356,0 -0.94381,-1.17545 -1.74282,-2.84427 z"
         id="path1740-5-22-0-19-95-3-6-7-31-9-5-5-1"
         sodipodi:nodetypes="sscccscccsscccsssssssssssscccsssssccccssssscccccccccccsssccccssssssssssscsscsssssscssscsssssss" />
    </g>
    <path
       style="fill:#0053a5;fill-opacity:1;stroke-width:0.10214;filter:url(#filter970-5)"
       d="m 771.39307,542.34831 c -5.7895,-0.313 -11.6137,-2.3056 -16.4817,-5.6389 -3.285,-2.2494 -6.3923,-5.3893 -8.612,-8.7026 -2.0693,-3.0892 -3.5673,-6.46024 -4.4703,-10.06094 -0.7505,-2.9922 -0.9912,-4.91925 -0.9947,-7.96695 0,-5.15987 1.0795,-9.8302 3.3595,-14.45457 3.7822,-7.67055 10.7615,-13.74133 18.8237,-16.37315 3.3773,-1.10243 5.8408,-1.52658 9.397,-1.61795 2.8893,-0.0742 5.4905,0.1658 7.9415,0.73287 0.2243,0.0519 0.2298,0.0859 0.2298,1.43363 v 1.38047 l -0.5363,-0.0801 c -0.295,-0.0441 -1.8232,-0.0772 -3.3962,-0.0735 -3.1155,0.007 -4.0503,0.11177 -6.7283,0.75302 -8.9497,2.14303 -16.5162,8.76398 -19.909,17.4214 -1.623,4.14135 -2.1485,6.70628 -2.1445,10.4694 0,2.98858 0.3815,5.25398 1.4753,8.83423 1.3605,4.4541 4.1047,8.86744 7.557,12.15314 0.7757,0.7384 1.6772,1.491 3.1007,2.5888 0.056,0.043 0.5763,0.3911 1.1555,0.7727 2.728,1.7967 6.2623,3.2698 9.4223,3.9271 2.1017,0.4372 2.5942,0.5074 4.5115,0.6437 4.9657,0.3528 10.331,-0.7878 15.09321,-3.2087 0.9538,-0.4849 1.0835,-0.5611 2.3493,-1.3818 5.6967,-3.694 10.1387,-9.6397 11.957,-16.00474 0.5082,-1.7795 0.8617,-3.97673 0.9115,-4.643 0.015,-0.18355 0.317,-3.20908 0.3347,-3.46083 0.01,-0.0767 0.023,-0.3129 0.1288,-0.2831 0.1105,0.0312 -0.2138,3.5172 -0.359,4.6618 -0.9488,8.15933 -4.8178,14.90087 -11.192,20.47787 -0.165,0.1443 -0.7368,0.5982 -1.2703,1.0085 -6.20971,4.774 -13.79171,7.1174 -21.65401,6.6923 z m 0.9705,-9.3493 c -1.4607,-0.2134 -2.3875,-0.3706 -3.0025,-0.5096 l -0.7257,-0.1638 v -5.7599 c 0,-3.1679 -0.027,-5.75984 -0.06,-5.75984 -0.065,0 -1.8648,1.3807 -2.599,1.9941 l -0.4568,0.3815 -0.051,4.01934 -0.051,4.0193 -1.1237,-0.5425 c -2.01,-0.9707 -4.0913,-2.3556 -5.7015,-3.7939 -1.1778,-1.0521 -2.1633,-2.0649 -2.1633,-2.2235 0,-0.132 0.2085,-0.2911 3.3778,-2.57764 1.1677,-0.8427 3.5847,-2.5893 5.371,-3.8813 1.7862,-1.2921 4.662,-3.37097 6.391,-4.6197 1.7287,-1.24872 3.5055,-2.53355 3.948,-2.85515 l 0.8042,-0.5847 0.4725,0.51155 c 0.2598,0.28138 1.2075,1.3345 2.1065,2.3403 2.8435,3.18208 3.439,3.8288 3.525,3.8288 0.046,0 2.696,-1.9634 5.88881,-4.36305 3.1927,-2.39967 6.9657,-5.23145 8.3842,-6.29282 1.6505,-1.23505 3.64536,-2.77819 3.64536,-2.89242 l -2.18986,-2.94503 c 0,-0.0682 0.5908,-0.18285 1.5065,-0.29255 0.8285,-0.0992 2.4718,-0.29488 3.6515,-0.4347 1.1798,-0.13985 2.8535,-0.3443 3.7195,-0.45435 0.8658,-0.11005 1.597,-0.17738 1.6248,-0.14963 0.028,0.0278 -0.051,0.3611 -0.1755,0.74073 -0.1245,0.37965 -0.467,1.44865 -0.7615,2.37557 -1.5173,4.77535 -1.961,6.12578 -2.014,6.12703 -0.032,0 -0.6028,-0.54765 -1.2683,-1.2187 -0.9415,-0.94888 -1.2462,-1.19998 -1.372,-1.12963 l -11.0395,10.37395 v 3.8248 5.49824 l -0.8937,0.8341 c -1.7918,1.6721 -4.15531,3.2801 -6.36351,4.3295 -1.237,0.5879 -2.4785,1.0836 -2.7135,1.0836 -0.1183,0 -0.1413,-0.8161 -0.1413,-5.0062 v -5.00624 l -1.5575,-1.0324 -1.5577,-1.0323 -0.051,6.47274 -0.051,6.4726 -0.715,0.1342 c -0.6935,0.1301 -4.985,0.252 -5.6178,0.1596 z"
       id="path1726-7-6-0-52-256-9-1-3-28-8-4-0"
       sodipodi:nodetypes="sssssssssscsssscsssssssssssscssssscssscccssssssscssssssccsssssssscccsssscccccssss"
       transform="matrix(3.8855686,0,0,3.9523773,-2852.1004,-1855.8613)"
       inkscape:export-xdpi="96"
       inkscape:export-ydpi="96" />
    <g
       id="g1734-3-229-6-7-30-66-0-0-26-9-7-9"
       transform="matrix(1.499995,0,0,1.525786,-648.04819,-521.41069)"
       style="fill:#00be81;fill-opacity:1;filter:url(#filter970-5)"
       inkscape:export-xdpi="96"
       inkscape:export-ydpi="96">
      <path
         style="fill:#00be81;fill-opacity:1;stroke-width:0.264583"
         d="m 537.66106,514.38505 c -24.03855,-1.44768 -45.12606,-13.38433 -57.947,-32.80107 -2.25495,-3.41502 -4.78668,-8.23157 -6.08015,-11.5673 -1.28611,-3.13141 -2.10125,-5.3831 -2.79081,-8.01187 -1.09165,-4.7282 -1.27777,-6.06046 -1.47625,-8.64975 -0.008,-0.99071 -0.36608,-4.28671 -0.3429,-7.41564 0.0503,-6.78687 0.13386,-8.81743 1.14341,-14.07686 0.48302,-1.86745 1.5038,-6.41631 2.11231,-8.13516 1.48614,-4.77581 2.61277,-6.81552 3.9894,-9.5127 5.80418,-11.53625 16.53196,-22.46801 29.08931,-29.43471 13.75224,-7.62961 31.58656,-10.90155 46.92092,-8.60826 l 1.12447,0.16817 v 3.11622 3.11623 l -2.20048,-0.49032 c -7.88162,-1.75619 -17.10627,-1.93283 -25.56539,-0.48954 -24.90111,4.24863 -44.91597,21.67806 -52.23476,45.48732 -1.85283,6.02758 -2.63145,11.45479 -2.63812,18.38854 -0.007,7.31176 0.90416,13.06739 3.15566,19.93292 1.35244,4.12404 4.5952,10.88772 6.9722,14.54249 12.57949,19.34167 35.11566,30.97622 58.35569,30.12678 19.42568,-0.71003 36.88366,-9.12975 49.191,-23.72406 3.78349,-4.48654 5.87486,-7.72951 8.61673,-13.36146 3.93785,-8.08856 5.9133,-15.93983 6.42297,-25.52754 0.0624,-1.17319 0.0956,-1.21203 3.10575,-3.63119 1.67349,-1.34493 3.50571,-2.7737 4.07161,-3.17504 l 1.0289,-0.72971 1.83052,1.97965 1.83051,1.97966 -0.16055,3.04271 c -0.34627,6.56237 -1.11219,11.34501 -2.68418,16.7608 -5.26145,18.1267 -18.43202,33.69363 -36.05684,42.61732 -11.98065,6.06597 -25.49882,8.88344 -38.78392,8.08337 z M 488.05168,451.04969 V 420.4655 h 13.0937 13.0937 l 0.0693,20.72323 c 0.0381,11.39778 0.0346,20.90343 -0.008,21.12366 -0.0425,0.22023 -1.22009,1.22344 -2.61688,2.22937 -3.16918,2.28235 -5.60224,4.04305 -14.1069,10.20857 -3.71078,2.69017 -7.37195,5.33949 -8.13594,5.88738 l -1.38906,0.99617 v -30.58419 z m 69.63732,7.43706 -0.84565,-0.87249 v -49.26852 -49.26851 l 13.16302,0.0686 13.16302,0.0686 0.067,40.76507 0.067,40.76508 -0.59615,0.53812 c -0.74176,0.66958 -23.91418,18.07652 -24.06376,18.07652 -0.0598,0 -0.48933,-0.39262 -0.95444,-0.8725 z m -35.17638,-34.56206 0.0672,-32.85524 12.96459,0.0129 c 7.13052,0.007 13.05388,0.0133 13.16302,0.0137 0.10914,3.9e-4 0.19843,12.85946 0.19843,28.57571 0,17.38275 -0.0961,28.575 -0.24538,28.575 -0.13495,0 -0.49166,-0.3131 -0.79267,-0.69577 -0.30101,-0.38268 -1.14067,-1.33914 -1.8659,-2.12549 -0.72524,-0.78634 -1.69815,-1.90199 -2.16203,-2.47923 -0.46388,-0.57723 -0.98132,-1.04951 -1.14989,-1.04951 -0.16856,0 -0.59511,0.30879 -0.9479,0.6862 -0.52558,0.56227 -9.37249,7.14197 -11.52868,8.57421 -0.58743,0.3902 -6.78753,4.86433 -7.43619,5.36612 -0.26564,0.2055 -0.31837,-6.29156 -0.26458,-32.59859 z m 73.29747,-8.53071 c -1.83232,-3.61419 -5.31337,-8.676 -8.20767,-11.93483 l -1.12574,-1.26753 v -6.07658 c 0,-3.34212 0.076,-6.07659 0.16888,-6.07659 0.0929,0 1.07207,0.68461 2.17596,1.52136 3.11794,2.36338 9.96375,9.33785 12.53063,12.76614 3.25119,4.34224 7.4271,11.38771 7.00172,11.81309 -0.18225,0.18225 -4.65724,0.77491 -9.70636,1.2855 l -1.71979,0.17391 z m 15.00108,-2.53521 c -4.72168,-9.8618 -12.9952,-20.0368 -21.59631,-26.55971 l -2.60589,-1.97626 -0.0769,-2.16925 c -0.0423,-1.19309 0.002,-2.16926 0.098,-2.16926 0.34753,0 5.33102,4.49216 7.96106,7.17615 7.28604,7.43553 12.73898,15.47263 17.00668,25.06618 1.46405,3.29109 1.51502,3.47642 0.95615,3.47642 -0.22356,0 -0.94381,-1.17545 -1.74282,-2.84427 z"
         id="path1740-5-22-0-19-95-3-6-7-31-9-5-5"
         sodipodi:nodetypes="sscccscccsscccsssssssssssscccsssssccccssssscccccccccccsssccccssssssssssscsscsssssscssscsssssss" />
    </g>
    <path
       style="fill:#040001;fill-opacity:1;stroke-width:0.102203;filter:url(#filter970-9)"
       d="m 548.55572,582.64622 c -1.22342,-0.38692 -2.05596,-1.19036 -2.48429,-2.39748 -0.15314,-0.43156 -0.17119,-1.92814 -0.19932,-16.52039 -0.0193,-9.99216 0.006,-16.28773 0.068,-16.68699 0.29546,-1.91574 1.62164,-3.16476 3.47412,-3.272 0.54287,-0.0314 0.9696,0.005 1.34867,0.11524 0.30499,0.0887 4.14135,1.93948 8.52525,4.11293 4.3839,2.17345 11.2821,5.5935 15.32933,7.60011 4.04724,2.00662 7.77253,3.85207 8.27843,4.101 1.20534,0.59311 2.17667,1.51797 2.46109,2.34337 0.29824,0.86548 0.25367,1.93456 -0.11283,2.70639 -0.51738,1.08957 -0.98044,1.42535 -4.07685,2.95621 -1.52258,0.75277 -5.84975,2.8967 -9.61592,4.76428 -17.09995,8.4796 -20.25248,10.02578 -20.73208,10.16821 -0.61531,0.18273 -1.70077,0.1871 -2.26356,0.009 z"
       id="path3140-4-9-1"
       sodipodi:nodetypes="sscccsssssssssss"
       transform="matrix(3.643654,0,0,3.7063034,-1892.7854,-1925.3754)"
       inkscape:export-xdpi="96"
       inkscape:export-ydpi="96" />
    <path
       style="fill:#ff0063;fill-opacity:1;stroke-width:0.102203;filter:url(#filter970-9)"
       d="m 548.30639,581.85247 c -1.22342,-0.38692 -2.05596,-1.19036 -2.48429,-2.39748 -0.15314,-0.43156 -0.17119,-1.92814 -0.19932,-16.52039 -0.0193,-9.99216 0.006,-16.28773 0.068,-16.68699 0.29546,-1.91574 1.62164,-3.16476 3.47412,-3.272 0.54287,-0.0314 0.9696,0.005 1.34867,0.11524 0.30499,0.0887 4.14135,1.93948 8.52525,4.11293 4.3839,2.17345 11.2821,5.5935 15.32933,7.60011 4.04724,2.00662 7.77253,3.85207 8.27843,4.101 1.20534,0.59311 2.17667,1.51797 2.46109,2.34337 0.29824,0.86548 0.25367,1.93456 -0.11283,2.70639 -0.51738,1.08957 -0.98044,1.42535 -4.07685,2.95621 -1.52258,0.75277 -5.84975,2.8967 -9.61592,4.76428 -17.09995,8.4796 -20.25248,10.02578 -20.73208,10.16821 -0.61531,0.18273 -1.70077,0.1871 -2.26356,0.009 z"
       id="path3140-4-9-5-8"
       sodipodi:nodetypes="sscccsssssssssss"
       transform="matrix(3.643654,0,0,3.7063034,-1892.7854,-1925.3754)"
       inkscape:export-xdpi="96"
       inkscape:export-ydpi="96" />
  </g>
</svg>
