<?xml version="1.0" encoding="UTF-8" standalone="no"?>
<svg
   xmlns:dc="http://purl.org/dc/elements/1.1/"
   xmlns:cc="http://creativecommons.org/ns#"
   xmlns:rdf="http://www.w3.org/1999/02/22-rdf-syntax-ns#"
   xmlns:svg="http://www.w3.org/2000/svg"
   xmlns="http://www.w3.org/2000/svg"
   xmlns:sodipodi="http://sodipodi.sourceforge.net/DTD/sodipodi-0.dtd"
   xmlns:inkscape="http://www.inkscape.org/namespaces/inkscape"
   width="700"
   height="700"
   viewBox="0 0 185.20833 185.20834"
   version="1.1"
   id="svg1289"
   inkscape:version="1.0.2-2 (e86c870879, 2021-01-15)"
   sodipodi:docname="VidiacPlayButtonBGWhite.svg"
   inkscape:export-filename="C:\Users\aaron\Dropbox\UPDeFi\Images\Vidiac\Vidiac Play Button 2D Logo.png"
   inkscape:export-xdpi="96"
   inkscape:export-ydpi="96">
  <defs
     id="defs1283">
    <filter
       inkscape:collect="always"
       style="color-interpolation-filters:sRGB"
       id="filter970-9"
       x="-1.5482748e-05"
       width="1.000031"
       y="-2.5266145e-05"
       height="1.0000505">
      <feGaussianBlur
         inkscape:collect="always"
         stdDeviation="0.0060947007"
         id="feGaussianBlur972-9" />
    </filter>
    <filter
       inkscape:collect="always"
       style="color-interpolation-filters:sRGB"
       id="filter970-9-5"
       x="-1.5482748e-05"
       width="1.000031"
       y="-2.5266145e-05"
       height="1.0000505">
      <feGaussianBlur
         inkscape:collect="always"
         stdDeviation="0.0060947007"
         id="feGaussianBlur972-9-6" />
    </filter>
  </defs>
  <sodipodi:namedview
     id="base"
     pagecolor="#ffffff"
     bordercolor="#666666"
     borderopacity="1.0"
     inkscape:pageopacity="0.0"
     inkscape:pageshadow="2"
     inkscape:zoom="1.0557584"
     inkscape:cx="592.18101"
     inkscape:cy="719.29704"
     inkscape:document-units="px"
     inkscape:current-layer="layer1"
     inkscape:document-rotation="0"
     showgrid="false"
     units="px"
     inkscape:window-width="2049"
     inkscape:window-height="1249"
     inkscape:window-x="3145"
     inkscape:window-y="1493"
     inkscape:window-maximized="0"
     inkscape:pagecheckerboard="true" />
  <metadata
     id="metadata1286">
    <rdf:RDF>
      <cc:Work
         rdf:about="">
        <dc:format>image/svg+xml</dc:format>
        <dc:type
           rdf:resource="http://purl.org/dc/dcmitype/StillImage" />
        <dc:title></dc:title>
      </cc:Work>
    </rdf:RDF>
  </metadata>
  <g
     inkscape:groupmode="layer"
     id="layer6"
     inkscape:label="Background">
    <ellipse
       style="fill:#fffff8;fill-opacity:0;stroke:#ffffff;stroke-width:0.662089;stroke-opacity:0"
       id="path1948"
       cx="158.74998"
       cy="158.75"
       rx="158.41895"
       ry="158.41896"
       inkscape:export-xdpi="96"
       inkscape:export-ydpi="96" />
  </g>
  <g
     inkscape:label="Layer 1"
     inkscape:groupmode="layer"
     id="layer1">
    <path
       style="fill:#ffffff;fill-opacity:1;stroke-width:0.102203;filter:url(#filter970-9-5)"
       d="m 548.30639,581.85247 c -1.22342,-0.38692 -2.05596,-1.19036 -2.48429,-2.39748 -0.15314,-0.43156 -0.17119,-1.92814 -0.19932,-16.52039 -0.0193,-9.99216 0.006,-16.28773 0.068,-16.68699 0.29546,-1.91574 1.62164,-3.16476 3.47412,-3.272 0.54287,-0.0314 0.9696,0.005 1.34867,0.11524 0.30499,0.0887 4.14135,1.93948 8.52525,4.11293 4.3839,2.17345 11.2821,5.5935 15.32933,7.60011 4.04724,2.00662 7.77253,3.85207 8.27843,4.101 1.20534,0.59311 2.17667,1.51797 2.46109,2.34337 0.29824,0.86548 0.25367,1.93456 -0.11283,2.70639 -0.51738,1.08957 -0.98044,1.42535 -4.07685,2.95621 -1.52258,0.75277 -5.84975,2.8967 -9.61592,4.76428 -17.09995,8.4796 -20.25248,10.02578 -20.73208,10.16821 -0.61531,0.18273 -1.70077,0.1871 -2.26356,0.009 z"
       id="path3140-4-9-5-8-8"
       sodipodi:nodetypes="sscccsssssssssss"
       transform="matrix(4.6665117,0,0,4.7464486,-2546.1226,-2577.1497)"
       inkscape:export-xdpi="96"
       inkscape:export-ydpi="96" />
    <path
       style="fill:#ff0063;fill-opacity:0.69999999;stroke-width:0.102203;filter:url(#filter970-9)"
       d="m 548.30639,581.85247 c -1.22342,-0.38692 -2.05596,-1.19036 -2.48429,-2.39748 -0.15314,-0.43156 -0.17119,-1.92814 -0.19932,-16.52039 -0.0193,-9.99216 0.006,-16.28773 0.068,-16.68699 0.29546,-1.91574 1.62164,-3.16476 3.47412,-3.272 0.54287,-0.0314 0.9696,0.005 1.34867,0.11524 0.30499,0.0887 4.14135,1.93948 8.52525,4.11293 4.3839,2.17345 11.2821,5.5935 15.32933,7.60011 4.04724,2.00662 7.77253,3.85207 8.27843,4.101 1.20534,0.59311 2.17667,1.51797 2.46109,2.34337 0.29824,0.86548 0.25367,1.93456 -0.11283,2.70639 -0.51738,1.08957 -0.98044,1.42535 -4.07685,2.95621 -1.52258,0.75277 -5.84975,2.8967 -9.61592,4.76428 -17.09995,8.4796 -20.25248,10.02578 -20.73208,10.16821 -0.61531,0.18273 -1.70077,0.1871 -2.26356,0.009 z"
       id="path3140-4-9-5-8"
       sodipodi:nodetypes="sscccsssssssssss"
       transform="matrix(2.6665781,0,0,2.7122563,-1428.4689,-1432.9695)"
       inkscape:export-xdpi="96"
       inkscape:export-ydpi="96" />
  </g>
</svg>
