<?xml version="1.0" encoding="UTF-8" standalone="no"?>
<svg
   xmlns:dc="http://purl.org/dc/elements/1.1/"
   xmlns:cc="http://creativecommons.org/ns#"
   xmlns:rdf="http://www.w3.org/1999/02/22-rdf-syntax-ns#"
   xmlns:svg="http://www.w3.org/2000/svg"
   xmlns="http://www.w3.org/2000/svg"
   xmlns:sodipodi="http://sodipodi.sourceforge.net/DTD/sodipodi-0.dtd"
   xmlns:inkscape="http://www.inkscape.org/namespaces/inkscape"
   width="1000"
   height="1000"
   viewBox="0 0 264.58333 264.58334"
   version="1.1"
   id="svg1488"
   inkscape:version="1.0.2-2 (e86c870879, 2021-01-15)"
   sodipodi:docname="Twitter.svg">
  <defs
     id="defs1482" />
  <sodipodi:namedview
     id="base"
     pagecolor="#ffffff"
     bordercolor="#666666"
     borderopacity="1.0"
     inkscape:pageopacity="0.0"
     inkscape:pageshadow="2"
     inkscape:zoom="0.40787938"
     inkscape:cx="400"
     inkscape:cy="560"
     inkscape:document-units="mm"
     inkscape:current-layer="layer1"
     inkscape:document-rotation="0"
     showgrid="false"
     units="px"
     inkscape:window-width="2558"
     inkscape:window-height="1368"
     inkscape:window-x="3241"
     inkscape:window-y="1442"
     inkscape:window-maximized="0" />
  <metadata
     id="metadata1485">
    <rdf:RDF>
      <cc:Work
         rdf:about="">
        <dc:format>image/svg+xml</dc:format>
        <dc:type
           rdf:resource="http://purl.org/dc/dcmitype/StillImage" />
        <dc:title></dc:title>
      </cc:Work>
    </rdf:RDF>
  </metadata>
  <g
     inkscape:label="Layer 1"
     inkscape:groupmode="layer"
     id="layer1">
    <path
       style="fill:#000000;stroke-width:1.6445"
       d="m 5.3558783,263.29483 c 0.0044,-0.7087 20.9521397,-27.44994 46.5504887,-59.42501 C 81.605824,166.77209 98.132079,144.83253 97.573585,143.24396 97.092229,141.87473 75.227144,110.05114 48.984548,72.524839 22.741958,34.998529 0.72961631,3.328768 0.06824231,2.147592 -0.88270769,0.449267 7.8582443,0.01454 41.852273,0.069488 l 42.986541,0.06948 28.163006,41.226291 c 15.48964,22.67446 28.71531,41.0051 29.39037,40.73477 0.67508,-0.27033 15.87139,-18.85344 33.76959,-41.29578 L 208.70401,0 h 20.4442 c 12.06739,0 20.22919,0.661033 19.91947,1.613299 -0.28854,0.887318 -18.94141,24.59923 -41.45073,52.69314 -22.50931,28.09391 -41.91501,52.772461 -43.12375,54.841211 -2.07798,3.5565 0.5603,7.74946 48.43848,76.9821 27.84986,40.27137 51.0547,74.41105 51.56622,75.86605 0.82534,2.34747 -3.72799,2.59377 -40.43287,2.18695 l -41.36286,-0.45844 -31.26179,-44.66994 c -17.19398,-24.56845 -31.77571,-44.79754 -32.40384,-44.95351 -0.62814,-0.15585 -17.37448,20.13876 -37.214091,45.09948 l -36.072009,45.383 h -20.2013 c -11.110714,0 -20.1976817,-0.57987 -20.1932617,-1.28858 z M 210.06288,228.0743 c -2.6582,-4.01597 -34.77957,-50.59727 -71.38079,-103.51394 L 72.134355,28.348219 60.73237,27.842439 49.330391,27.336659 65.304619,50.177419 c 8.785822,12.56241 41.494031,59.371301 72.684911,104.019781 l 56.71066,81.17899 h 10.09788 10.09782 z"
       id="path1504" />
  </g>
</svg>
