<?xml version="1.0" encoding="UTF-8" standalone="no"?>
<svg
   xmlns:dc="http://purl.org/dc/elements/1.1/"
   xmlns:cc="http://creativecommons.org/ns#"
   xmlns:rdf="http://www.w3.org/1999/02/22-rdf-syntax-ns#"
   xmlns:svg="http://www.w3.org/2000/svg"
   xmlns="http://www.w3.org/2000/svg"
   xmlns:sodipodi="http://sodipodi.sourceforge.net/DTD/sodipodi-0.dtd"
   xmlns:inkscape="http://www.inkscape.org/namespaces/inkscape"
   width="1000"
   height="1000"
   viewBox="0 0 264.58333 264.58334"
   version="1.1"
   id="svg8"
   inkscape:version="1.0.2-2 (e86c870879, 2021-01-15)"
   sodipodi:docname="Zues1.svg">
  <defs
     id="defs2" />
  <sodipodi:namedview
     id="base"
     pagecolor="#ffffff"
     bordercolor="#666666"
     borderopacity="1.0"
     inkscape:pageopacity="0.0"
     inkscape:pageshadow="2"
     inkscape:zoom="0.47533025"
     inkscape:cx="400"
     inkscape:cy="363.86358"
     inkscape:document-units="mm"
     inkscape:current-layer="layer2"
     inkscape:document-rotation="0"
     showgrid="false"
     units="px"
     inkscape:window-width="2558"
     inkscape:window-height="1368"
     inkscape:window-x="3234"
     inkscape:window-y="1442"
     inkscape:window-maximized="0" />
  <metadata
     id="metadata5">
    <rdf:RDF>
      <cc:Work
         rdf:about="">
        <dc:format>image/svg+xml</dc:format>
        <dc:type
           rdf:resource="http://purl.org/dc/dcmitype/StillImage" />
        <dc:title></dc:title>
      </cc:Work>
    </rdf:RDF>
  </metadata>
  <g
     inkscape:groupmode="layer"
     id="layer2"
     inkscape:label="Background">
    <circle
       style="fill:#ffffff;stroke:#ffffff;stroke-width:0.279059"
       id="path831"
       cx="132.29167"
       cy="132.29166"
       r="132.15213" />
  </g>
  <g
     inkscape:label="Layer 1"
     inkscape:groupmode="layer"
     id="layer1">
    <path
       style="fill:#000000;stroke-width:0.340071"
       d="m 125.06629,264.49675 c -0.65504,-0.0752 -3.10507,-0.29769 -5.4445,-0.49453 C 81.986301,260.83571 45.747743,239.81025 23.798621,208.406 10.947153,190.01846 3.2383633,169.7767 0.45138965,147.10082 -0.23132582,141.54598 -0.11466336,121.60109 0.63305177,116.04379 4.6106874,86.480649 16.960305,60.783929 37.165933,40.027216 58.508258,18.102809 85.54706,4.6769503 116.21896,0.77418105 122.07957,0.02845558 135.86867,-0.24621238 142.42064,0.25224387 170.71561,2.4048607 197.31872,13.43375 218.81387,31.922681 c 4.44644,3.82458 12.92997,12.528573 16.23306,16.654899 16.78217,20.964908 26.86225,45.616148 29.17916,71.35885 0.53559,5.95092 0.45434,20.41313 -0.14579,25.97487 -2.89925,26.86266 -13.43033,51.5677 -30.64092,71.88107 -17.50899,20.66556 -41.33393,35.69942 -67.2966,42.46503 -6.38405,1.66362 -13.20785,2.92106 -19.4685,3.58752 -4.60785,0.4905 -19.18187,0.93016 -21.60787,0.65183 z m 22.1183,-4.54638 c 24.1903,-3.01327 46.41525,-12.31406 65.50421,-27.41247 4.99325,-3.94941 16.61883,-15.6541 20.36135,-20.49991 6.38986,-8.27356 10.30782,-14.44771 14.46469,-22.79435 6.48899,-13.02932 10.56379,-26.57384 12.48285,-41.49264 0.76673,-5.96053 1.03174,-18.74238 0.52527,-25.33444 C 256.33194,67.866658 217.54218,21.498567 164.73641,7.9162415 153.11264,4.9264674 144.6694,3.8741794 132.38233,3.8839546 122.88006,3.8916617 118.62037,4.2223088 110.60432,5.5752376 60.549794,14.02324 19.93415,51.556885 7.4826987,100.87178 c -1.2949766,5.12884 -2.6321517,12.53975 -3.2821625,18.19048 -0.5626841,4.89152 -0.5537068,21.61273 0.014276,26.50919 3.4425264,29.67984 15.6226998,55.45565 36.1149758,76.42686 21.971577,22.48507 49.889274,35.55811 82.014292,38.40489 2.88226,0.25541 21.94447,-0.0921 24.84056,-0.45283 z m -23.98985,-3.78816 c -4.43551,-0.32813 -11.01373,-1.16668 -11.28607,-1.43867 -0.22013,-0.2199 1.2763,-10.93817 1.60028,-11.46172 0.14182,-0.22931 1.50826,-0.17506 4.08808,0.16235 4.44696,0.5816 4.39362,0.60702 4.40152,-2.09678 l 0.005,-1.78427 -1.1059,-0.0144 c -0.60825,-0.008 -3.24969,-0.3705 -5.86986,-0.80568 -2.62017,-0.43517 -4.84051,-0.67111 -4.93408,-0.52432 -0.0937,0.14678 -0.93091,3.72586 -1.86076,7.95347 l -1.69061,7.68657 -1.03164,-0.20089 c -4.13395,-0.80507 -19.800429,-5.70806 -20.513018,-6.41976 -0.286385,-0.28604 4.152416,-11.07356 4.556522,-11.07356 0.222515,0 1.80893,0.53528 3.525417,1.18951 1.716511,0.65423 3.341259,1.18952 3.61057,1.18952 0.52369,0 1.103683,-1.21631 1.387502,-2.90979 0.164306,-0.98088 0.08943,-1.06575 -1.305931,-1.48035 -1.156758,-0.34369 -6.691881,-2.49944 -9.368893,-3.64888 -0.361976,-0.15542 -1.771967,2.54467 -6.327796,12.11735 -0.578247,1.21501 -1.083786,2.25688 -1.123421,2.31528 -0.261673,0.3854 -10.417992,-5.20205 -15.725962,-8.65151 l -3.843224,-2.49757 3.332808,-4.91511 c 1.833034,-2.70332 3.443428,-4.92149 3.578635,-4.92929 0.135202,-0.008 1.743049,0.96962 3.572952,2.17202 1.829911,1.20241 3.421615,2.08181 3.537093,1.9542 0.115623,-0.12755 0.61378,-0.9347 1.107308,-1.79358 l 0.897334,-1.56159 -3.489262,-2.31103 c -1.919102,-1.27107 -4.047254,-2.74772 -4.729223,-3.28144 -0.68199,-0.53371 -1.405255,-0.9704 -1.607264,-0.9704 -0.202142,0 -2.537645,2.71465 -5.190278,6.03254 -2.652625,3.3179 -4.877276,6.0965 -4.943666,6.17466 -0.192087,0.22617 -1.599009,-0.61459 -2.691595,-1.60845 -0.551842,-0.50198 -2.812902,-2.50546 -5.024551,-4.45217 -2.211653,-1.94671 -5.165545,-4.77606 -6.564196,-6.28744 l -2.54299,-2.74796 3.672956,-3.49373 c 5.559584,-5.2883 4.737891,-5.11125 8.121155,-1.74974 l 2.870364,2.85193 1.404488,-1.40275 1.404488,-1.40276 -3.97468,-4.36864 c -2.186066,-2.40275 -4.10914,-4.36862 -4.273491,-4.36862 -0.164307,0 -3.066638,2.18811 -6.449539,4.86246 -3.382904,2.67434 -6.284121,4.78012 -6.447173,4.67947 -1.46177,-0.9023 -12.522999,-17.36063 -12.233922,-18.2032 0.107263,-0.31278 10.197156,-6.23492 10.298899,-6.04484 0.162454,0.30352 2.828761,4.72234 3.496106,5.79408 l 0.799413,1.28382 1.606179,-1.084 c 0.883391,-0.5962 1.650656,-1.11639 1.705002,-1.15598 0.0545,-0.0396 -1.256295,-2.43616 -2.9126,-5.3257 l -3.01145,-5.25373 -7.290665,3.52486 c -6.607127,3.19437 -7.33002,3.47111 -7.710321,2.95165 -1.322281,-1.80608 -8.274675,-19.95162 -7.818829,-20.40689 0.277734,-0.27739 10.92032,-3.51527 11.232367,-3.41731 0.155099,0.0487 0.782349,1.62868 1.393881,3.51109 0.611529,1.88242 1.218144,3.59429 1.348015,3.80418 0.166952,0.2698 0.755517,0.17716 2.008928,-0.31622 0.975043,-0.38381 1.822344,-0.74724 1.882854,-0.80763 0.06059,-0.0604 -0.511201,-2.074 -1.270502,-4.47471 -0.759301,-2.40071 -1.542468,-5.01624 -1.740324,-5.8123 -0.335967,-1.35174 -0.420661,-1.43211 -1.281602,-1.21592 -6.687353,1.67923 -15.117595,3.36641 -15.222323,3.04652 -0.136551,-0.41711 -1.6884619,-8.4655 -2.0123013,-10.43606 -0.4819941,-2.93279 -1.1620474,-11.03175 -0.942676,-11.22651 0.2584185,-0.22943 11.6268913,-1.12583 11.7816353,-0.92898 0.0508,0.0645 0.242279,1.83622 0.425675,3.93704 0.183383,2.10085 0.415552,3.90175 0.515932,4.002 0.100436,0.10019 1.065718,0.0786 2.145194,-0.0482 l 1.962685,-0.23039 -0.218758,-2.07228 c -0.120253,-1.13976 -0.316344,-3.86931 -0.435628,-6.06566 L 24.23829,134.18609 H 16.077215 7.9161412 l 0.1892565,-6.71226 c 0.15875,-5.63087 1.0439691,-15.25884 1.4401905,-15.66418 0.1125273,-0.11509 5.9663378,0.6804 9.8793468,1.3425 l 2.057842,0.34819 -0.41909,2.95089 c -0.230505,1.62299 -0.429186,3.52441 -0.441507,4.22537 l -0.02238,1.27448 h 2.020829 2.020842 l 0.223097,-1.61434 c 0.122687,-0.8879 0.517091,-3.4989 0.876416,-5.80226 0.359326,-2.30335 0.577758,-4.31001 0.485402,-4.45926 -0.09234,-0.14925 -0.668774,-0.36569 -1.280908,-0.48099 -3.480853,-0.65561 -13.748654,-3.07429 -13.998956,-3.29759 -0.378693,-0.33784 0.465365,-4.11913 2.203868,-9.873109 1.404747,-4.649368 3.600139,-10.816237 4.006818,-11.255207 0.209999,-0.226666 10.436024,3.600779 11.00618,4.119454 0.13626,0.123827 -0.36875,1.812413 -1.121992,3.752365 -0.753232,1.939965 -1.301653,3.703811 -1.218724,3.919661 0.08295,0.21585 0.795171,0.585289 1.582756,0.820959 0.787585,0.23567 1.645708,0.510415 1.906984,0.610556 0.261144,0.100064 0.475007,-0.0064 0.475007,-0.236698 0,-0.2303 0.934905,-2.779498 2.077561,-5.66488 1.142656,-2.885394 2.023136,-5.297149 1.95662,-5.359474 -0.06641,-0.0623 -3.36944,-1.681071 -7.339809,-3.597209 l -7.218861,-3.483875 2.078897,-4.072608 c 2.153864,-4.219441 6.515387,-11.594718 8.321465,-14.071457 l 1.035367,-1.419852 4.903796,3.37143 c 2.697101,1.854301 4.875993,3.487331 4.841988,3.628962 -0.03387,0.141643 -0.999013,1.673903 -2.1445,3.405019 -1.145487,1.731116 -1.998081,3.284249 -1.894655,3.451377 0.229658,0.371354 3.26799,2.173208 3.393514,2.012592 0.04948,-0.0632 0.820949,-1.261959 1.714579,-2.663892 0.89363,-1.40192 2.37244,-3.561756 3.286292,-4.799618 0.913818,-1.237875 1.661504,-2.330612 1.661504,-2.4283 0,-0.09775 -2.641441,-2.279141 -5.869869,-4.847658 -3.228416,-2.568505 -6.073521,-4.858115 -6.322459,-5.088005 -0.369993,-0.341694 0.0299,-1.000226 2.189877,-3.607318 1.453382,-1.75413 4.85971,-5.442925 7.569634,-8.197311 3.878513,-3.942153 5.024445,-4.92735 5.384297,-4.629073 0.251354,0.208413 2.167493,2.205051 4.257892,4.436986 l 3.800758,4.058054 -3.038036,2.832216 -3.038033,2.832211 1.345115,1.3923 c 0.739828,0.765776 1.515083,1.392312 1.722808,1.392312 0.207698,0 0.827458,-0.476787 1.37713,-1.059533 0.549698,-0.582733 2.377572,-2.295082 4.061978,-3.80521 1.68439,-1.510124 3.109579,-2.85663 3.167081,-2.992224 0.05741,-0.135593 -2.123149,-3.049619 -4.845923,-6.475589 -2.722758,-3.425983 -4.951873,-6.31649 -4.953571,-6.423361 -0.0051,-0.282632 6.80398,-5.330033 10.375513,-7.691795 4.965017,-3.28326 8.008377,-4.983753 8.328139,-4.65344 0.385762,0.398495 5.790824,9.75754 5.792369,10.029677 6.8e-4,0.114964 -1.185545,0.89902 -2.636017,1.742355 -1.450446,0.843323 -3.006114,1.833325 -3.457035,2.19999 l -0.819865,0.666664 1.091406,1.584347 c 0.600287,0.871402 1.165755,1.58436 1.256639,1.58436 0.09102,0 1.653064,-0.896618 3.471529,-1.992477 1.818481,-1.095858 4.110244,-2.398396 5.092816,-2.89454 0.982557,-0.496144 1.786467,-0.99889 1.786467,-1.117207 0,-0.118304 -1.536435,-3.429348 -3.414284,-7.35782 -1.877854,-3.928473 -3.29348,-7.263332 -3.145848,-7.410781 0.942763,-0.941602 13.60506,-6.048309 18.741104,-7.558295 1.584166,-0.46574 1.825784,-0.469028 1.995567,-0.0271 0.106362,0.276531 0.922681,2.863892 1.814327,5.749697 l 1.621127,5.246925 -3.786842,1.250232 c -2.082747,0.68764 -3.850143,1.30535 -3.927541,1.37271 -0.221456,0.192652 1.101884,3.863104 1.392634,3.863104 0.14314,0 1.910689,-0.530647 3.927838,-1.179211 2.017161,-0.648565 4.530131,-1.418915 5.584421,-1.711874 l 1.91685,-0.532676 -0.62947,-2.791278 c -0.34621,-1.535201 -1.14911,-5.085345 -1.78422,-7.889211 -1.03317,-4.56111 -1.09706,-5.123817 -0.60684,-5.343868 1.57046,-0.704968 11.48879,-2.267722 19.8107,-3.1214367 l 1.90841,-0.195773 0.20399,1.9515127 c 0.11219,1.073329 0.30846,3.797067 0.43604,6.052753 l 0.23204,4.10124 -4.00773,0.392162 c -2.20425,0.215696 -4.05868,0.443068 -4.12096,0.505265 -0.15055,0.150481 0.40267,3.613612 0.61055,3.821241 0.0894,0.08927 2.86805,-0.02274 6.17478,-0.248875 l 6.01221,-0.411238 V 16.18224 8.0975251 l 4.50873,0.00642 c 3.91859,0.00642 9.62014,0.4467545 15.8231,1.2236552 1.7304,0.2167234 1.7858,0.2569288 1.7653,1.2809567 -0.0429,2.143651 -1.53657,10.913077 -1.8582,10.909712 -0.18282,-0.0013 -1.98117,-0.216004 -3.99624,-0.475746 -2.01507,-0.259729 -3.74714,-0.388964 -3.84905,-0.287179 -0.10187,0.101733 -0.27276,1.031581 -0.37968,2.06622 l -0.19447,1.88116 1.15107,0.181155 c 7.24029,1.139545 10.55648,1.576538 10.80403,1.423732 0.16351,-0.100963 0.39188,-0.683812 0.50731,-1.295203 0.67993,-3.601139 3.08215,-13.735915 3.31786,-13.997828 0.63915,-0.71026 19.77983,4.950716 21.18459,6.265456 0.21881,0.204764 -3.53075,10.549032 -4.03728,11.138124 -0.0468,0.05459 -1.733,-0.51897 -3.74687,-1.274484 -2.01388,-0.755513 -3.78801,-1.373661 -3.94254,-1.373661 -0.23998,0 -1.32816,3.075875 -1.32816,3.754639 0,0.127938 1.18674,0.664262 2.63718,1.191786 1.45045,0.527525 3.9756,1.529756 5.61143,2.227196 l 2.97424,1.268061 2.08463,-4.305812 c 1.14654,-2.368184 2.68366,-5.561232 3.41582,-7.095638 0.73216,-1.534418 1.48331,-2.88375 1.66923,-2.998508 0.68686,-0.423993 15.12348,7.646451 18.80503,10.512487 0.57814,0.450069 0.40703,0.789849 -2.69662,5.355158 -1.82263,2.681041 -3.34621,4.920838 -3.38569,4.977344 -0.0394,0.05652 -1.60311,-0.899354 -3.47473,-2.124126 -1.87161,-1.224786 -3.4824,-2.226875 -3.57954,-2.226875 -0.24606,0 -1.9427,2.932189 -1.9427,3.357698 0,0.191316 1.11017,1.062179 2.46705,1.935264 1.35689,0.873072 3.49831,2.333386 4.75874,3.245148 1.26042,0.91175 2.3572,1.657732 2.43729,1.657732 0.0802,0 2.40932,-2.832113 5.17605,-6.293587 2.76675,-3.461461 5.14232,-6.252571 5.27906,-6.202463 0.74618,0.273448 8.53774,7.26102 12.19451,10.936211 l 4.23948,4.260803 -3.21863,3.010065 c -1.77025,1.655535 -3.7899,3.508089 -4.48814,4.11677 l -1.26935,1.106712 -2.76581,-2.918303 c -1.52122,-1.605067 -2.89204,-2.918287 -3.04629,-2.918287 -0.15426,0 -0.84932,0.693352 -1.54459,1.540798 l -1.26413,1.540815 2.87111,2.96235 c 1.57912,1.629292 3.42757,3.626174 4.10768,4.437513 l 1.23656,1.47515 6.06607,-4.842611 c 3.33633,-2.66343 6.23926,-4.974954 6.45093,-5.136713 0.72091,-0.55089 7.519,8.98308 12.92003,18.119684 0.13044,0.220847 -9.82488,6.077274 -10.31193,6.06615 -0.14896,-0.0039 -1.00925,-1.265145 -1.9119,-2.803866 -2.63832,-4.497397 -2.29632,-4.260558 -4.29901,-2.977031 -0.94388,0.604929 -1.71611,1.148292 -1.71611,1.207457 0,0.05922 0.74006,1.304965 1.64457,2.768426 0.9045,1.463475 2.23202,3.731415 2.95002,5.039874 0.71803,1.308472 1.33797,2.424639 1.37766,2.480387 0.0397,0.05575 3.29364,-1.435395 7.23095,-3.313652 6.3536,-3.030904 7.89425,-3.677684 7.89425,-3.314089 0,0.05549 0.92768,2.234865 2.06155,4.843022 2.09145,4.810909 5.16287,13.06148 5.56803,14.957091 l 0.22199,1.038711 -4.35115,1.31185 c -2.39313,0.721512 -4.98362,1.503014 -5.75663,1.736654 l -1.40552,0.42482 -1.25521,-3.910882 c -1.16647,-3.634279 -1.30911,-3.897348 -2.01718,-3.719854 -0.89914,0.225394 -3.27436,1.196013 -3.27436,1.338054 0,0.05421 0.51072,1.619774 1.1349,3.479021 0.62421,1.859221 1.41256,4.412751 1.75192,5.674491 0.33935,1.26173 0.73646,2.29406 0.88249,2.29406 0.14605,0 3.67129,-0.76469 7.83398,-1.6993 4.16267,-0.93463 7.67021,-1.69931 7.79454,-1.69931 0.23045,0 1.77284,7.55608 2.35868,11.55528 0.50824,3.46941 1.11099,10.24059 0.92787,10.42348 -0.36367,0.36321 -11.62886,1.03817 -11.83934,0.70935 -0.11774,-0.18397 -0.32314,-1.87033 -0.45638,-3.74746 -0.29022,-4.08855 -0.37777,-4.36506 -1.3216,-4.17385 -0.40158,0.0813 -1.31831,0.24276 -2.03716,0.35865 l -1.30701,0.21071 0.2413,2.0774 c 0.13282,1.14256 0.33811,3.84766 0.4563,6.01134 l 0.21484,3.93394 8.16676,0.0903 8.16676,0.0903 -0.22596,6.8768 c -0.18097,5.50512 -1.05462,15.09736 -1.40342,15.40657 -0.10002,0.0888 -11.61555,-1.61711 -11.75275,-1.74095 -0.0611,-0.0551 0.0831,-1.86898 0.32051,-4.03072 0.23733,-2.16172 0.36399,-3.99599 0.28128,-4.07615 -0.0828,-0.0802 -0.99637,-0.25027 -2.03031,-0.37804 l -1.87991,-0.23232 -0.91872,6.04247 c -0.50527,3.32338 -0.88434,6.07569 -0.84232,6.11625 0.0421,0.0406 2.83267,0.70148 6.20145,1.46866 3.36879,0.76721 6.85242,1.56103 7.7414,1.76407 1.26085,0.28795 1.61634,0.51743 1.61634,1.04331 0,2.60968 -5.77369,20.6693 -6.608,20.6693 -0.19182,0 -2.75423,-0.93615 -5.69403,-2.08035 l -5.34509,-2.08035 0.96513,-2.59274 c 0.53083,-1.42602 1.13262,-3.02327 1.33736,-3.54949 0.20479,-0.5262 0.37224,-1.14827 0.37224,-1.38234 0,-0.37616 -3.65798,-1.79451 -3.89727,-1.51113 -0.0519,0.0614 -0.36782,0.94721 -0.70207,1.96835 -0.33425,1.02114 -1.27365,3.44413 -2.08756,5.38446 -0.81394,1.94031 -1.47987,3.59473 -1.47987,3.67647 0,0.14247 12.52049,6.24546 12.81273,6.24546 0.0781,0 0.51385,0.2434 0.96843,0.54088 l 0.82651,0.54089 -1.56163,3.11262 c -2.82576,5.63236 -9.2326,16.19729 -9.82244,16.19729 -0.41121,0 -9.68898,-6.54423 -9.68898,-6.83429 0,-0.18088 0.91877,-1.69358 2.04169,-3.36155 1.12294,-1.66797 2.04168,-3.17695 2.04168,-3.35328 0,-0.32549 -2.78063,-2.08501 -3.29326,-2.08389 -0.15372,3.3e-4 -0.73538,0.72679 -1.29236,1.61434 -0.55697,0.88755 -2.06732,3.11357 -3.35632,4.94671 -2.04771,2.9121 -2.27597,3.38417 -1.80776,3.73848 2.84539,2.15311 12.10312,9.6268 12.11558,9.78079 0.0765,0.94333 -14.5196,16.49702 -15.23765,16.23749 -0.18732,-0.0677 -2.10881,-2.0349 -4.26967,-4.37145 l -3.92888,-4.24826 2.96392,-2.9977 2.9639,-2.9977 -1.49807,-1.34273 -1.49807,-1.34273 -2.41517,2.30998 c -1.32834,1.27048 -3.32103,3.09167 -4.4282,4.0471 l -2.01303,1.73714 0.65191,0.86306 c 0.35856,0.4747 2.60427,3.30872 4.99049,6.29784 2.38623,2.98913 4.33296,5.56208 4.3261,5.71769 -0.0294,0.66271 -12.03687,9.0294 -16.67984,11.62223 l -1.89008,1.0555 -2.14831,-3.76226 c -1.18139,-2.06923 -2.51647,-4.42046 -2.96666,-5.22494 l -0.81854,-1.46268 3.41073,-2.09339 c 1.8759,-1.15135 3.41073,-2.25218 3.41073,-2.44627 0,-0.1941 -0.48565,-1.0283 -1.07919,-1.85379 -1.07627,-1.49683 -1.08156,-1.49932 -1.95662,-0.92197 -2.06401,1.36179 -5.11029,3.14118 -7.0638,4.1261 -1.15552,0.58259 -2.18705,1.19837 -2.29227,1.3684 -0.10531,0.17005 1.33834,3.47466 3.20789,7.34359 1.86954,3.86892 3.3992,7.1519 3.3992,7.2955 0,0.41005 -6.85352,3.50937 -11.90987,5.38592 -5.80506,2.1544 -8.50185,2.9383 -8.8439,2.57071 -0.26919,-0.2893 -3.40623,-10.31259 -3.40623,-10.88343 0,-0.16671 1.75537,-0.88013 3.90084,-1.58538 l 3.90083,-1.28229 -0.68982,-1.7479 c -0.37939,-0.96134 -0.75878,-1.85934 -0.84305,-1.99553 -0.0841,-0.1362 -1.87377,0.32909 -3.97665,1.03398 -2.10289,0.70488 -4.64384,1.47763 -5.64657,1.71719 l -1.82313,0.43559 0.2241,1.40173 c 0.12329,0.77096 0.90958,4.3671 1.74733,7.99145 0.83775,3.62435 1.48074,6.62933 1.42886,6.67774 -0.61394,0.57292 -17.90304,3.21581 -21.03697,3.21581 h -1.2474 l -0.43929,-5.78458 c -0.24156,-3.18151 -0.35663,-5.86713 -0.25559,-5.96801 0.10107,-0.10084 1.76951,-0.33432 3.70779,-0.51875 1.93828,-0.18444 3.72117,-0.40201 3.96198,-0.48348 0.32235,-0.10906 0.37854,-0.62042 0.21299,-1.9383 -0.12382,-0.98458 -0.32072,-1.89385 -0.43785,-2.02059 -0.11722,-0.12678 -1.43796,-0.094 -2.93519,0.0728 -1.49725,0.16682 -4.17695,0.35364 -5.95493,0.41518 l -3.23267,0.11188 -0.0913,8.22685 -0.0913,8.22684 -3.48185,-0.0486 c -1.915,-0.0267 -5.16622,-0.17314 -7.22493,-0.32544 z m 6.97577,-11.88109 c 0,-4.49721 0.12223,-8.10122 0.27183,-8.00893 0.45334,0.27983 11.56893,-0.43224 15.34675,-0.98312 1.94623,-0.28381 3.60664,-0.44805 3.6898,-0.36499 0.0831,0.0831 0.5276,2.71002 0.98768,5.83771 0.63538,4.3194 0.73891,5.74694 0.43064,5.93722 -0.22331,0.13778 -2.16419,0.44626 -4.31328,0.6855 l -3.90744,0.43497 0.21325,2.03676 c 0.11721,1.12022 0.26588,2.08943 0.33033,2.15381 0.36807,0.36761 13.83277,-1.81258 13.83277,-2.23979 0,-0.11856 -0.7702,-3.56327 -1.71156,-7.65492 -0.94136,-4.09166 -1.66423,-7.58119 -1.60639,-7.75451 0.0579,-0.17332 2.09134,-0.83062 4.51887,-1.46067 4.37546,-1.13562 8.56213,-2.47936 11.96431,-3.84005 l 1.7658,-0.70623 1.36615,3.4705 c 0.75139,1.90876 1.74887,4.43712 2.21663,5.61858 l 0.85047,2.1481 -1.26018,0.53289 c -0.6931,0.29309 -2.45568,0.95381 -3.91688,1.46825 -1.46119,0.51447 -2.72612,1.0047 -2.81096,1.08944 -0.12912,0.12906 0.18362,1.20678 1.03335,3.55905 0.10795,0.29886 0.77566,0.19484 2.46137,-0.38346 3.33997,-1.1458 10.289,-3.9663 10.4624,-4.24652 0.0812,-0.13134 -0.98004,-2.55522 -2.35852,-5.38639 -3.13878,-6.44665 -4.39679,-9.23969 -4.22396,-9.37805 0.0741,-0.0593 2.35402,-1.30089 5.06651,-2.75907 2.7125,-1.45817 6.42156,-3.61676 8.24234,-4.79687 l 3.31055,-2.14565 3.39699,4.95979 3.397,4.9598 -1.26609,0.91603 c -0.69635,0.5038 -2.29729,1.56648 -3.55766,2.36147 -1.26034,0.795 -2.29155,1.51923 -2.29155,1.60937 0,0.14053 1.63581,3.09752 1.9231,3.47633 0.11562,0.15239 9.32908,-5.97646 10.7826,-7.1726 l 0.96597,-0.79494 -4.96429,-6.1854 c -2.73037,-3.40196 -4.96429,-6.31936 -4.96429,-6.48313 0,-0.16376 0.95618,-1.04677 2.12487,-1.96223 1.16866,-0.91547 4.30257,-3.78256 6.96419,-6.37133 l 4.83933,-4.70686 0.80767,0.63451 c 0.44421,0.34899 2.45464,2.17624 4.46767,4.06057 l 3.66002,3.42605 -2.95497,3.10132 -2.95496,3.10133 1.25836,1.53375 c 1.24002,1.51144 1.26947,1.52503 2.02184,0.93394 1.57032,-1.2337 8.68993,-9.06238 8.68993,-9.55541 0,-0.16854 -2.718,-2.47511 -6.04,-5.12569 -3.322,-2.6506 -6.08801,-4.95017 -6.14668,-5.11018 -0.0587,-0.16 0.64696,-1.25586 1.5681,-2.43523 2.51688,-3.22244 4.81492,-6.53798 7.022,-10.13106 1.09078,-1.77577 2.03589,-3.2883 2.10021,-3.36117 0.11907,-0.13476 8.63564,4.65359 9.83542,5.5298 0.63106,0.46088 0.57409,0.61555 -1.45921,3.96309 -1.16371,1.91593 -2.11587,3.58469 -2.11587,3.70838 0,0.21509 2.93264,2.39491 3.22202,2.39491 0.51305,0 7.12885,-11.7299 6.86044,-12.16365 -0.0958,-0.15473 -3.32223,-1.79022 -7.16996,-3.6344 -3.84774,-1.84418 -6.99576,-3.51748 -6.99561,-3.71844 1.4e-4,-0.20097 0.47549,-1.35949 1.05633,-2.5745 1.3327,-2.78785 3.73344,-8.91965 4.77323,-12.1915 0.43794,-1.37801 0.97345,-2.57339 1.1901,-2.65642 0.41105,-0.15753 10.65439,2.85257 11.0998,3.26178 0.14023,0.12883 -0.34766,2.02575 -1.08421,4.21537 l -1.33913,3.98115 1.23449,0.51517 c 2.59017,1.08091 2.61996,1.07146 3.45702,-1.0961 0.87847,-2.27476 3.46057,-11.06793 3.29783,-11.23047 -0.0598,-0.0599 -3.53784,-0.88823 -7.72883,-1.84096 -4.19099,-0.95272 -7.72143,-1.82852 -7.84543,-1.9462 -0.12408,-0.11767 0.059,-1.51396 0.40656,-3.10282 0.87826,-4.01454 2.02666,-12.0459 2.02888,-14.1892 10e-4,-1.1974 0.14182,-1.78579 0.4272,-1.78888 0.23389,-0.003 3.00827,0.17626 6.16515,0.3973 l 5.73982,0.40191 -0.19579,1.72684 c -0.10769,0.94974 -0.29861,2.89727 -0.42434,4.32784 l -0.2286,2.60101 1.83042,0.31295 c 1.00674,0.17214 1.96045,0.20239 2.11933,0.0672 0.3569,-0.30356 0.75986,-3.87448 1.08051,-9.57559 l 0.24368,-4.33322 h -8.15444 -8.15444 l -0.21458,-5.52275 c -0.118,-3.03752 -0.45603,-7.3375 -0.75107,-9.55554 -0.29501,-2.21802 -0.49038,-4.07868 -0.43407,-4.13479 0.14155,-0.14119 11.64913,-1.798 11.76764,-1.69425 0.0526,0.0461 0.34406,1.93975 0.64757,4.20814 l 0.55181,4.12431 h 1.96953 c 1.08326,0 2.03677,-0.11471 2.11892,-0.25489 0.46477,-0.79307 -1.68513,-13.67942 -2.28219,-13.67942 -0.2204,0 -3.75764,0.76417 -7.86032,1.69817 -4.10268,0.934 -7.56139,1.58397 -7.68602,1.44441 -0.12461,-0.13957 -0.57269,-1.70667 -0.99575,-3.48245 -0.93443,-3.92223 -2.45933,-8.818532 -3.79744,-12.193096 -0.54677,-1.378876 -0.94914,-2.551973 -0.89416,-2.606873 0.20425,-0.204058 10.65908,-4.227225 10.98642,-4.227751 0.18706,-3.09e-4 0.93652,1.642638 1.66529,3.650978 0.72874,2.00834 1.44235,3.783091 1.58578,3.943874 0.35835,0.401745 3.72472,-0.754859 3.72472,-1.279712 0,-0.893149 -4.30127,-12.088331 -4.85809,-12.644475 -0.081,-0.0808 -3.43955,1.442177 -7.46357,3.384519 l -7.31637,3.531505 -0.92541,-1.909946 c -1.54601,-3.190814 -4.61804,-8.536209 -6.73905,-11.726149 -1.10406,-1.660442 -1.88225,-3.137211 -1.72935,-3.281732 0.55359,-0.523157 9.42027,-6.444093 9.65015,-6.444093 0.12991,0 1.20677,1.491143 2.39332,3.313652 1.18652,1.822509 2.21117,3.386445 2.27698,3.475411 0.0659,0.08902 0.95083,-0.272883 1.96675,-0.80412 l 1.84711,-0.965891 -0.83286,-1.404978 c -1.43891,-2.427297 -6.80269,-10.056652 -7.07557,-10.064217 -0.14341,-0.0039 -2.97541,2.157138 -6.29343,4.802469 -3.31803,2.645319 -6.19469,4.824692 -6.39257,4.843022 -0.19791,0.01837 -1.56896,-1.41957 -3.04684,-3.195348 -1.47788,-1.775766 -4.39846,-4.932668 -6.4902,-7.01533 l -3.80316,-3.786636 4.11894,-4.455608 4.11893,-4.455612 3.06955,3.046151 3.06955,3.046161 1.65852,-1.443047 1.65851,-1.44305 -3.35992,-3.177095 c -4.49791,-4.253147 -6.84584,-6.233818 -7.22205,-6.092393 -0.17119,0.06435 -2.4855,2.843108 -5.14318,6.17509 -2.65768,3.331995 -5.01093,5.988433 -5.22947,5.903206 -0.21854,-0.08516 -2.10547,-1.434955 -4.19318,-2.999405 -2.08772,-1.56445 -5.49478,-3.894278 -7.57127,-5.177381 -2.07647,-1.283115 -3.77541,-2.451587 -3.77541,-2.596609 0,-0.289877 5.34401,-9.514021 5.77322,-9.964963 0.14684,-0.154258 1.88926,0.71157 3.8721,1.92405 l 3.60518,2.204524 1.17366,-1.582549 c 0.86625,-1.168036 1.0794,-1.695984 0.81376,-2.015662 -0.4127,-0.496658 -7.40305,-4.669149 -10.00468,-5.971725 l -1.74252,-0.872443 -3.51444,7.290499 c -1.93294,4.009782 -3.55206,7.290512 -3.59805,7.290512 -0.046,0 -1.27884,-0.548116 -2.73966,-1.218029 -3.81345,-1.748817 -7.22525,-3.101489 -11.50336,-4.56075 -2.0587,-0.702231 -3.72506,-1.40982 -3.70303,-1.572439 0.022,-0.16262 0.77743,-2.704432 1.67865,-5.64849 1.02238,-3.33992 1.80554,-5.352808 2.08262,-5.352808 0.36708,0 6.07666,1.738207 7.49447,2.281608 0.23098,0.0885 0.6445,-0.403864 0.94718,-1.127406 1.11728,-2.670752 1.15684,-2.589519 -1.76371,-3.621846 -3.22984,-1.141664 -9.59468,-2.970146 -10.3389,-2.970146 -0.42754,0 -0.91368,1.624937 -2.30775,7.713657 -0.97136,4.24251 -1.81787,7.765333 -1.88111,7.828479 -0.0632,0.0632 -2.01101,-0.272201 -4.32844,-0.745237 -2.31741,-0.473049 -6.54866,-1.123746 -9.40277,-1.446005 l -5.1893,-0.585932 v -1.010438 c 0,-2.180028 0.75205,-10.576971 0.96509,-10.775736 0.12436,-0.115864 1.98684,-0.0253 4.13912,0.201206 2.15228,0.22655 4.0225,0.319318 4.15602,0.206152 0.13362,-0.113166 0.34367,-1.063155 0.46699,-2.11105 l 0.2241,-1.90527 -1.82811,-0.220372 c -3.20057,-0.385804 -11.61994,-0.870131 -11.91882,-0.685636 -0.15823,0.09775 -0.28787,3.741229 -0.28787,8.096674 v 7.918987 l -4.84901,0.225214 c -2.66696,0.123827 -6.96309,0.468129 -9.54696,0.765019 -2.58387,0.29689 -4.7656,0.472226 -4.84829,0.389645 -0.11192,-0.111882 -1.8532,-11.030726 -1.8532,-11.621038 0,-0.05639 1.41642,-0.281797 3.14761,-0.500794 5.85768,-0.741011 5.36018,-0.522875 5.35422,-2.347683 -0.008,-2.416624 -0.20965,-2.574889 -2.93434,-2.30234 -2.97321,0.297417 -10.49874,1.576062 -10.96316,1.86274 -0.22992,0.141965 0.23072,2.760077 1.3225,7.515996 0.92149,4.013982 1.67899,7.548674 1.68328,7.854876 0.006,0.422349 -0.7519,0.740601 -3.13977,1.318543 -3.82818,0.926546 -8.699423,2.435582 -12.273211,3.802037 -1.463146,0.559458 -2.735993,0.94155 -2.828539,0.849103 -0.0926,-0.09249 -1.13448,-2.621529 -2.315421,-5.620217 l -2.14712,-5.452139 3.954819,-1.44386 c 2.17514,-0.794113 4.002162,-1.475394 4.060037,-1.51393 0.05794,-0.03853 -0.148167,-0.940586 -0.457862,-2.004551 -0.534511,-1.836343 -0.608859,-1.923009 -1.466347,-1.708778 -1.506749,0.376479 -7.215108,2.555839 -9.82753,3.752006 l -2.458878,1.125878 1.844437,3.73803 c 1.014438,2.055905 2.331058,4.7822 2.925783,6.058404 0.594731,1.276218 1.37242,2.894707 1.728179,3.596644 l 0.646853,1.276256 -1.28389,0.587101 c -2.72542,1.246301 -8.803238,4.649316 -12.049853,6.746802 -1.867773,1.206673 -3.529737,2.111371 -3.693279,2.010421 -0.403198,-0.248888 -6.468162,-9.233663 -6.467686,-9.581369 2.2e-4,-0.151958 1.528604,-1.270385 3.396419,-2.485396 1.8678,-1.214997 3.398904,-2.304536 3.402425,-2.421183 0.01158,-0.376928 -1.745747,-3.356465 -1.979295,-3.356259 -0.767847,6.42e-4 -10.912821,6.997565 -11.189308,7.717189 -0.0926,0.240988 1.938496,3.076594 4.513556,6.301332 2.575057,3.224751 4.807881,6.02723 4.961866,6.227742 0.175948,0.229261 -0.857461,1.284105 -2.784903,2.842321 -1.685687,1.362768 -4.898758,4.309383 -7.140178,6.548036 l -4.07529,4.070257 -4.437856,-4.17041 -4.437854,-4.170411 3.08333,-3.092378 3.08333,-3.092381 -1.463014,-1.434071 c -0.804651,-0.788744 -1.566465,-1.434072 -1.69291,-1.434072 -0.368379,0 -9.104005,9.633952 -9.083711,10.017817 0.01029,0.191367 2.778204,2.53923 6.151305,5.217445 3.373104,2.678241 6.062385,5.048775 5.976178,5.267862 -0.08625,0.219087 -1.381839,2.036022 -2.879214,4.037618 -2.308648,3.0861 -4.657778,6.634227 -7.205292,10.882929 L 41.16062,81.833696 35.986058,78.866773 C 32.313297,76.7609 30.864513,75.757963 30.994,75.410938 c 0.100277,-0.2689 1.018381,-1.888045 2.040043,-3.598095 1.021689,-1.710037 1.857322,-3.248809 1.857005,-3.419483 -6.83e-4,-0.293267 -2.737176,-2.179553 -3.162067,-2.179553 -0.466567,0 -7.2986,11.760202 -7.000648,12.0504 0.06882,0.06692 3.366313,1.684514 7.327898,3.59455 l 7.2029,3.47279 -1.191446,2.591176 c -1.735349,3.774087 -3.091703,7.194482 -4.531587,11.427564 -1.171628,3.444413 -1.33559,3.731363 -2.084811,3.647913 -0.447251,-0.0498 -3.064449,-0.81452 -5.81603,-1.69932 l -5.002853,-1.608723 1.332518,-4.062319 c 0.732885,-2.234273 1.299787,-4.094945 1.259763,-4.134843 -0.04001,-0.03995 -0.882139,-0.391134 -1.871398,-0.780548 l -1.798642,-0.707999 -0.647309,1.508239 c -0.356018,0.82954 -1.102153,3.008824 -1.658083,4.842855 -1.926711,6.356438 -2.061019,6.937788 -1.637905,7.089938 0.217064,0.0781 3.755152,0.91357 7.862415,1.8567 4.10726,0.94313 7.529505,1.77648 7.604999,1.85189 0.07541,0.0754 -0.174096,1.48561 -0.55462,3.13382 -0.801528,3.47163 -1.626817,8.91551 -1.962917,12.94836 -0.129117,1.548 -0.326998,2.87066 -0.439976,2.93926 -0.228864,0.13897 -11.62657,-0.73426 -11.796297,-0.90376 -0.13298,-0.13281 0.503201,-7.41451 0.696862,-7.97637 0.159094,-0.46154 -0.342323,-0.6486 -2.584143,-0.96405 l -1.568325,-0.2207 -0.217673,1.64575 c -0.393959,2.97889 -0.919358,12.04385 -0.717002,12.37086 0.114988,0.18575 3.528103,0.32037 8.122451,0.32037 h 7.924255 l 0.229394,5.18289 c 0.126206,2.85059 0.470932,7.07193 0.766313,9.38077 0.295354,2.30882 0.407141,4.31146 0.248444,4.45029 -0.356791,0.31201 -11.298897,1.87972 -11.527335,1.65157 -0.0908,-0.0907 -0.403876,-1.98373 -0.695782,-4.20683 -0.291907,-2.22308 -0.575546,-4.08674 -0.63032,-4.14144 -0.0548,-0.0547 -0.983483,0.004 -2.063811,0.13111 l -1.964213,0.23057 0.222964,2.67027 c 0.268152,3.21155 1.512909,10.55908 1.842704,10.87714 0.129407,0.12485 3.527538,-0.52122 7.551371,-1.43564 4.023819,-0.91441 7.566983,-1.66652 7.873667,-1.67135 0.370179,-0.006 0.632381,0.38926 0.780018,1.17522 0.49538,2.63741 2.634218,9.8907 3.926486,13.31578 0.75639,2.00473 1.259522,3.75484 1.118102,3.88915 -0.53504,0.50808 -10.801083,4.35086 -10.998629,4.117 -0.113823,-0.13476 -0.713401,-1.62144 -1.332415,-3.30376 -0.619014,-1.68231 -1.249963,-3.39579 -1.402098,-3.80772 -0.271987,-0.73645 -0.303843,-0.73994 -1.907344,-0.20971 -0.896917,0.29657 -1.76366,0.65929 -1.926096,0.80604 -0.519263,0.46908 4.210061,12.89744 4.907824,12.89744 0.159385,0 2.708676,-1.16363 5.66512,-2.58585 2.956443,-1.42222 6.178661,-2.94941 7.160484,-3.39373 l 1.785144,-0.80789 1.403297,2.79898 c 1.785197,3.56073 3.611031,6.72506 6.192189,10.73169 1.167368,1.81206 1.901693,3.27077 1.710849,3.39861 -0.183885,0.12318 -2.440331,1.6528 -5.014338,3.39916 -2.573999,1.74635 -4.726858,3.12278 -4.784114,3.05875 -0.05715,-0.0641 -1.120219,-1.69151 -2.362147,-3.6166 l -2.258033,-3.50017 -1.695688,0.95121 c -0.93263,0.52316 -1.695847,1.10621 -1.696033,1.29567 -3.46e-4,0.40029 3.628795,5.95567 5.980372,9.15438 0.916279,1.24637 1.77628,2.10211 1.986121,1.97625 0.203465,-0.12203 3.005984,-2.33335 6.227675,-4.91392 3.221689,-2.58057 5.995662,-4.69194 6.164371,-4.69194 0.168804,0 1.283441,1.18526 2.477188,2.63392 1.193747,1.44867 4.107905,4.62211 6.475918,7.05212 l 4.305477,4.41821 -3.936119,4.24826 c -2.164847,2.33655 -4.060179,4.24827 -4.211799,4.24827 -0.151606,0 -1.670129,-1.28437 -3.374413,-2.85418 l -3.098726,-2.85417 -1.416526,1.42923 -1.416527,1.42923 3.574995,3.46412 c 3.696263,3.58161 6.741075,6.20801 6.928178,5.97612 1.969717,-2.44137 9.636492,-12.07734 9.792522,-12.30772 0.120386,-0.1779 1.498627,0.66966 3.062534,1.88346 2.994705,2.32431 7.544104,5.41625 11.077635,7.52877 l 2.1091,1.26092 -2.403819,4.14941 c -1.322096,2.28217 -2.701269,4.64078 -3.064825,5.24136 l -0.661008,1.09194 -3.592063,-2.1965 c -1.975617,-1.20807 -3.637796,-2.19649 -3.693702,-2.19649 -0.238919,0 -2.202207,2.8877 -2.202207,3.23915 0,0.51907 10.873841,6.95669 11.75063,6.95669 0.114565,0 1.74244,-3.17346 3.61768,-7.05212 1.875234,-3.87867 3.470423,-7.11421 3.544837,-7.19009 0.151341,-0.15428 1.161573,0.24768 6.097558,2.42619 1.87153,0.82603 5.316895,2.16678 7.65633,2.97946 2.339442,0.81268 4.289392,1.49962 4.333232,1.52654 0.0929,0.0572 -3.33407,11.15951 -3.500467,11.34001 -0.06165,0.0669 -1.943629,-0.49037 -4.182163,-1.23828 l -4.070096,-1.35984 -0.72464,1.8913 c -0.573008,1.4955 -0.633386,1.95029 -0.288555,2.17318 0.966549,0.62476 12.781611,4.20774 13.036321,3.95334 0.0656,-0.0655 0.90143,-3.54494 1.85759,-7.7322 0.95615,-4.18727 1.80414,-7.71936 1.88444,-7.84913 0.0802,-0.12976 1.30254,0.0393 2.71608,0.37565 2.18567,0.52009 10.08034,1.69479 15.04258,2.23829 1.3394,0.14669 1.42386,0.21738 1.28159,1.07269 -0.0836,0.50359 -0.31263,3.12519 -0.50856,5.82574 -0.19605,2.70055 -0.43055,4.98432 -0.52136,5.07503 -0.0907,0.0907 -1.94937,-0.0208 -4.13011,-0.24787 -2.18075,-0.22703 -4.08295,-0.29321 -4.2271,-0.14704 -0.1442,0.14616 -0.36685,1.06107 -0.49483,2.03313 -0.2196,1.66685 -0.18679,1.77806 0.57449,1.95548 1.33538,0.31119 7.07441,0.76979 10.25004,0.81907 l 2.97747,0.0462 z m -5.61465,-12.62008 c -11.87453,-0.82077 -23.81103,-3.98196 -35.13853,-9.30589 -26.19738,-12.31278 -46.360849,-36.5515 -53.680565,-64.52997 -2.294012,-8.76852 -3.212444,-16.0004 -3.221189,-25.36433 -0.0064,-7.26117 0.384533,-11.84793 1.563476,-18.32659 4.423093,-24.306112 18.365589,-46.827047 38.073443,-61.498951 11.144192,-8.296514 21.850863,-13.495398 34.687155,-16.843192 9.61327,-2.507195 17.92537,-3.41915 28.43508,-3.119703 15.03082,0.42827 27.51888,3.501872 41.00393,10.09204 9.79709,4.787852 17.31133,10.086551 25.30173,17.841634 16.16696,15.690858 25.77049,34.290874 29.51114,57.156852 0.73673,4.50353 1.03772,19.1321 0.50363,24.47783 -0.94199,9.42872 -3.92117,20.88913 -7.70176,29.62739 -14.19397,32.80729 -45.97253,56.15946 -80.96488,59.49632 -4.75046,0.453 -13.95888,0.60164 -18.37266,0.29656 z m 21.2676,-4.51076 c 17.15845,-2.68179 32.19192,-9.11324 45.59774,-19.50711 3.74885,-2.90659 11.25572,-10.21398 14.71214,-14.3212 7.85997,-9.33989 14.78903,-22.384 18.23464,-34.32707 2.74338,-9.50902 3.59535,-15.75375 3.61647,-26.50812 0.0181,-9.23671 -0.1852,-11.39697 -1.85435,-19.71196 -5.66104,-28.198799 -24.49044,-52.774702 -50.53199,-65.953763 -10.35426,-5.240053 -19.59319,-8.081928 -31.6156,-9.7249 -5.04878,-0.689965 -17.54699,-0.772007 -22.48919,-0.14763 -34.718252,4.386171 -63.198644,25.428561 -77.228492,57.059332 -6.599486,14.878801 -9.334079,33.442211 -7.320502,49.694351 2.717085,21.9303 12.648006,41.8067 28.617028,57.27598 4.979884,4.82405 8.163943,7.3885 14.029372,11.29937 12.281212,8.18864 27.559284,13.6719 42.753304,15.34403 4.43454,0.48802 19.24336,0.19076 23.47943,-0.47131 z m -21.09745,-1.07627 C 106.14672,224.34975 90.062529,218.19416 75.215029,207.12561 70.272699,203.44118 61.324544,194.59393 57.64473,189.75342 39.652833,166.08652 33.700695,136.60056 41.175592,108.16796 47.761627,83.116426 64.471202,61.955882 87.641531,49.324821 96.624373,44.427914 108.95659,40.409667 119.2815,39.015467 c 7.69514,-1.039096 19.28488,-0.973843 26.80576,0.150918 35.50224,5.309416 64.82943,30.209399 75.88817,64.432185 7.83646,24.25098 5.21623,51.64069 -7.06066,73.80618 -11.51893,20.79703 -29.94735,36.26964 -52.27618,43.89142 -9.77053,3.33509 -17.58026,4.64995 -28.55484,4.80755 -4.30457,0.0618 -8.51555,0.0484 -9.35774,-0.0297 z m -2.8924,-10.90854 c 2.21504,-0.69397 4.78812,-2.3498 6.35764,-4.0913 2.09725,-2.32704 2.49999,-5.17928 1.26301,-8.94463 -0.68341,-2.08033 -1.55617,-4.04952 -1.79474,-4.04952 -0.0614,0 0.10001,0.80293 0.35832,1.78429 0.70117,2.66259 0.18574,4.91968 -1.70714,7.47694 -1.06514,1.43892 -1.24053,1.10957 -0.34743,-0.65235 0.48064,-0.94818 0.80444,-2.18486 0.80444,-3.07229 0,-1.52619 -1.16451,-4.33863 -1.66777,-4.02796 -0.15426,0.0953 -0.47808,0.87776 -0.71948,1.73891 -0.2413,0.86115 -1.00299,2.43271 -1.69244,3.49233 -2.57913,3.96402 -5.7335,5.90487 -10.45675,6.43392 l -2.23856,0.25075 0.92813,1.10047 c 2.73791,3.24636 6.16037,4.04935 10.91277,2.56044 z m 28.5518,0.0218 c 1.05261,-0.52794 3.94509,-3.11934 3.94509,-3.53444 0,-0.121 -0.96715,-0.31016 -2.14921,-0.42041 -2.96076,-0.27613 -5.85515,-1.43365 -7.59875,-3.03886 -1.83266,-1.68718 -4.06968,-5.18564 -4.61283,-7.21389 -0.22674,-0.84712 -0.54245,-1.54023 -0.7013,-1.54023 -0.15875,0 -0.60381,0.71115 -0.98878,1.58035 -0.8442,1.90613 -0.71887,3.82914 0.38868,5.96336 l 0.75901,1.4626 -0.9302,-0.84964 c -2.04726,-1.87001 -2.84205,-5.96771 -1.69111,-8.71889 0.74568,-1.78244 0.61841,-1.84989 -0.33793,-0.17913 -1.08714,1.89926 -2.21419,5.55992 -2.21419,7.19178 0,4.57613 4.6294,8.82068 10.88902,9.98382 1.34601,0.25011 4.09216,-0.10944 5.2425,-0.68642 z m -42.28987,-7.41364 c -1.66806,-1.80739 -1.88936,-3.36151 -0.63883,-4.48593 1.35535,-1.21864 1.81356,-1.30135 0.85071,-0.15356 -1.11053,1.32383 -1.15824,1.77651 -0.27164,2.57787 0.85719,0.77479 4.44485,1.07697 6.42691,0.54133 2.75528,-0.74459 5.45164,-4.25303 5.75914,-7.49363 0.22966,-2.42003 -1.94964,-7.45962 -4.96423,-11.4799 -0.75777,-1.01054 -0.88842,-1.0662 -1.40555,-0.59879 -0.31358,0.28343 -1.05775,0.61273 -1.6537,0.73178 -0.59597,0.11907 -1.07778,0.31203 -1.07069,0.42886 0.008,0.11689 0.60706,0.62262 1.33326,1.12399 1.99361,1.3764 3.13265,3.57201 3.28079,6.324 0.1098,2.04089 0.0873,2.14174 -0.21484,0.95968 -0.70681,-2.76617 -2.39345,-4.8528 -4.41881,-5.46675 -0.77433,-0.23473 -0.74173,-0.14735 0.39444,1.05678 2.41268,2.55698 3.20533,5.676 2.19056,8.61966 l -0.52723,1.52937 0.16113,-1.39211 c 0.0886,-0.76567 0.0669,-1.48601 -0.0479,-1.60079 -0.11483,-0.1147 -0.68718,0.0455 -1.27169,0.35596 -0.84291,0.44782 -1.89749,0.55111 -5.09753,0.49925 l -4.03474,-0.0654 -0.9844,1.05252 c -1.4555,1.5562 -1.269,2.33972 1.19377,5.01487 0.92133,1.00078 5.25331,3.4427 6.10738,3.4427 0.1696,0 -0.32387,-0.6848 -1.09632,-1.52178 z m 49.86769,0.49613 c 2.51482,-1.08508 5.55488,-4.3418 5.55488,-5.95077 0,-0.30405 -0.44556,-0.99782 -0.99013,-1.54172 l -0.99012,-0.9889 -4.02903,0.0766 c -3.30595,0.0628 -4.2275,-0.0311 -5.13495,-0.52305 l -1.1059,-0.59956 -0.005,1.45313 c -0.006,1.85061 -0.53819,1.13578 -0.85246,-1.14637 -0.33541,-2.43575 0.55081,-5.05544 2.34175,-6.92226 1.52021,-1.58463 1.50585,-1.85858 -0.0548,-1.04428 -1.56546,0.81684 -2.81018,2.412 -3.50527,4.49219 l -0.6668,1.99553 0.15108,-2.15641 c 0.20373,-2.90914 1.31334,-5.01334 3.37596,-6.40234 1.69214,-1.13953 1.69579,-1.2281 0.0664,-1.61658 -0.56147,-0.13387 -1.28109,-0.47761 -1.59917,-0.76385 -0.53171,-0.47851 -0.70601,-0.32327 -2.16302,1.92627 -4.17091,6.4396 -4.98039,10.03957 -3.04726,13.55194 1.89304,3.43953 4.28531,4.67336 8.4853,4.37633 1.74877,-0.1237 2.47272,-0.32547 2.80734,-0.78253 0.64262,-0.87774 0.56734,-1.31515 -0.43006,-2.49905 -0.48453,-0.5751 -0.73009,-1.04566 -0.54567,-1.04566 0.39819,0 2.44747,2.26792 2.44747,2.7086 0,0.85492 -0.84071,2.28998 -1.95818,3.34261 -1.1035,1.03943 -1.15197,1.14837 -0.41188,0.92569 0.46133,-0.1388 1.4782,-0.52827 2.2597,-0.86546 z m -54.75889,-10.83887 c 1.41139,-0.27269 4.16731,-1.88582 4.16731,-2.43926 0,-0.15237 -0.6508,0.018 -1.44619,0.37861 -2.16418,0.98114 -5.11825,0.89348 -7.351856,-0.21821 -0.982187,-0.48882 -1.739583,-0.93321 -1.683147,-0.98751 0.05636,-0.0543 1.037537,0.14545 2.180272,0.44389 1.960851,0.51211 2.171281,0.50663 3.743101,-0.0976 l 1.66545,-0.64024 -3.74311,-0.59193 c -2.058694,-0.32556 -4.334899,-0.70127 -5.05823,-0.83491 -1.260687,-0.23292 -1.304793,-0.21046 -1.065371,0.5429 0.979831,3.08341 1.770909,3.89172 4.292989,4.38659 1.956702,0.38394 2.567672,0.39214 4.298812,0.0577 z m 64.25188,-0.57499 c 1.0233,-0.48498 1.77623,-1.70143 2.37628,-3.83912 0.21669,-0.77174 0.16801,-0.80271 -0.91607,-0.58397 -2.96774,0.59878 -6.95183,1.23165 -7.90995,1.25649 l -1.06135,0.0275 1.36112,0.66078 c 1.43021,0.69431 3.98194,0.65476 5.36238,-0.0831 0.35795,-0.19134 0.73654,-0.2623 0.84129,-0.15767 0.10478,0.10456 -0.63571,0.57433 -1.64547,1.0438 -2.34116,1.08848 -5.24807,1.14939 -7.4409,0.15594 l -1.5216,-0.68936 0.84103,0.89796 c 1.61462,1.72391 3.27864,2.23896 6.439,1.99303 1.20732,-0.0939 2.68073,-0.40097 3.27424,-0.68226 z m -42.50516,-4.345 c 2.46536,-2.69331 3.97244,-5.56812 3.94287,-7.5212 -0.0217,-1.43738 -0.84076,-3.35066 -2.10709,-4.92236 -0.83746,-1.03943 -0.89646,-0.68085 -0.12858,0.78156 0.88079,1.67749 0.79126,5.16912 -0.17622,6.86531 -0.4264,0.74769 -0.69871,1.10267 -0.6051,0.78882 1.02524,-3.43781 0.0328,-6.52985 -2.69512,-8.39673 -0.99422,-0.68043 -1.23947,-0.71306 -2.66456,-0.35466 -1.16388,0.2927 -1.73945,0.66999 -2.22689,1.45976 -1.22312,1.98173 -1.20304,2.63722 0.1344,4.38664 1.45939,1.90894 3.03647,5.14216 3.62286,7.42728 0.23362,0.91083 0.53557,1.65605 0.67077,1.65605 0.1352,0 1.13985,-0.97671 2.23258,-2.17047 z m 17.97605,-0.79415 c 0.84958,-2.49915 1.77229,-4.17845 4.07331,-7.41338 0.22066,-0.31026 0.10689,-0.98725 -0.35134,-2.09246 -0.70183,-1.69214 -1.41325,-2.22449 -3.48339,-2.6066 -1.01062,-0.18654 -1.29328,-0.0414 -2.74787,1.41144 -1.93622,1.93383 -2.61871,3.96478 -2.10291,6.25774 0.43045,1.91344 0.24342,1.98971 -0.4904,0.19993 -0.75624,-1.84454 -0.77399,-4.80235 -0.0392,-6.53093 0.56427,-1.32746 0.56372,-1.33096 -0.11245,-0.71978 -1.07244,0.96935 -2.0578,3.32394 -2.0578,4.91731 0,1.90102 1.53522,4.78821 3.98195,7.48858 1.02298,1.12903 1.96397,2.05277 2.09116,2.05277 0.12726,0 0.68471,-1.33408 1.23902,-2.96462 z m -41.43968,-2.82244 c 3.49125,-1.7166 5.58718,-4.82507 6.7538,-10.0165 0.33605,-1.49538 0.72081,-2.84776 0.85503,-3.00526 0.13415,-0.15751 0.43318,0.77082 0.66437,2.06295 0.35809,2.00121 0.34129,2.6228 -0.11324,4.19479 l -0.53369,1.84544 0.86175,-1.01958 c 1.60906,-1.90377 2.67171,-4.58534 2.65877,-6.70932 -0.009,-1.45969 0.0736,-1.80218 0.32655,-1.35946 0.18627,0.32551 0.33129,1.67067 0.32256,2.98925 -0.0116,1.83511 -0.22755,2.87142 -0.91829,4.41821 l -0.90239,2.02077 0.96681,-1.11654 c 1.9562,-2.25917 2.3952,-5.58828 1.58576,-12.02531 -0.46908,-3.73048 -0.50681,-4.98882 -0.19447,-6.49103 0.5503,-2.64757 1.9337,-4.65327 3.95439,-5.73329 2.63396,-1.40779 3.60985,-1.55301 1.68114,-0.25015 -1.50246,1.01492 -3.58862,3.79736 -3.1646,4.22084 0.0802,0.08 1.05365,-0.17975 2.16337,-0.57733 2.97632,-1.06632 7.33798,-1.02208 10.62381,0.10778 1.36461,0.46922 2.55434,0.73484 2.6438,0.59024 0.2487,-0.40182 -0.39781,-2.94142 -0.97124,-3.8155 -0.64367,-0.98116 -3.88899,-2.71357 -6.48593,-3.46232 -1.35385,-0.39032 -2.84589,-0.53559 -4.65747,-0.45342 -1.46603,0.0665 -2.48372,0.0221 -2.26155,-0.0986 0.97742,-0.53138 4.51251,-1.01406 6.12629,-0.83648 1.72415,0.18974 1.74088,0.18316 0.743,-0.29198 -1.80851,-0.86115 -4.58977,-1.27017 -7.77749,-1.14378 -2.53484,0.10045 -3.50551,0.30385 -5.23742,1.09719 -3.58588,1.64261 -5.66643,4.43069 -6.2375,8.35872 -0.24262,1.6688 -0.26273,1.55711 -0.18706,-1.04162 0.0701,-2.40932 0.23813,-3.185 0.97521,-4.50195 1.04502,-1.86742 0.50273,-1.74752 -1.50961,0.33378 -2.18366,2.25847 -3.03272,4.65954 -3.38709,9.57826 -0.53803,7.46853 -1.638217,11.67005 -3.850332,14.70446 -2.531216,3.47209 -6.876912,3.96233 -9.583044,1.08109 l -0.894,-0.95185 0.235479,0.84965 c 0.324405,1.16995 3.043989,3.5781 5.278823,4.6743 2.350294,1.15284 4.840626,1.19662 6.672218,0.11728 1.609436,-0.94842 1.866136,-0.72029 0.415078,0.36893 -1.48717,1.11634 -2.108491,1.33846 -4.517993,1.6152 l -2.041684,0.2345 1.190996,0.39369 c 1.950746,0.64484 5.318783,0.22817 7.727049,-0.95596 z m 69.34673,0.87135 1.02084,-0.46686 -1.7014,-0.0351 c -1.92156,-0.0396 -4.09224,-0.91093 -5.10423,-2.04886 l -0.68056,-0.76526 1.35366,0.79657 c 2.94604,1.7336 7.56626,0.45408 10.72705,-2.97073 1.72786,-1.87219 1.75866,-2.52062 0.0548,-1.15301 -2.49373,2.00152 -5.37139,1.80638 -7.87671,-0.53418 -2.91962,-2.72757 -4.21495,-6.68831 -4.91258,-15.02132 -0.52914,-6.32017 -0.99422,-7.65698 -3.6336,-10.4443 -0.97534,-1.03001 -1.82936,-1.81682 -1.89783,-1.74844 -0.0685,0.0683 0.26008,0.94946 0.73017,1.95797 0.69358,1.4881 0.8465,2.31406 0.81139,4.38264 l -0.0431,2.54895 -0.23813,-2.03916 c -0.43415,-3.71577 -2.5536,-6.47884 -6.30412,-8.21855 -2.61297,-1.21206 -6.77816,-1.46834 -10.4648,-0.64393 -3.23398,0.72321 -4.17493,1.33868 -1.61285,1.05497 1.69555,-0.18775 4.99561,0.24839 6.01386,0.7948 0.22093,0.11856 -0.85204,0.16308 -2.38424,0.099 -3.15229,-0.13176 -5.70009,0.54782 -8.97551,2.39407 -2.03592,1.14759 -2.82323,2.38821 -2.82323,4.44878 v 1.14051 l 2.46703,-0.8315 c 3.2915,-1.10937 7.67248,-1.154 10.62201,-0.10828 2.39638,0.84966 2.22361,0.82721 2.22361,0.28881 0,-0.86754 -1.8042,-3.04835 -3.34824,-4.04717 -1.78824,-1.1568 -0.85429,-1.04938 1.64369,0.18905 2.04653,1.0146 3.59127,3.10349 4.109,5.5564 0.33308,1.57808 0.32147,2.75819 -0.0595,6.03964 -0.66538,5.73172 -0.56303,8.78708 0.36658,10.94538 0.41479,0.96303 1.04455,2.01343 1.39946,2.33421 0.56224,0.5082 0.53353,0.30859 -0.22278,-1.55066 -0.94033,-2.3113 -1.17001,-5.59141 -0.50004,-7.14079 0.33502,-0.77477 0.35179,-0.74415 0.19024,0.34738 -0.254,1.71559 0.56602,4.49722 1.90354,6.45723 0.63453,0.92983 1.27755,1.6909 1.42897,1.69126 0.15134,3.4e-4 0.1643,-0.17873 0.0286,-0.39798 -0.73718,-1.1913 -0.66328,-5.94761 0.11166,-7.20026 0.12065,-0.19491 0.49485,0.92495 0.83163,2.48859 0.68607,3.18518 2.08595,6.42298 3.4981,8.09076 2.49862,2.95094 8.30586,4.66466 11.24775,3.31926 z M 61.982875,183.68445 C 45.086724,158.25496 41.908684,125.87862 53.521199,97.48106 57.326753,88.174835 64.441288,76.887592 70.391061,70.716972 c 0.765995,-0.794422 1.273571,-1.444412 1.127945,-1.444412 -0.345784,0 -4.421484,4.334829 -7.247144,7.707915 -5.062823,6.043671 -10.745126,15.769599 -13.764357,23.559335 -4.536679,11.70483 -6.58925,24.88066 -5.75894,36.96791 0.413914,6.02575 0.420688,6.07699 1.605174,12.14206 2.09931,10.74932 6.586588,21.54282 12.851585,30.91265 2.452106,3.66734 5.182471,7.32175 5.470377,7.32175 0.05371,0 -1.158108,-1.88988 -2.692826,-4.19973 z m 142.184575,-1.40797 c 8.04518,-11.48851 13.23287,-25.00839 15.19246,-39.59386 0.5502,-4.09527 0.55856,-16.49799 0.014,-20.73154 -1.56346,-12.15396 -6.0152,-25.032047 -12.09121,-34.977704 -1.07543,-1.760364 -3.22056,-4.895584 -4.76694,-6.96716 -2.93211,-3.927959 -9.69824,-11.561783 -9.98964,-11.270738 -0.0923,0.09223 0.91469,1.341368 2.238,2.775723 1.32332,1.434367 3.80382,4.537975 5.51226,6.89691 9.37767,12.948366 14.87958,26.994339 17.05604,43.542969 0.71498,5.43634 0.54655,17.64376 -0.32592,23.62037 -2.10992,14.45356 -7.13039,27.40987 -15.27645,39.42391 -1.11112,1.63871 -1.41862,2.24631 -0.77404,1.52938 0.58822,-0.65423 2.03337,-2.56595 3.21146,-4.24826 z m -122.262443,1.90778 c 1.949424,-1.23476 2.998513,-3.25495 3.031964,-5.83853 0.01749,-1.34566 0.103187,-1.66243 0.316362,-1.16717 0.160867,0.37384 0.303213,1.17677 0.316362,1.78426 0.02752,1.27848 0.430636,1.37242 1.941116,0.4525 2.079519,-1.26647 3.867584,-4.65045 3.867584,-7.31955 0,-0.63286 0.382561,-3.40613 0.850133,-6.16284 0.467571,-2.75671 0.796184,-5.06609 0.73025,-5.13196 -0.191294,-0.19115 -3.196971,3.01045 -4.173292,4.44548 -1.126225,1.65534 -2.159132,4.56613 -2.21107,6.23094 -0.03863,1.23954 -0.04948,1.22718 -0.316918,-0.36524 -0.1524,-0.90651 -0.147902,-2.43589 0.01029,-3.39861 0.283131,-1.72863 1.490716,-5.15742 2.055919,-5.83762 0.370125,-0.44541 -0.797481,-4.03094 -1.778053,-5.46025 -0.931783,-1.35817 -1.936777,-2.03506 -2.109417,-1.42077 -0.06694,0.23789 -0.852938,2.72658 -1.746859,5.53045 -1.9998,6.27259 -2.05568,7.37922 -0.538718,10.66775 1.036823,2.24767 1.129374,2.69442 0.937683,4.52618 -0.376687,3.59942 -2.445861,6.93904 -4.833614,7.8014 -1.41224,0.51005 -1.465951,0.79945 -0.231775,1.24961 1.527281,0.55712 2.250122,0.44801 3.882644,-0.58603 z m 104.361193,0.60793 c 1.37377,-0.47831 1.3508,-0.74897 -0.10822,-1.27591 -2.55889,-0.92417 -4.67132,-4.72812 -4.73603,-8.52847 -0.0248,-1.45796 0.19949,-2.35173 0.98528,-3.92676 1.41049,-2.82699 1.33069,-4.65483 -0.43035,-9.85598 -0.75946,-2.24309 -1.48394,-4.57538 -1.60991,-5.18288 -0.28498,-1.37413 -0.88529,-1.40136 -1.98988,-0.0903 -0.82608,0.98055 -2.26851,4.31467 -2.26851,5.24362 0,0.25012 0.3705,1.29145 0.82331,2.31408 1.1534,2.60483 1.69984,5.65713 1.36779,7.64018 l -0.27305,1.63056 -0.23389,-1.95876 c -0.31832,-2.66458 -1.94374,-5.79515 -4.24781,-8.18116 -1.05334,-1.0908 -1.9593,-1.93197 -2.01327,-1.86924 -0.0974,0.11316 1.23134,9.2823 1.86208,12.84967 0.39794,2.25072 1.81822,4.65005 3.37134,5.69542 1.52062,1.02349 2.06047,0.98124 2.08979,-0.16352 0.0131,-0.51404 0.15557,-1.2405 0.31636,-1.61434 0.2286,-0.53159 0.29768,-0.37599 0.31636,0.71397 0.0466,2.72312 1.25468,4.83716 3.59688,6.29499 1.18112,0.73514 1.70569,0.77878 3.18189,0.26481 z m -91.546237,-6.21076 c 0.875877,-0.58466 2.079652,-1.79099 2.675017,-2.68074 1.555512,-2.32464 1.942042,-4.65764 1.646396,-9.93756 -0.233362,-4.17033 -0.255058,-6.36964 -0.08202,-8.3266 0.147638,-1.66797 -2.870776,-1.12535 -3.844086,0.69104 -0.268684,0.50144 -0.254794,1.98079 0.0508,5.39163 0.337688,3.76973 0.335783,5.17736 -0.01029,7.10826 -0.419338,2.34359 -2.084758,6.32251 -3.444856,8.23023 -0.370417,0.51957 -0.673497,1.02783 -0.673497,1.12943 0,0.36236 2.115767,-0.56036 3.68183,-1.60569 z m 77.649227,-0.24876 c -1.5698,-2.4258 -2.49775,-4.75734 -3.08994,-7.76367 -0.34295,-1.74107 -0.33946,-3.07713 0.018,-6.88289 0.36023,-3.8351 0.36193,-4.87486 0.009,-5.53354 -0.50562,-0.94361 -1.97504,-1.64024 -3.11865,-1.47853 -0.67861,0.096 -0.77407,0.2653 -0.63841,1.13242 0.20372,1.30278 0.1606,3.46401 -0.16458,8.22561 -0.38922,5.70017 0.53108,9.30232 2.9501,11.54718 0.81303,0.75451 4.53673,2.82799 5.07866,2.82799 0.16405,0 -0.30583,-0.93356 -1.04419,-2.07457 z m -45.88124,-7.11515 c 4.14375,-0.92187 6.52109,-0.91843 11.37926,0.0164 4.41963,0.85049 5.94843,0.77284 7.41131,-0.37644 0.92102,-0.72357 1.19711,-2.34658 0.56806,-3.33925 -0.46016,-0.72619 -26.10911,-0.79166 -26.99045,-0.0688 -0.95747,0.78519 -0.77523,2.59004 0.34028,3.37015 1.86468,1.30402 2.95218,1.36338 7.29152,0.398 z m -52.120361,-1.51673 c 4.360728,-1.53571 6.871936,-6.76302 6.938595,-14.4433 0.03228,-3.71199 -0.01942,-4.01942 -1.027933,-6.11751 -0.584015,-1.21499 -1.593718,-2.81347 -2.243825,-3.55216 l -1.181947,-1.34306 0.156898,4.40182 c 0.112713,3.15626 0.0051,5.20007 -0.377904,7.22285 -0.5665,2.98759 -2.320105,7.01952 -3.79879,8.73424 l -0.87921,1.0196 0.69641,-1.43372 c 0.909346,-1.87209 1.709446,-5.30807 1.684258,-7.23275 -0.01968,-1.50742 -0.02858,-1.49521 -0.61222,0.84966 -0.828066,3.32666 -1.643142,4.85388 -3.186424,5.97045 -2.609559,1.88802 -6.037472,1.61115 -11.028765,-0.89076 -2.670516,-1.33862 -2.779101,-1.36471 -2.179452,-0.52361 1.248436,1.75109 4.312486,4.69583 6.147911,5.90853 3.379354,2.23278 7.191198,2.73311 10.892282,1.42972 z m 125.217861,-0.56604 c 2.17212,-1.06801 6.87103,-5.29228 7.78571,-6.99927 0.34348,-0.64103 0.0672,-0.56193 -2.08283,0.59637 -3.07324,1.65564 -6.32064,2.52885 -8.36424,2.24909 -3.24541,-0.44428 -4.99405,-2.4884 -6.14981,-7.18899 -0.63608,-2.58709 -0.66601,-2.63672 -0.68958,-1.14441 -0.0275,1.73313 1.00121,6.11378 1.84353,7.85137 l 0.54505,1.12436 -0.87771,-1.0196 c -1.17607,-1.36621 -2.75102,-4.68358 -3.48721,-7.34525 -0.45567,-1.64748 -0.60042,-3.45444 -0.60042,-7.49487 0,-4.21575 -0.0884,-5.25073 -0.42461,-4.97196 -1.10418,0.91551 -3.11914,4.51947 -3.6764,6.57563 -0.54853,2.02392 -0.57539,2.68231 -0.23336,5.72259 0.87489,7.77856 3.23205,11.62676 7.92652,12.94047 2.73601,0.76565 5.75487,0.44705 8.4854,-0.89553 z M 69.107323,158.15723 c 0.826321,-1.97522 0.624444,-5.29663 -0.531362,-8.74224 -1.307359,-3.8974 -3.24354,-8.09181 -3.735255,-8.09181 -0.817113,0 -2.367995,4.19139 -2.705436,7.31171 -0.514483,4.7576 -1.493256,7.11905 -3.289377,7.93641 -1.340829,0.61017 -0.79248,0.79917 1.09638,0.37787 3.221485,-0.71852 6.255287,-3.29825 6.255287,-5.31906 0,-0.41289 0.153194,-0.84521 0.340281,-0.96074 0.524087,-0.3235 0.408437,1.64501 -0.202142,3.4412 -0.523266,1.53936 -0.515434,1.64482 0.221986,2.98566 1.466717,2.66717 1.816841,2.81285 2.54971,1.061 z m 127.817327,0.58384 c 0.2776,-0.32712 0.81757,-1.14366 1.19994,-1.81453 0.60717,-1.06526 0.63765,-1.32359 0.24077,-2.03917 -0.25003,-0.45067 -0.44323,-1.73701 -0.42936,-2.85856 l 0.0252,-2.03917 0.28697,1.45443 c 0.54427,2.75848 2.78288,4.73535 6.23404,5.5051 2.01922,0.45036 2.30492,0.27819 0.90694,-0.54659 -1.50551,-0.88823 -2.42285,-3.06814 -2.92991,-6.96243 -0.48811,-3.74867 -1.19433,-6.1583 -2.1798,-7.43726 -0.47249,-0.61322 -0.75814,-0.74668 -1.02653,-0.47961 -0.66191,0.65868 -3.68487,8.48831 -4.10942,10.64364 -0.44056,2.23658 -0.27678,5.29865 0.34552,6.46002 0.46317,0.8644 0.77779,0.88941 1.4357,0.11419 z m -59.92019,-6.80259 c 0.54589,-0.61045 0.99253,-1.46435 0.99253,-1.89756 0,-1.18859 0.23284,-1.24111 2.32087,-0.5236 3.21405,1.10443 5.03745,0.0789 4.77357,-2.68474 l -0.12382,-1.29684 1.87412,0.96289 c 5.66139,2.90876 14.78911,3.01791 20.63526,0.24677 3.6453,-1.72791 6.36906,-4.70551 8.72168,-9.53447 2.82411,-5.79673 2.82198,-5.857 -0.12595,-3.55321 -1.37239,1.07249 -3.08764,2.25183 -3.81166,2.62074 -1.16631,0.59427 -1.0396,0.40994 1.11144,-1.61673 1.33532,-1.25811 2.91256,-2.91215 3.50499,-3.67562 l 1.07714,-1.38815 -1.71069,1.56906 c -3.29815,3.02511 -7.55116,5.3281 -10.85422,5.87752 -1.25325,0.20846 -1.15044,0.11021 1.29706,-1.23992 2.6356,-1.45385 6.88903,-4.60134 6.6035,-4.8865 -0.0817,-0.0816 -1.28021,0.30034 -2.66342,0.84875 -1.38318,0.5484 -4.18738,1.41178 -6.23153,1.91862 -3.25406,0.80682 -4.18579,0.90118 -7.48619,0.75816 -4.90443,-0.21254 -9.41109,-1.5973 -11.89907,-3.65622 -0.91527,-0.75745 -1.72987,-1.31153 -1.81023,-1.2313 -0.26035,0.2601 1.17081,2.7233 2.42872,4.17989 0.67408,0.78055 2.02729,1.88598 3.00717,2.4565 2.33069,1.35704 1.76987,1.34012 -1.01812,-0.0307 -1.56657,-0.77028 -2.75072,-1.70265 -4.1005,-3.2287 -1.04381,-1.18009 -2.01631,-2.14564 -2.16112,-2.14564 -0.14472,0 -0.19182,1.33821 -0.10477,2.9738 l 0.15849,2.97378 -0.68319,-2.37903 c -0.37576,-1.30847 -1.15591,-4.06134 -1.7337,-6.1175 -3.27611,-11.6587 -7.48712,-14.28576 -10.98588,-6.85359 -1.36642,2.90256 -2.19128,5.35665 -3.78872,11.27178 l -1.19317,4.41819 0.19553,-3.14371 c 0.10742,-1.72904 0.0648,-3.14372 -0.0947,-3.14372 -0.15955,0 -1.08202,0.89853 -2.04989,1.99673 -1.71527,1.94625 -3.81789,3.44247 -5.53755,3.94055 -0.54547,0.15798 -0.30128,-0.10996 0.68056,-0.74669 1.94551,-1.26172 3.50204,-3.03623 4.63854,-5.2881 0.96536,-1.91276 1.05444,-1.93168 -1.65108,0.35062 -1.86782,1.57568 -7.08246,3.16117 -11.15556,3.39185 -4.08958,0.23159 -6.81647,-0.23085 -12.41894,-2.10606 -2.433029,-0.81436 -4.46926,-1.43547 -4.524989,-1.38025 -0.262996,0.2606 4.131199,3.3909 6.481603,4.61727 1.450446,0.7568 2.637186,1.4409 2.637186,1.52022 0,0.26866 -2.201337,-0.27027 -4.348823,-1.06467 -2.384451,-0.88204 -4.947808,-2.48318 -7.431545,-4.64194 l -1.655842,-1.43918 1.120643,1.43005 c 0.616373,0.78652 2.146512,2.37541 3.400356,3.53087 1.253834,1.15546 1.896877,1.90399 1.429015,1.66339 -1.377791,-0.70852 -3.789466,-2.41965 -5.184989,-3.67887 -0.714111,-0.64434 -1.362843,-1.10711 -1.441688,-1.02837 -0.07885,0.0787 0.368405,1.39177 0.993854,2.91784 3.063756,7.47536 6.906159,11.29241 13.306929,13.21911 1.46309,0.4404 3.20255,0.61325 6.27742,0.62378 4.95946,0.017 7.64006,-0.48963 10.684,-2.01922 l 2.16778,-1.08933 -0.17462,1.29949 c -0.37396,2.78464 1.49542,3.82507 4.82005,2.68265 2.43048,-0.83518 2.23903,-0.83582 2.23903,0.008 0,1.19639 1.0187,2.73258 2.14879,3.24031 0.74821,0.33618 2.06743,0.45979 4.25981,0.39918 3.11106,-0.0861 3.19622,-0.11047 4.16846,-1.19774 z m -65.268073,-5.80976 c -0.717232,-3.52758 -0.05979,-6.9816 2.264066,-11.8945 2.229036,-4.71244 3.097684,-8.09228 3.331536,-12.96287 l 0.187589,-3.9084 -0.73533,0.655 c -1.165886,1.03849 -2.827165,4.75839 -3.082559,6.90235 l -0.233363,1.95876 -0.260614,-1.86923 c -0.279824,-2.00776 0.345096,-5.52675 1.345247,-7.57536 l 0.532686,-1.09111 -0.685033,0.84966 c -2.379663,2.95151 -5.775068,10.81235 -6.522913,15.10148 -0.480378,2.75517 -0.252677,7.12273 0.497284,9.53847 0.492522,1.58645 3.532219,7.16794 3.764669,6.91268 0.05794,-0.0635 -0.123825,-1.24112 -0.403489,-2.61693 z m 122.249773,0.22449 c 0.66993,-1.14163 1.60999,-3.23748 2.08905,-4.65742 0.78999,-2.34157 0.85571,-2.94526 0.70657,-6.49012 -0.1778,-4.22768 -0.87051,-6.79829 -3.205,-11.89515 -0.98875,-2.15872 -3.7372,-6.79723 -4.02755,-6.79723 -0.05,0 0.28406,0.92643 0.74197,2.05874 0.91583,2.26458 1.41179,6.33509 0.88617,7.27316 -0.26061,0.46523 -0.37708,0.17999 -0.52985,-1.29832 -0.2077,-2.0095 -1.82036,-5.47579 -3.05683,-6.5702 l -0.69339,-0.61372 0.21722,3.9084 c 0.263,4.73067 0.99367,7.64565 3.03122,12.09346 3.05988,6.67953 3.53623,10.09262 2.07711,14.88312 -0.35684,1.17163 0.51126,0.23877 1.76321,-1.89472 z M 58.944429,142.65999 c 0.526865,-0.19938 1.317361,-0.69643 1.756675,-1.10456 0.944933,-0.87785 2.250387,-3.291 1.780381,-3.291 -0.179917,0 -0.423122,0.15512 -0.540438,0.34471 -0.11721,0.18959 -0.851747,0.67003 -1.632056,1.06761 l -1.418748,0.72291 1.543049,-1.49782 c 2.048166,-1.98813 3.041687,-4.08969 3.04332,-6.4374 6.83e-4,-1.01579 0.38354,-4.65438 0.850715,-8.08573 0.467174,-3.43136 0.849418,-6.40207 0.849418,-6.60157 0,-0.19951 -0.373062,-0.0129 -0.829019,0.41511 -1.32633,1.24448 -3.245958,5.22906 -3.563408,7.39658 l -0.288528,1.96996 -0.05186,-2.7189 c -0.068,-3.56554 -0.612748,-2.72444 -1.034229,1.59683 -0.392325,4.02248 -1.454441,7.42459 -2.793379,8.94766 -1.298098,1.47664 -2.21181,1.72046 -3.863789,1.03108 -0.710354,-0.29644 -1.360832,-0.4698 -1.445498,-0.38524 -0.278395,0.27804 1.032351,3.28051 2.03655,4.66508 1.473491,2.03159 3.523629,2.75075 5.600843,1.96469 z m 150.822521,-0.57848 c 0.48408,-0.358 1.21544,-1.14276 1.6252,-1.74394 0.88906,-1.30432 1.98232,-4.05059 1.71768,-4.31488 -0.10319,-0.10302 -0.65365,0.0533 -1.22322,0.34744 -1.43653,0.74193 -2.2161,0.67114 -3.37995,-0.30696 -1.70235,-1.43068 -3.39538,-6.30033 -3.4884,-10.03375 -0.021,-0.84117 -0.25162,-2.14114 -0.51266,-2.88883 l -0.47458,-1.35945 0.14473,1.52938 c 0.0796,0.84115 0.0162,2.14112 -0.14076,2.88883 l -0.28538,1.35944 -0.0392,-1.43166 c -0.0556,-2.0371 -1.22579,-4.91414 -2.81555,-6.92287 -0.75123,-0.94921 -1.42875,-1.66302 -1.50564,-1.58625 -0.077,0.0768 0.16801,2.34485 0.54438,5.04018 0.37627,2.69533 0.83905,6.65763 1.02841,8.80511 0.37814,4.28859 0.8794,5.44775 3.36152,7.77385 l 1.21928,1.14266 -1.191,-0.58888 c -0.65503,-0.32389 -1.45896,-0.82356 -1.78647,-1.11037 -0.52575,-0.46042 -0.59549,-0.46159 -0.59549,-0.0103 0,0.87773 2.02996,3.35864 3.16778,3.87148 1.35576,0.61106 3.46376,0.40136 4.62923,-0.46052 z M 102.43756,125.63263 c 2.97548,-0.78924 8.56918,-1.02125 12.25014,-0.5081 l 2.04168,0.28462 -1.18673,-1.23374 c -0.65271,-0.67856 -2.03085,-1.6478 -3.06253,-2.15386 -1.72277,-0.84506 -2.20894,-0.92013 -5.95918,-0.92013 -3.11682,0 -4.3653,0.13465 -5.27438,0.56884 l -1.19099,0.56883 2.21184,-0.14087 2.21183,-0.14086 -2.34013,0.49318 c -1.28709,0.27125 -2.389584,0.54258 -2.450042,0.60295 -0.06033,0.0604 1.452012,0.0781 3.360992,0.0396 l 3.47087,-0.0703 -2.55212,0.27591 c -3.43842,0.37176 -6.106806,1.44293 -8.071586,3.24021 l -1.62642,1.48775 2.722245,-0.83596 c 1.49725,-0.4598 3.947271,-1.16091 5.444511,-1.55806 z m 66.51476,1.17543 c -2.62781,-2.23241 -4.65483,-3.05876 -8.61236,-3.51097 -2.39895,-0.27413 -2.38667,-0.27669 0.79616,-0.16551 1.77798,0.062 3.6155,0.20594 4.0834,0.31962 0.46789,0.11368 0.23812,-0.009 -0.51044,-0.27271 -0.74861,-0.26369 -2.0502,-0.6422 -2.89239,-0.84113 l -1.53128,-0.36171 2.04168,0.13665 2.04169,0.13665 -1.191,-0.56963 c -0.89942,-0.43019 -2.15077,-0.57065 -5.11139,-0.57377 -3.7286,-0.004 -4.02883,0.0492 -6.13705,1.08579 -2.14159,1.053 -4.04031,2.61582 -3.65073,3.0049 0.10424,0.10405 1.53855,0.0103 3.18757,-0.2094 4.70341,-0.62513 8.56012,-0.0951 15.79498,2.17115 1.40364,0.43967 2.60961,0.75423 2.67991,0.69902 0.0704,-0.0552 -0.37468,-0.52721 -0.9888,-1.04895 z m -84.742474,-3.66747 c 0.03836,-1.54848 1.123764,-3.02213 3.414823,-4.63584 2.953539,-2.08031 2.71517,-2.50141 -1.415415,-2.50059 -1.805384,3.5e-4 -3.409823,0.12889 -3.565414,0.2856 -0.479001,0.48242 -0.227012,4.70023 0.417936,6.99603 0.631508,2.24788 1.090348,2.18985 1.14807,-0.1452 z m 97.682374,-1.90956 c 0.21326,-1.23718 0.33906,-2.83699 0.27951,-3.55513 -0.12806,-1.54509 -0.60513,-1.75658 -4.07875,-1.80845 -4.02314,-0.0601 -4.30315,0.5173 -1.28265,2.64478 2.43629,1.71601 3.21098,2.86045 3.5511,5.24604 l 0.25109,1.76135 0.44596,-1.01959 c 0.24527,-0.56076 0.62044,-2.03182 0.8337,-3.269 z M 70.791373,117.523 c 3.891364,-5.53648 4.403542,-6.71137 4.541578,-10.41802 0.07329,-1.96989 -0.01157,-3.16656 -0.223573,-3.16656 -0.407432,0 -2.701975,2.73021 -3.741947,4.45242 -0.406426,0.67304 -0.965464,2.12596 -1.242298,3.22868 l -0.503343,2.00495 0.07435,-2.12475 c 0.04101,-1.16861 0.02752,-2.12447 -0.0299,-2.12414 -0.05742,3.5e-4 -0.418994,0.71139 -0.803751,1.58011 -0.534035,1.20582 -0.742501,2.57268 -0.881063,5.77765 -0.102923,2.38334 -0.04974,4.19393 0.123296,4.18838 0.167481,-0.005 1.376601,-1.5348 2.686685,-3.39872 z m 125.663757,-0.92474 c -0.127,-3.42883 -0.3081,-4.65244 -0.86719,-5.86261 l -0.70657,-1.52938 -0.0659,2.2091 -0.0659,2.2091 -0.29712,-1.51397 c -0.16352,-0.83269 -0.67937,-2.28561 -1.14655,-3.2287 -0.91596,-1.84906 -3.41558,-4.94338 -3.99333,-4.94338 -0.23071,0 -0.30286,1.09657 -0.20664,3.14373 0.11298,2.40558 0.33171,3.50279 0.93131,4.67309 1.33427,2.60417 5.91218,9.17626 6.39192,9.17626 0.10266,0 0.11457,-1.94996 0.0261,-4.33324 z m -72.74997,-0.26582 c 0,-0.4733 -0.23706,-1.42708 -0.52667,-2.11949 -0.88551,-2.11671 -2.11339,-3.148 -5.42826,-4.55918 l -1.36113,-0.57944 1.13861,-0.019 c 1.32882,-0.0222 4.7142,0.90047 5.00026,1.36274 0.10795,0.17467 0.34964,0.31757 0.53678,0.31757 0.18706,0 0.24554,-0.15294 0.12991,-0.33986 -0.28212,-0.45594 -0.30313,-0.46014 2.5585,0.51196 4.77426,1.62183 8.06668,1.62802 12.92432,0.0243 1.40367,-0.46341 2.59903,-0.70958 2.65635,-0.54705 0.0574,0.16251 0.78483,-0.005 1.61668,-0.37272 0.83185,-0.36751 2.31621,-0.75001 3.29859,-0.85001 l 1.78614,-0.18183 -1.86906,0.90019 c -3.76654,1.81401 -5.1067,3.38357 -5.1067,5.9808 v 1.42107 l 1.36081,-0.1823 c 0.74842,-0.10032 3.61957,-1.20526 6.38028,-2.45555 5.25429,-2.37957 10.02241,-4.26049 10.72898,-4.23232 0.2286,0.009 -0.54813,0.41029 -1.72598,0.89153 -1.17784,0.48123 -2.08658,0.92986 -2.01938,0.99697 0.0672,0.067 1.18351,-0.18116 2.48074,-0.55168 3.33428,-0.95234 3.79781,-0.81546 0.99964,0.2952 -1.31008,0.51999 -2.84136,1.18979 -3.40282,1.48844 l -1.02084,0.54298 1.02084,0.28413 c 0.56147,0.15628 3.16462,0.27989 5.78479,0.27471 l 4.76395,-0.009 4.74903,-1.64119 c 5.26695,-1.82017 7.5968,-1.99751 9.08382,-0.69145 l 0.74258,0.6522 -0.65222,-1.14962 c -0.84357,-1.4869 -3.33559,-3.99284 -4.64126,-4.66718 -0.56186,-0.29019 -2.03794,-0.74265 -3.2802,-1.00546 l -2.25865,-0.47784 2.44153,0.14456 c 2.51041,0.14863 3.82409,0.63317 5.89538,2.17443 l 1.19099,0.88623 -0.53887,-0.84139 c -0.76956,-1.20162 -3.49041,-2.95763 -5.51153,-3.5571 -3.59061,-1.06498 -10.17195,-0.51213 -20.43062,1.71624 -6.48427,1.40851 -7.48246,1.46569 -2.56111,0.14673 5.62234,-1.50684 8.30299,-3.16564 9.6303,-5.95928 0.71734,-1.509833 0.66718,-2.118142 -0.34142,-4.139648 -1.99461,-3.997695 -7.21168,-6.727354 -16.42132,-8.591867 -4.4779,-0.906573 -5.65629,-1.01216 -11.29471,-1.01216 -5.62095,0 -6.82368,0.107 -11.22929,0.999392 -8.36069,1.693454 -13.26861,4.033083 -15.88206,7.57105 -1.3385,1.812002 -1.61007,3.419547 -0.86267,5.107003 1.26592,2.85823 4.21978,4.66325 9.86755,6.02976 4.81886,1.16594 3.47692,1.20076 -1.85269,0.048 -11.80951,-2.55418 -17.458562,-3.07487 -21.281648,-1.96158 -2.130689,0.62044 -4.834347,2.25765 -5.365639,3.24913 -0.324485,0.60556 -0.153193,0.56115 1.240103,-0.3213 2.021681,-1.28052 3.506316,-1.69935 5.893659,-1.66264 l 1.871557,0.0288 -2.456603,0.44495 c -2.947699,0.53391 -4.26189,1.29433 -6.540685,3.78462 -1.954001,2.13535 -2.17723,2.7591 -0.71763,2.00525 1.5807,-0.81642 3.760761,-0.62405 7.39857,0.65285 5.84305,2.05096 7.316938,2.31801 11.861536,2.14921 2.25539,-0.0837 4.39896,-0.31902 4.7635,-0.52278 0.59579,-0.333 0.4908,-0.44572 -1.03814,-1.11454 -0.93554,-0.40924 -2.46661,-1.02635 -3.40238,-1.37133 -2.26187,-0.8339 -1.27079,-0.821 1.68019,0.0218 1.29722,0.37052 2.41241,0.61992 2.47819,0.55423 0.0656,-0.0658 -0.73361,-0.46531 -1.77641,-0.88802 -1.04281,-0.42272 -1.83513,-0.8294 -1.7607,-0.90373 0.2368,-0.23644 5.02302,1.59608 9.24688,3.54034 4.84255,2.22904 7.14892,3.08241 8.42197,3.1162 0.78103,0.0207 0.93578,-0.11754 0.93578,-0.83574 z m -21.84183,-5.48909 c 0.24553,-0.0981 0.53914,-0.0861 0.6522,0.0268 0.11297,0.11291 -0.0878,0.19326 -0.44662,0.1785 -0.39642,-0.0163 -0.47704,-0.0968 -0.20558,-0.20533 z m 60.57013,0 c 0.24553,-0.0981 0.53914,-0.0861 0.6522,0.0268 0.11297,0.11291 -0.0878,0.19326 -0.44662,0.1785 -0.3964,-0.0163 -0.47704,-0.0968 -0.20558,-0.20533 z m -44.23661,-3.39861 c 0.24553,-0.0981 0.53914,-0.0861 0.65219,0.0268 0.11298,0.11291 -0.0878,0.19327 -0.44661,0.17851 -0.39643,-0.0163 -0.47705,-0.0969 -0.20558,-0.20533 z m 27.90309,0 c 0.24554,-0.0981 0.53914,-0.0861 0.6522,0.0268 0.11298,0.11291 -0.0878,0.19327 -0.44662,0.17851 -0.39642,-0.0163 -0.47704,-0.0969 -0.20558,-0.20533 z m -51.042234,-1.35946 c 0.245534,-0.0981 0.539142,-0.0861 0.652198,0.0268 0.112977,0.11291 -0.08784,0.19326 -0.446616,0.1785 -0.396425,-0.0163 -0.477044,-0.0969 -0.205582,-0.20533 z m 73.819844,0.008 c 0.23389,-0.0943 0.61674,-0.0943 0.85071,0 0.23389,0.0943 0.0426,0.17142 -0.42534,0.17142 -0.46789,0 -0.65929,-0.0771 -0.42535,-0.17142 z m -105.377716,7.15389 c 1.08966,-0.4884 2.217367,-1.14864 2.506001,-1.46721 0.288661,-0.31856 1.280319,-2.12221 2.203715,-4.00811 l 1.678887,-3.42891 -1.879997,0.98771 c -2.449459,1.28689 -3.420086,1.27598 -1.381072,-0.0155 0.871141,-0.55179 2.063565,-1.66058 2.64985,-2.464 1.261268,-1.72839 2.477161,-4.010807 2.254964,-4.232771 -0.227012,-0.22664 -6.742104,5.066821 -8.006601,6.505241 -1.338527,1.52261 -2.133044,3.09561 -3.092553,6.12275 -0.414734,1.30846 -0.821399,2.58987 -0.903684,2.84756 -0.205846,0.64484 1.41298,0.29958 3.970498,-0.84673 z m 141.532636,1.09374 c 0,-0.61875 -1.63275,-5.17706 -2.39549,-6.68784 -0.98408,-1.94911 -3.42601,-4.44585 -7.03498,-7.19292 -2.90244,-2.209272 -2.93838,-2.220499 -2.31152,-0.722073 0.99526,2.379023 3.41757,5.046773 5.78706,6.373433 1.72437,0.96544 -0.34314,0.33348 -2.62435,-0.80217 l -1.94379,-0.96766 1.85709,3.69834 c 1.08418,2.15913 2.2099,3.92923 2.70479,4.25309 1.80144,1.1789 5.96118,2.60786 5.96119,2.0478 z M 80.154003,105.53334 c 0.01029,-0.894 3.396818,-7.333902 4.894484,-9.308883 3.704765,-4.885488 9.393727,-8.60082 14.680012,-9.587187 2.724681,-0.508398 2.129631,-0.803272 -1.204171,-0.596722 -2.428505,0.150456 -2.978733,0.113937 -2.211838,-0.147013 0.561473,-0.19102 2.858365,-0.459599 5.10423,-0.59685 l 4.08338,-0.249555 -2.72226,-0.257905 c -4.391363,-0.416042 -4.33089,-0.467127 0.61063,-0.515849 3.33317,-0.03288 5.33094,0.113551 6.89098,0.504892 1.76295,0.442297 2.29775,0.46764 2.70711,0.128323 0.76343,-0.632817 0.61947,-1.467341 -0.42563,-2.467118 -3.07086,-2.937738 -10.34397,-3.035657 -18.394695,-0.247641 -4.332665,1.500429 -7.059398,3.183055 -10.13415,6.253638 -4.554362,4.548199 -6.037511,8.656529 -5.225245,14.474 0.221985,1.58885 0.472069,3.00602 0.556048,3.14926 0.208227,0.35519 0.785072,-0.0352 0.791115,-0.53539 z M 94.015589,86.381035 c 0.233892,-0.09428 0.616771,-0.09428 0.850715,0 0.233892,0.09428 0.0426,0.171418 -0.425344,0.171418 -0.467889,0 -0.659289,-0.07707 -0.425344,-0.171418 z m 91.411891,18.573375 c 0.12012,-0.75002 0.31263,-2.47791 0.42791,-3.83976 0.62621,-7.398826 -5.12267,-14.865047 -14.18884,-18.427445 -5.39815,-2.121121 -11.35345,-2.973332 -15.42104,-2.206772 -3.61224,0.680729 -6.20564,3.005574 -4.85622,4.353339 0.48185,0.481269 0.75202,0.477724 2.89098,-0.03789 1.64991,-0.397737 3.67509,-0.555321 6.73442,-0.52403 l 4.37498,0.0447 -3.06253,0.415849 -3.06254,0.415849 2.72225,0.065 c 1.49725,0.03584 3.71758,0.278791 4.93408,0.540023 l 2.21184,0.47495 -3.1476,-0.187038 c -1.73119,-0.10289 -3.14761,-0.107 -3.14761,-0.009 0,0.09775 0.78314,0.345599 1.74032,0.550621 8.28175,1.773928 14.91775,7.671088 18.86159,16.761594 0.70959,1.63558 1.39806,2.97378 1.52993,2.97378 0.13176,0 0.338,-0.61365 0.4581,-1.36367 z M 169.5581,86.381035 c 0.23389,-0.09428 0.61677,-0.09428 0.85072,0 0.23389,0.09428 0.0426,0.171418 -0.42535,0.171418 -0.46789,0 -0.65929,-0.07707 -0.42534,-0.171418 z m -68.65181,7.370742 c 3.50579,-1.992283 6.21629,-3.144108 9.89482,-4.204797 2.5686,-0.740639 2.69382,-0.81708 1.67264,-1.021061 -2.9305,-0.58538 -9.03472,0.04342 -12.588319,1.296821 -2.026496,0.714756 -6.840336,2.85955 -5.274362,2.349983 2.560187,-0.833073 5.048932,-1.431567 6.646261,-1.598285 1.02344,-0.106743 1.55453,-0.115991 1.18023,-0.02055 -3.486682,0.89008 -9.353063,3.376401 -9.84599,4.17298 -0.200025,0.323133 1.292384,0.914742 2.870211,1.137824 1.152816,0.163005 2.056871,-0.187848 5.444499,-2.11299 z m 70.04793,1.622331 c 0.95452,-0.290506 1.06569,-0.421052 0.68055,-0.799162 -0.81482,-0.799957 -4.56646,-2.492345 -7.48755,-3.377685 -2.72866,-0.827022 -2.7674,-0.852507 -0.98017,-0.644826 1.59994,0.185908 4.14484,0.806329 6.64627,1.620288 1.59903,0.520331 -3.27087,-1.643435 -5.35619,-2.379809 -2.82428,-0.997337 -8.41651,-1.640648 -11.44106,-1.316154 l -2.25854,0.242311 2.7366,0.789875 c 4.00877,1.157078 6.06524,2.019836 9.72658,4.080636 4.8167,2.711111 4.74405,2.694348 7.73351,1.784526 z M 73.577625,93.712266 c 1.593321,-0.770363 5.158127,-3.911504 4.01937,-3.541692 -2.42435,0.787331 -6.852335,1.139275 -6.465344,0.513883 0.115622,-0.186922 0.622379,-0.34136 1.125987,-0.343184 1.689047,-0.0064 6.76389,-2.742916 6.344118,-3.421281 -0.330888,-0.534705 -2.330556,-0.35021 -6.138585,0.566343 -3.497998,0.841923 -4.986326,0.913123 -6.399268,0.306113 -0.595021,-0.255632 -0.631322,-0.144174 -0.476673,1.463255 0.394785,4.103462 4.2609,6.259753 7.990395,4.456563 z M 196.1886,93.658188 c 1.5344,-1.043001 2.36273,-2.242161 2.75583,-3.989551 0.36504,-1.622742 -0.0339,-2.52198 -0.78566,-1.77109 -0.62976,0.628976 -2.84967,0.475656 -6.39728,-0.441822 -3.3529,-0.867125 -5.60649,-1.072905 -5.93504,-0.54195 -0.41553,0.67148 3.38804,2.69729 6.95588,3.704787 1.16269,0.328322 1.14623,0.337134 -0.69146,0.371006 -1.03537,0.01914 -2.68148,-0.172305 -3.65804,-0.425303 -0.97655,-0.253011 -1.77557,-0.341398 -1.77557,-0.196415 0,0.447589 2.73966,2.633141 4.21514,3.362605 1.86815,0.923579 3.89167,0.896078 5.31621,-0.07232 z M 83.381787,82.91739 c 2.007844,-0.953187 3.433461,-2.086618 8.17027,-6.495782 1.312016,-1.221266 3.677126,-3.09987 5.255805,-4.174688 1.578663,-1.074806 2.725536,-1.951937 2.548599,-1.949175 -0.955834,0.0149 -4.747819,1.099365 -6.407343,1.832374 -1.051031,0.464249 -1.911006,0.7685 -1.911006,0.676105 0,-0.394257 5.130231,-2.544073 7.316065,-3.065779 3.327173,-0.794114 3.351403,-0.801872 3.146853,-1.006174 -0.28009,-0.279755 -5.526632,0.508295 -7.118405,1.069205 -0.774938,0.273075 -1.471427,0.434115 -1.547786,0.357879 -0.222515,-0.222196 4.032091,-1.553211 6.582859,-2.059425 1.631022,-0.323673 2.030202,-0.488861 1.318442,-0.545573 -4.34142,-0.34592 -8.255353,1.260508 -13.213515,5.423315 -3.056798,2.566462 -5.762117,3.877438 -8.034623,3.893507 -2.33852,0.01657 -3.896665,-0.754807 -4.877009,-2.414336 l -0.726308,-1.229474 -0.425397,0.995666 c -1.008089,2.359527 -0.226483,5.742157 1.792102,7.75507 2.166356,2.160337 4.892146,2.47458 8.130397,0.937285 z m 104.452303,0.196621 c 2.06941,-1.170656 3.34323,-3.226652 3.52116,-5.683223 0.0876,-1.209025 -0.0267,-2.462596 -0.28012,-3.073679 l -0.42799,-1.031941 -0.5851,0.947767 c -0.87537,1.417951 -1.71167,2.030999 -3.37391,2.473206 -2.82579,0.75175 -5.91608,-0.521693 -10.48452,-4.320468 -4.14443,-3.446188 -7.50701,-4.879104 -11.29259,-4.812181 l -2.24364,0.03969 2.38197,0.47143 c 2.58566,0.511764 6.76416,1.813042 6.54017,2.036754 -0.0762,0.07617 -0.76973,-0.08375 -1.54086,-0.355439 -1.4782,-0.520909 -6.23701,-1.27912 -6.48342,-1.033007 -0.16219,0.162106 -0.16166,0.16235 3.34369,1.183552 2.31888,0.675579 6.47734,2.519012 6.47734,2.871406 0,0.08054 -0.85995,-0.233499 -1.91098,-0.697748 -1.83581,-0.810876 -5.93152,-1.934673 -6.17278,-1.693711 -0.064,0.06397 1.12641,0.985994 2.64538,2.049059 1.51898,1.063052 4.59341,3.594768 6.83211,5.626037 4.7362,4.297385 7.29706,5.778727 9.97499,5.770082 1.15885,-0.0039 2.17795,-0.257777 3.0791,-0.767575 z m -63.67204,0.056 c 0.90646,-0.41251 1.5866,-1.60901 1.5816,-2.782364 -0.005,-1.224849 -1.86883,-4.101894 -3.75285,-5.793704 -0.96805,-0.869296 -2.90613,-2.146233 -4.30684,-2.837636 -2.21068,-1.091235 -2.93782,-1.275794 -5.51032,-1.398632 -2.90523,-0.138728 -5.72257,0.251906 -7.6356,1.058711 -0.81455,0.343543 -0.37108,0.397043 2.8924,0.349015 l 3.85443,-0.05678 -2.72224,0.324918 c -5.91686,0.706227 -10.489962,2.269713 -14.1853,4.84974 -2.450385,1.710833 -5.829559,4.629882 -5.611629,4.847543 0.07488,0.07476 1.497224,-0.318958 3.160858,-0.874884 3.677793,-1.228986 10.022751,-2.406565 12.966831,-2.406565 3.10985,0 7.031,0.877337 9.87937,2.210458 1.35689,0.635065 2.46706,1.098839 2.46706,1.030618 0,-0.346138 -3.6182,-2.271665 -6.30814,-3.357042 -3.48404,-1.4058 -3.43715,-1.540366 0.18997,-0.544943 3.29487,0.904247 7.62587,3.000808 9.3509,4.52662 1.4346,1.268895 2.32593,1.47542 3.68958,0.85487 z m -12.09027,-11.07025 c 0.24553,-0.09814 0.53914,-0.08606 0.65219,0.02685 0.11298,0.112909 -0.0878,0.193255 -0.44661,0.178496 -0.39643,-0.01631 -0.47705,-0.09685 -0.20558,-0.205329 z m 32.09179,10.119606 c 2.09683,-1.58508 4.67707,-2.88411 7.90999,-3.982345 3.2438,-1.101922 3.94696,-1.00146 1.19613,0.170892 -2.55215,1.087676 -6.1957,3.103094 -5.98689,3.311635 0.0762,0.07617 0.81264,-0.233654 1.63653,-0.688398 0.82388,-0.454757 2.6464,-1.183013 4.05005,-1.618348 4.84685,-1.503243 13.33402,-0.820484 20.09939,1.61691 1.24928,0.450081 2.39638,0.818326 2.54913,0.818326 0.54403,0 -1.76409,-2.16419 -4.44344,-4.166378 -4.16172,-3.109902 -8.15472,-4.64834 -14.32041,-5.517405 l -3.37425,-0.475617 3.63553,0.06679 c 3.8406,0.07052 3.98323,-0.107385 0.75869,-0.946212 -5.81874,-1.513712 -11.49725,0.04367 -15.88226,4.355741 -3.324,3.268758 -4.07967,6.104955 -2.05121,7.698576 1.26942,0.997285 2.24944,0.847806 4.22303,-0.64412 z m 7.69989,-10.112529 c 0.23389,-0.09428 0.61674,-0.09428 0.85072,0 0.23389,0.09428 0.0426,0.171419 -0.42535,0.171419 -0.46789,0 -0.65929,-0.0772 -0.42534,-0.171419 z m -22.03323,7.243589 c 0,-2.298576 -0.94631,-5.347477 -2.25174,-7.254918 -1.3449,-1.965129 -2.54278,-2.97919 -5.06433,-4.28716 -2.3554,-1.221806 -1.59226,-1.140214 1.03106,0.110211 1.18205,0.563453 2.85006,1.70477 3.70667,2.536289 0.85661,0.831505 1.55749,1.435985 1.55749,1.343282 0,-0.09274 -0.36944,-0.889925 -0.82095,-1.771591 -1.65873,-3.238945 -6.27333,-6.890218 -9.49551,-7.513273 -0.96994,-0.187552 -3.22386,-0.555977 -5.0087,-0.818699 -2.39496,-0.352548 -3.88825,-0.800034 -5.69972,-1.708033 -1.35001,-0.676682 -2.45454,-1.078787 -2.45454,-0.89356 0,0.185227 1.00955,1.34508 2.24343,2.577445 1.58663,1.584681 1.92691,2.055456 1.16229,1.608046 -2.90133,-1.697667 -5.7425,-6.091455 -6.05773,-9.368126 -0.0863,-0.896643 -0.27932,-1.630268 -0.42905,-1.630268 -0.44757,0 -2.329657,2.44293 -3.09451,4.016641 -1.47648,3.037854 -0.128323,6.115322 3.49469,7.977882 1.01534,0.521976 4.36909,1.560738 7.45277,2.308377 5.84484,1.417065 11.71878,3.865428 13.13005,5.472807 0.68456,0.779701 0.53896,0.723439 -1.65349,-0.638841 -1.63859,-1.018133 -1.66634,-0.543247 -0.0331,0.567846 2.24443,1.526993 6.12795,5.653692 6.96267,7.398693 0.44656,0.933548 0.92678,1.631541 1.06714,1.551091 0.1405,-0.08041 0.25533,-0.793316 0.25533,-1.584167 z m 9.34109,-3.8146 c 1.5064,-1.509023 3.3514,-3.238122 4.10003,-3.842436 1.44867,-1.169423 0.66524,-0.903271 -1.7014,0.578019 -0.93189,0.58326 -1.20568,0.663697 -0.86815,0.255067 1.62523,-1.967775 7.92882,-4.599645 15.00928,-6.266702 7.29302,-1.717089 10.18901,-3.855139 10.18901,-7.522303 0,-1.605528 -0.62018,-2.970018 -2.28026,-5.016945 -1.31307,-1.619067 -1.80313,-1.601045 -1.80313,0.06628 0,2.910892 -2.38191,6.855819 -5.428,8.989901 -1.09792,0.769193 -2.10971,1.398542 -2.2484,1.398542 -0.13865,0 0.35406,-0.438611 1.095,-0.974704 1.40044,-1.013213 3.85914,-3.688268 3.85914,-4.198721 0,-0.161156 -0.6558,0.09081 -1.45736,0.559997 -2.27573,1.33203 -4.18766,1.889343 -8.37118,2.440156 -4.41968,0.581898 -6.63785,1.509344 -9.37288,3.918928 -1.58856,1.399544 -4.27802,5.08112 -4.27802,5.856171 0,0.197648 0.72737,-0.34592 1.61634,-1.207946 0.889,-0.862013 2.41517,-1.965065 3.39151,-2.451215 2.37035,-1.180277 2.73059,-1.119507 0.59986,0.10122 -1.97292,1.130283 -4.24451,3.467215 -5.20386,5.353539 -0.9153,1.799735 -1.53545,5.033233 -1.25161,6.525878 l 0.23574,1.239751 0.7147,-1.529383 c 0.39309,-0.841152 1.94722,-2.764034 3.45362,-4.273044 z m -0.15346,-1.632915 c 0,-0.07052 0.26797,-0.338213 0.5955,-0.594756 0.53969,-0.422747 0.55173,-0.410724 0.12858,0.128323 -0.44455,0.566124 -0.72398,0.746149 -0.72398,0.466433 z m -10.0472,-9.978322 c -0.79815,-2.742158 -1.94141,-4.821827 -3.44962,-6.275076 -1.63333,-1.573815 -3.15722,-2.215096 -6.31252,-2.656481 -3.73093,-0.521899 -4.69096,-0.908615 -4.69096,-1.889638 0,-0.997285 -0.52308,-1.072545 -1.0192,-0.146641 -0.2739,0.511148 -0.22939,0.933856 0.18177,1.728252 0.54411,1.050901 2.49076,2.132193 6.30901,3.504428 2.1023,0.755552 3.05993,1.846979 4.88843,5.571419 0.86603,1.764038 1.81123,3.232663 2.1446,3.33229 0.32785,0.09801 0.97893,0.368155 1.4468,0.600383 0.81526,0.404648 0.85513,0.37513 0.95694,-0.708642 0.0585,-0.621988 -0.14658,-1.999117 -0.45537,-3.060294 z m 6.98464,3.819199 c 0.2331,-0.280384 0.70067,-0.509786 1.03933,-0.509786 0.78333,0 1.62886,-1.204734 3.12347,-4.450409 1.3965,-3.032639 2.37864,-3.878801 6.04518,-5.2083 4.0214,-1.458156 5.62481,-3.009761 4.76619,-4.612155 -0.43665,-0.814859 -1.02264,-0.605701 -1.02264,0.36502 0,0.841589 -0.78105,1.132249 -4.42366,1.646274 -1.59081,0.224495 -3.54146,0.717004 -4.33476,1.094471 -3.00801,1.43131 -5.73465,5.983582 -6.12766,10.230486 -0.18441,1.992964 0.10584,2.441645 0.93455,1.444399 z M 121.26867,60.77567 c -1.12898,-1.525144 -3.12674,-2.324781 -6.76374,-2.707322 -1.77103,-0.186268 -3.47263,-0.341335 -3.78135,-0.344572 -0.30872,-0.0039 -1.3577,-0.541166 -2.33109,-1.195408 -0.9734,-0.65423 -1.81665,-1.189513 -1.87389,-1.189513 -0.39169,0 0.4485,1.603345 1.32853,2.5353 1.19531,1.265838 2.17405,1.600442 7.52113,2.571279 2.0587,0.373781 4.20249,0.817478 4.76395,0.985994 1.76461,0.529593 1.93929,0.428797 1.13646,-0.655758 z m 27.16352,-0.161759 c 7.07177,-1.330425 7.99162,-1.734084 9.18841,-4.032159 0.72491,-1.391952 0.34965,-1.46508 -1.18745,-0.23138 -1.08373,0.869836 -1.83232,1.144118 -3.85071,1.410912 -6.70519,0.88629 -7.11856,0.995371 -8.50181,2.243509 -1.3244,1.195036 -1.73818,2.024538 -0.83773,1.67944 0.26509,-0.101605 2.60027,-0.583247 5.18929,-1.070322 z"
       id="path847" />
  </g>
</svg>
